<?xml version="1.0" encoding="UTF-8" standalone="no"?>
<!-- Created with Inkscape (http://www.inkscape.org/) -->

<svg
   xmlns:dc="http://purl.org/dc/elements/1.1/"
   xmlns:cc="http://creativecommons.org/ns#"
   xmlns:rdf="http://www.w3.org/1999/02/22-rdf-syntax-ns#"
   xmlns:svg="http://www.w3.org/2000/svg"
   xmlns="http://www.w3.org/2000/svg"
   xmlns:xlink="http://www.w3.org/1999/xlink"
   xmlns:sodipodi="http://sodipodi.sourceforge.net/DTD/sodipodi-0.dtd"
   xmlns:inkscape="http://www.inkscape.org/namespaces/inkscape"
   width="120"
   height="60"
   id="svg3067"
   version="1.1"
   inkscape:version="0.48.1 "
   sodipodi:docname="Nouveau document 1">
  <defs
     id="defs3069">
    <linearGradient
       y2="335.06189"
       x2="162.45091"
       y1="337.00073"
       x1="296.74924"
       gradientTransform="matrix(0.87553728,0,0,0.63707697,74.133936,-20.353301)"
       gradientUnits="userSpaceOnUse"
       id="linearGradient5768"
       xlink:href="#linearGradient5606-4-9"
       inkscape:collect="always" />
    <linearGradient
       id="linearGradient5606-4-9">
      <stop
         style="stop-color:#f54b17;stop-opacity:1;"
         offset="0"
         id="stop5610-5-8" />
      <stop
         id="stop5612-2-6"
         offset="1"
         style="stop-color:#ffffff;stop-opacity:1;" />
    </linearGradient>
    <linearGradient
       y2="332.83051"
       x2="71.040146"
       y1="335.68762"
       x1="248.57977"
       gradientTransform="matrix(0.62088299,0,0,0.63707697,155.74269,-20.353301)"
       gradientUnits="userSpaceOnUse"
       id="linearGradient5770"
       xlink:href="#linearGradient5632-9-2"
       inkscape:collect="always" />
    <linearGradient
       id="linearGradient5632-9-2">
      <stop
         style="stop-color:#003e08;stop-opacity:1;"
         offset="0"
         id="stop5634-8-3" />
      <stop
         style="stop-color:#939393;stop-opacity:0.56097561;"
         offset="1"
         id="stop5636-3-8" />
    </linearGradient>
    <linearGradient
       y2="335.06189"
       x2="162.45091"
       y1="337.00073"
       x1="296.74924"
       gradientTransform="matrix(0.8616286,0,0,0.62695644,155.44385,233.54289)"
       gradientUnits="userSpaceOnUse"
       id="linearGradient3094"
       xlink:href="#linearGradient5606-4-9"
       inkscape:collect="always" />
    <linearGradient
       y2="332.83051"
       x2="71.040146"
       y1="335.68762"
       x1="248.57977"
       gradientTransform="matrix(0.61101971,0,0,0.62695644,235.75617,233.54289)"
       gradientUnits="userSpaceOnUse"
       id="linearGradient3096"
       xlink:href="#linearGradient5632-9-2"
       inkscape:collect="always" />
  </defs>
  <sodipodi:namedview
     id="base"
     pagecolor="#ffffff"
     bordercolor="#666666"
     borderopacity="1.0"
     inkscape:pageopacity="0.0"
     inkscape:pageshadow="2"
     inkscape:zoom="1.4"
     inkscape:cx="-15.313714"
     inkscape:cy="143.41871"
     inkscape:document-units="px"
     inkscape:current-layer="layer1"
     showgrid="false"
     inkscape:window-width="1440"
     inkscape:window-height="844"
     inkscape:window-x="-4"
     inkscape:window-y="-4"
     inkscape:window-maximized="1"
     fit-margin-top="0"
     fit-margin-left="0"
     fit-margin-right="0"
     fit-margin-bottom="0" />
  <metadata
     id="metadata3072">
    <rdf:RDF>
      <cc:Work
         rdf:about="">
        <dc:format>image/svg+xml</dc:format>
        <dc:type
           rdf:resource="http://purl.org/dc/dcmitype/StillImage" />
        <dc:title></dc:title>
      </cc:Work>
    </rdf:RDF>
  </metadata>
  <g
     inkscape:label="Calque 1"
     inkscape:groupmode="layer"
     id="layer1"
     transform="translate(-313.76052,-414.2277)">
    <path
       style="fill:url(#linearGradient3094);fill-opacity:1;stroke:url(#linearGradient3096);stroke-width:3.4443996;stroke-linecap:round;stroke-linejoin:round;stroke-miterlimit:4;stroke-opacity:1;stroke-dasharray:none"
       d="m 384.11223,415.96577 c -0.23238,-0.0152 -0.39702,0.0432 -0.53463,0.13714 -0.007,-0.002 -0.0125,0.002 -0.019,0 -4.65,-1.37415 -1.1839,6.82786 -1.22203,11.8534 -5e-5,0.006 7e-5,0.0133 0,0.0195 -0.20884,0.82914 -0.68152,1.44634 -1.52756,1.72414 l -10.40643,-0.45065 -52.14671,-2.62537 c -2.32708,-0.14284 -2.61773,1.00383 -2.04309,2.82131 -0.9628,1.91517 4.54939,10.5103 4.54446,14.79225 -0.005,4.28195 -5.50602,12.85996 -4.54446,14.77267 -0.57464,1.81747 -0.28399,2.96416 2.04309,2.82129 l 51.80302,-2.60577 10.75012,-0.45063 c 0.84604,0.27779 1.31872,0.8754 1.52756,1.70454 0.002,0.006 -0.002,0.0133 0,0.0195 0.0382,5.02553 -3.42797,13.22756 1.22203,11.85339 0.005,0.003 0.0144,-0.003 0.019,0 0.20895,0.14342 0.49949,0.17596 0.93562,0.0587 4.75775,-1.27837 47.03644,-16.68229 47.04851,-27.25301 3.5e-4,-0.30454 -0.016,-0.60877 -0.0764,-0.92084 0.0629,-0.31858 0.0768,-0.62966 0.0764,-0.94044 -0.012,-10.57071 -42.29076,-25.97462 -47.04851,-27.253 -0.14869,-0.04 -0.2805,-0.0705 -0.40099,-0.0785 z"
       id="path5070-8-2"
       inkscape:connector-curvature="0"
       sodipodi:nodetypes="ccccccccczccccccccsscsscc" />
  </g>
</svg>
