<?xml version="1.0" encoding="UTF-8" standalone="no"?>
<!-- Created with Inkscape (http://www.inkscape.org/) -->
<svg
   xmlns:dc="http://purl.org/dc/elements/1.1/"
   xmlns:cc="http://creativecommons.org/ns#"
   xmlns:rdf="http://www.w3.org/1999/02/22-rdf-syntax-ns#"
   xmlns:svg="http://www.w3.org/2000/svg"
   xmlns="http://www.w3.org/2000/svg"
   xmlns:sodipodi="http://sodipodi.sourceforge.net/DTD/sodipodi-0.dtd"
   xmlns:inkscape="http://www.inkscape.org/namespaces/inkscape"
   width="24"
   height="26"
   id="svg2"
   sodipodi:version="0.32"
   inkscape:version="0.46"
   version="1.0"
   sodipodi:docname="burning-2.svg"
   inkscape:output_extension="org.inkscape.output.svg.inkscape"
   inkscape:export-filename="F:\work\png\burning-2.png"
   inkscape:export-xdpi="90"
   inkscape:export-ydpi="90">
  <defs
     id="defs4">
    <linearGradient
       id="linearGradient3169">
      <stop
         style="stop-color:#ffffff;stop-opacity:1;"
         offset="0"
         id="stop3171" />
      <stop
         style="stop-color:#00aa36;stop-opacity:1;"
         offset="1"
         id="stop3173" />
    </linearGradient>
    <inkscape:perspective
       sodipodi:type="inkscape:persp3d"
       inkscape:vp_x="0 : 526.18109 : 1"
       inkscape:vp_y="0 : 1000 : 0"
       inkscape:vp_z="744.09448 : 526.18109 : 1"
       inkscape:persp3d-origin="372.04724 : 350.78739 : 1"
       id="perspective10" />
  </defs>
  <sodipodi:namedview
     id="base"
     pagecolor="#ffffff"
     bordercolor="#666666"
     borderopacity="1.0"
     inkscape:pageopacity="0.0"
     inkscape:pageshadow="2"
     inkscape:zoom="15.999999"
     inkscape:cx="8.9498411"
     inkscape:cy="8.2546683"
     inkscape:document-units="px"
     inkscape:current-layer="layer1"
     showgrid="false"
     inkscape:window-width="775"
     inkscape:window-height="667"
     inkscape:window-x="583"
     inkscape:window-y="152"
     fit-margin-top="0"
     fit-margin-left="0"
     fit-margin-right="0"
     fit-margin-bottom="0"
     inkscape:window-maximized="1"
     showguides="true"
     inkscape:guide-bbox="true" />
  <metadata
     id="metadata7">
    <rdf:RDF>
      <cc:Work
         rdf:about="">
        <dc:format>image/svg+xml</dc:format>
        <dc:type
           rdf:resource="http://purl.org/dc/dcmitype/StillImage" />
        <dc:title />
      </cc:Work>
    </rdf:RDF>
  </metadata>
  <g
     inkscape:label="Calque 1"
     inkscape:groupmode="layer"
     id="layer1"
     transform="translate(-4.125,-3.862)">
    <path
       style="fill:none;stroke:#000000;stroke-width:1px;stroke-linecap:round;stroke-linejoin:miter;stroke-opacity:1"
       d="m 13.607082,19.421361 c 1.601442,-0.250068 3.047995,-0.188376 4.351101,0.158221"
       id="path3181"
       sodipodi:nodetypes="cc"
       inkscape:connector-curvature="0" />
    <path
       style="fill:#eacd39;fill-rule:evenodd;stroke:#cc6117;stroke-width:1px;stroke-linecap:butt;stroke-linejoin:miter;stroke-opacity:1;fill-opacity:1"
       d="M 5.9445437,20.873476 C 5.2503127,19.519223 4.7196197,18.78391 5.4142136,13.150757 C 6.7149628,14.912973 7.4477044,15.132213 7.9623109,14.395238 C 7.8519174,13.470763 7.2067305,10.528215 8.5122478,5.9206791 C 9.442765,8.3131436 10.244965,11.971423 11.590675,12.300883 C 12.248885,12.380343 13.759168,13.05733 14.520816,10.128102 C 15.570824,13.645633 14.941347,13.836738 15.909903,14.564971 C 16.188365,14.58949 17.76172,16.299305 17.920311,13.293524 C 20.179994,17.761634 18.125577,21.536281 17.170311,22.839466 C 13.380262,25.772352 9.6762998,24.955167 5.9445437,20.873476 z"
       id="path2389"
       transform="translate(4.125,3.862)"
       sodipodi:nodetypes="cccccccccc" />
    <g
       id="g3169">
      <path
         transform="matrix(1.4091964,0,0,1.4091964,-8.2357229,-1.0287937)"
         d="m 23.57506,9.3347158 c 0,0.9393732 -0.708383,1.7008852 -1.582218,1.7008852 -0.873836,0 -1.582219,-0.761512 -1.582219,-1.7008852 0,-0.9393729 0.708383,-1.7008851 1.582219,-1.7008851 0.873835,0 1.582218,0.7615122 1.582218,1.7008851 z"
         sodipodi:ry="1.7008852"
         sodipodi:rx="1.5822188"
         sodipodi:cy="9.3347158"
         sodipodi:cx="21.992842"
         id="path3159"
         style="fill:#ffffff;fill-opacity:1;stroke:#003e08;stroke-width:1.06443644;stroke-linecap:round;stroke-linejoin:round;stroke-miterlimit:4;stroke-opacity:1;stroke-dasharray:none;stroke-dashoffset:0"
         sodipodi:type="arc" />
      <path
         transform="matrix(0.7283679,0,0,0.7283679,36.450572,0.389902)"
         d="m -18.90768,16.057133 c 0,0.154473 -0.125226,0.279699 -0.2797,0.279699 -0.154474,0 -0.279699,-0.125226 -0.279699,-0.279699 0,-0.154474 0.125225,-0.2797 0.279699,-0.2797 0.154474,0 0.2797,0.125226 0.2797,0.2797 z"
         sodipodi:ry="0.27969941"
         sodipodi:rx="0.27969941"
         sodipodi:cy="16.057133"
         sodipodi:cx="-19.18738"
         id="path3179"
         style="fill:#000000;fill-opacity:1;stroke:#000000;stroke-width:1.5;stroke-linecap:round;stroke-linejoin:round;stroke-miterlimit:4;stroke-opacity:1;stroke-dasharray:none;stroke-dashoffset:0"
         sodipodi:type="arc" />
    </g>
    <path
       style="fill:#eacd39;fill-opacity:1;fill-rule:evenodd;stroke:#cc6117;stroke-width:1px;stroke-linecap:butt;stroke-linejoin:miter;stroke-opacity:1"
       d="M 16.196482,12.674499 C 14.972112,11.009975 16.195006,10.895218 16.196482,8.2994991 C 17.615852,9.998309 16.883093,12.035183 16.196482,12.674499 z"
       id="path2391"
       sodipodi:nodetypes="ccc" />
    <g
       id="g3165">
      <path
         transform="matrix(1.3270525,0,0,1.3135112,-2.9010276,-0.705528)"
         d="m 14.002637,8.1084957 c 0,2.1408963 -1.71783,3.8764363 -3.836881,3.8764363 -2.1190505,0 -3.8368805,-1.73554 -3.8368805,-3.8764363 0,-2.1408965 1.71783,-3.876436 3.8368805,-3.876436 2.119051,0 3.836881,1.7355395 3.836881,3.876436 z"
         sodipodi:ry="3.876436"
         sodipodi:rx="3.8368807"
         sodipodi:cy="8.1084957"
         sodipodi:cx="10.165756"
         id="path3157"
         style="fill:#fff5f4;fill-opacity:1;stroke:#003e08;stroke-width:1.13613594;stroke-linecap:round;stroke-linejoin:round;stroke-miterlimit:4;stroke-opacity:1;stroke-dasharray:none;stroke-dashoffset:0"
         sodipodi:type="arc" />
      <path
         transform="matrix(0.9711572,0,0,0.9711572,28.729381,-5.7724347)"
         d="m -18.90768,16.057133 c 0,0.154473 -0.125226,0.279699 -0.2797,0.279699 -0.154474,0 -0.279699,-0.125226 -0.279699,-0.279699 0,-0.154474 0.125225,-0.2797 0.279699,-0.2797 0.154474,0 0.2797,0.125226 0.2797,0.2797 z"
         sodipodi:ry="0.27969941"
         sodipodi:rx="0.27969941"
         sodipodi:cy="16.057133"
         sodipodi:cx="-19.18738"
         id="path3177"
         style="fill:#000000;fill-opacity:1;stroke:#000000;stroke-width:1.5;stroke-linecap:round;stroke-linejoin:round;stroke-miterlimit:4;stroke-opacity:1;stroke-dasharray:none;stroke-dashoffset:0"
         sodipodi:type="arc" />
    </g>
    <path
       style="fill:#ffe6a3;fill-rule:evenodd;stroke:#ffe6a3;stroke-width:1px;stroke-linecap:butt;stroke-linejoin:miter;stroke-opacity:1;fill-opacity:1"
       d="M 9.7500004,22.125 C 10.765127,23.078532 13.492019,23.237094 14.625001,22.375 C 15.757983,21.512906 16.25069,18.440319 15.562501,17.625 C 15.124312,18.559681 13.959576,19.025903 13.125001,18.5625 C 12.290426,18.099097 11.797557,16.337368 12.3125,15.125 C 11.764943,15.287632 11.007724,18.212294 10.5625,18.6875 C 10.117276,19.162706 9.5083333,18.266475 9.3125004,17.4375 C 8.8041675,18.171025 8.7348739,21.171468 9.7500004,22.125 z"
       id="path3163"
       transform="translate(4.125,3.862)"
       sodipodi:nodetypes="czcccccz" />
  </g>
</svg>
