<?xml version="1.0" encoding="UTF-8" standalone="no"?>
<!-- Created with Inkscape (http://www.inkscape.org/) -->

<svg
   xmlns:dc="http://purl.org/dc/elements/1.1/"
   xmlns:cc="http://creativecommons.org/ns#"
   xmlns:rdf="http://www.w3.org/1999/02/22-rdf-syntax-ns#"
   xmlns:svg="http://www.w3.org/2000/svg"
   xmlns="http://www.w3.org/2000/svg"
   xmlns:xlink="http://www.w3.org/1999/xlink"
   xmlns:sodipodi="http://sodipodi.sourceforge.net/DTD/sodipodi-0.dtd"
   xmlns:inkscape="http://www.inkscape.org/namespaces/inkscape"
   width="24"
   height="26"
   id="svg2"
   sodipodi:version="0.32"
   inkscape:version="0.48.2 r9819"
   version="1.0"
   sodipodi:docname="dissolve-05.svg"
   inkscape:output_extension="org.inkscape.output.svg.inkscape"
   inkscape:export-filename="/home/guillaume/Documents/gamers associate/labo break/base/slime/png120/dissolve-05.png"
   inkscape:export-xdpi="120"
   inkscape:export-ydpi="120">
  <defs
     id="defs4">
    <linearGradient
       id="linearGradient3169">
      <stop
         style="stop-color:#fce9ab;stop-opacity:1;"
         offset="0"
         id="stop3171" />
      <stop
         id="stop3785"
         offset="0.5"
         style="stop-color:#abae76;stop-opacity:1;" />
      <stop
         style="stop-color:#90831a;stop-opacity:1;"
         offset="1"
         id="stop3173" />
    </linearGradient>
    <inkscape:perspective
       sodipodi:type="inkscape:persp3d"
       inkscape:vp_x="0 : 526.18109 : 1"
       inkscape:vp_y="0 : 1000 : 0"
       inkscape:vp_z="744.09448 : 526.18109 : 1"
       inkscape:persp3d-origin="372.04724 : 350.78739 : 1"
       id="perspective10" />
    <radialGradient
       inkscape:collect="always"
       xlink:href="#linearGradient3169"
       id="radialGradient3840"
       gradientUnits="userSpaceOnUse"
       gradientTransform="matrix(0.70403456,0.01443881,-0.02026506,0.98812193,1.1239439,-5.6135134)"
       cx="17.373365"
       cy="14.079686"
       fx="17.373365"
       fy="14.079686"
       r="8.2885695" />
    <radialGradient
       inkscape:collect="always"
       xlink:href="#linearGradient3169"
       id="radialGradient3884"
       gradientUnits="userSpaceOnUse"
       gradientTransform="matrix(0.70403456,0.01443881,-0.02026506,0.98812193,1.1239439,-5.6135134)"
       cx="17.373365"
       cy="14.079686"
       fx="17.373365"
       fy="14.079686"
       r="8.2885695" />
    <radialGradient
       inkscape:collect="always"
       xlink:href="#linearGradient3169"
       id="radialGradient3891"
       gradientUnits="userSpaceOnUse"
       gradientTransform="matrix(0.70403456,0.01443881,-0.02026506,0.98812193,1.1239439,-5.6135134)"
       cx="17.373365"
       cy="14.079686"
       fx="17.373365"
       fy="14.079686"
       r="8.2885695" />
  </defs>
  <sodipodi:namedview
     id="base"
     pagecolor="#ffffff"
     bordercolor="#666666"
     borderopacity="1.0"
     inkscape:pageopacity="0.0"
     inkscape:pageshadow="2"
     inkscape:zoom="11.313708"
     inkscape:cx="-0.5896784"
     inkscape:cy="13.600874"
     inkscape:document-units="px"
     inkscape:current-layer="layer1"
     showgrid="false"
     inkscape:window-width="1280"
     inkscape:window-height="776"
     inkscape:window-x="0"
     inkscape:window-y="24"
     fit-margin-top="0"
     fit-margin-left="0"
     fit-margin-right="0"
     fit-margin-bottom="0"
     inkscape:window-maximized="1"
     showguides="true"
     inkscape:guide-bbox="true" />
  <metadata
     id="metadata7">
    <rdf:RDF>
      <cc:Work
         rdf:about="">
        <dc:format>image/svg+xml</dc:format>
        <dc:type
           rdf:resource="http://purl.org/dc/dcmitype/StillImage" />
        <dc:title></dc:title>
      </cc:Work>
    </rdf:RDF>
  </metadata>
  <g
     inkscape:label="Calque 1"
     inkscape:groupmode="layer"
     id="layer1"
     transform="translate(-4.125,-3.862)">
    <path
       style="fill:url(#radialGradient3891);fill-opacity:1;fill-rule:evenodd;stroke:#003e08;stroke-width:1.5;stroke-linecap:butt;stroke-linejoin:miter;stroke-miterlimit:4;stroke-opacity:1;stroke-dasharray:none"
       d="m 15.65625,18.25 c -1.196411,0.675816 -2.648459,1.0625 -4.21875,1.0625 -0.321671,0 -0.626686,-0.03024 -0.9375,-0.0625 0.0057,0.06152 0.03125,0.125178 0.03125,0.1875 0,0.631947 -0.327124,1.207406 -0.84375,1.71875 C 9.8964949,21.626505 10,22.15601 10,22.6875 c 0,1.431583 -0.8509486,-5.303205 -2.125,-4.46875 0.00758,0.09283 0,0.186581 0,0.28125 0,1.657141 -1.1946019,1.045115 -2.8125,1.5 -0.1219646,1.862557 -0.2346912,3.244612 -0.375,3.59375 0.7155319,0.510067 1.918605,0.05402 3,0.09375 1.081395,0.03973 2.609173,0.54015 3.625,0.5625 1.015827,0.02235 2.818314,-0.34165 3.6875,-0.34375 1.671688,0.190996 2.667562,0.444606 4.25,-0.1875 C 19.191543,23.382755 19.142085,22.758079 19.09375,22 18.929264,21.87398 18.771301,21.736801 18.625,21.59375 c -0.01055,4.7e-5 -0.02068,0 -0.03125,0 -3.148602,0 -1.533247,0.430054 -1.533247,-2.15717 0,-2.587224 -1.615355,2.78217 1.533247,2.78217 0.0317,0 0.06217,-4.24e-4 0.09375,0 -0.04306,-1.095259 -0.103631,-2.029208 -0.15625,-3 -1.048241,-0.177722 -2.01075,-0.521269 -2.875,-0.96875 z"
       transform="translate(4.125,3.862)"
       id="path3155"
       inkscape:connector-curvature="0"
       sodipodi:nodetypes="cscscscsccssccccsssccc" />
    <path
       sodipodi:type="arc"
       style="fill:#fff5f4;fill-opacity:1;stroke:#003e08;stroke-width:1.13613594;stroke-linecap:round;stroke-linejoin:round;stroke-miterlimit:4;stroke-opacity:1;stroke-dasharray:none;stroke-dashoffset:0"
       id="path3157"
       sodipodi:cx="10.165756"
       sodipodi:cy="8.1084957"
       sodipodi:rx="3.8368807"
       sodipodi:ry="3.876436"
       d="m 14.002637,8.1084957 a 3.8368807,3.876436 0 1 1 -7.6737615,0 3.8368807,3.876436 0 1 1 7.6737615,0 z"
       transform="matrix(1.3270525,0,0,1.3135112,-2.9010276,11.913658)" />
    <path
       sodipodi:type="arc"
       style="fill:#ffffff;fill-opacity:1;stroke:#003e08;stroke-width:1.06443644;stroke-linecap:round;stroke-linejoin:round;stroke-miterlimit:4;stroke-opacity:1;stroke-dasharray:none;stroke-dashoffset:0"
       id="path3159"
       sodipodi:cx="21.992842"
       sodipodi:cy="9.3347158"
       sodipodi:rx="1.5822188"
       sodipodi:ry="1.7008852"
       d="m 23.57506,9.3347158 a 1.5822188,1.7008852 0 1 1 -3.164437,0 1.5822188,1.7008852 0 1 1 3.164437,0 z"
       transform="matrix(1.4091964,0,0,1.4091964,-8.2357229,11.590392)" />
    <path
       sodipodi:type="arc"
       style="fill:#000000;fill-opacity:1;stroke:#000000;stroke-width:1.5;stroke-linecap:round;stroke-linejoin:round;stroke-miterlimit:4;stroke-opacity:1;stroke-dasharray:none;stroke-dashoffset:0"
       id="path3177"
       sodipodi:cx="-19.18738"
       sodipodi:cy="16.057133"
       sodipodi:rx="0.27969941"
       sodipodi:ry="0.27969941"
       d="m -18.90768,16.057133 a 0.27969941,0.27969941 0 1 1 -0.559399,0 0.27969941,0.27969941 0 1 1 0.559399,0 z"
       transform="matrix(0.9711572,0,0,0.9711572,28.729381,6.8467513)" />
    <path
       sodipodi:type="arc"
       style="fill:#000000;fill-opacity:1;stroke:#000000;stroke-width:1.5;stroke-linecap:round;stroke-linejoin:round;stroke-miterlimit:4;stroke-opacity:1;stroke-dasharray:none;stroke-dashoffset:0"
       id="path3179"
       sodipodi:cx="-19.18738"
       sodipodi:cy="16.057133"
       sodipodi:rx="0.27969941"
       sodipodi:ry="0.27969941"
       d="m -18.90768,16.057133 a 0.27969941,0.27969941 0 1 1 -0.559399,0 0.27969941,0.27969941 0 1 1 0.559399,0 z"
       transform="matrix(0.7283679,0,0,0.7283679,36.450572,13.009088)" />
  </g>
</svg>
