<?xml version="1.0" encoding="UTF-8" standalone="no"?>
<!-- Created with Inkscape (http://www.inkscape.org/) -->

<svg
   xmlns:dc="http://purl.org/dc/elements/1.1/"
   xmlns:cc="http://creativecommons.org/ns#"
   xmlns:rdf="http://www.w3.org/1999/02/22-rdf-syntax-ns#"
   xmlns:svg="http://www.w3.org/2000/svg"
   xmlns="http://www.w3.org/2000/svg"
   xmlns:xlink="http://www.w3.org/1999/xlink"
   xmlns:sodipodi="http://sodipodi.sourceforge.net/DTD/sodipodi-0.dtd"
   xmlns:inkscape="http://www.inkscape.org/namespaces/inkscape"
   width="24"
   height="26"
   id="svg2"
   sodipodi:version="0.32"
   inkscape:version="0.48.2 r9819"
   version="1.0"
   sodipodi:docname="electrified-03.svg"
   inkscape:output_extension="org.inkscape.output.svg.inkscape"
   inkscape:export-filename="/home/guillaume/Documents/gamers associate/labo break/base/slime/png120/electrified-03.png"
   inkscape:export-xdpi="120"
   inkscape:export-ydpi="120">
  <defs
     id="defs4">
    <linearGradient
       id="linearGradient4020">
      <stop
         style="stop-color:#ffffff;stop-opacity:1;"
         offset="0"
         id="stop4022" />
      <stop
         style="stop-color:#78d4db;stop-opacity:0.73049647;"
         offset="1"
         id="stop4024" />
    </linearGradient>
    <linearGradient
       id="linearGradient3169">
      <stop
         style="stop-color:#ffffff;stop-opacity:1;"
         offset="0"
         id="stop3171" />
      <stop
         style="stop-color:#00aa36;stop-opacity:1;"
         offset="1"
         id="stop3173" />
    </linearGradient>
    <inkscape:perspective
       sodipodi:type="inkscape:persp3d"
       inkscape:vp_x="0 : 526.18109 : 1"
       inkscape:vp_y="0 : 1000 : 0"
       inkscape:vp_z="744.09448 : 526.18109 : 1"
       inkscape:persp3d-origin="372.04724 : 350.78739 : 1"
       id="perspective10" />
    <radialGradient
       inkscape:collect="always"
       xlink:href="#linearGradient3169"
       id="radialGradient3175"
       cx="17.373365"
       cy="14.079686"
       fx="17.373365"
       fy="14.079686"
       r="8.2885695"
       gradientTransform="matrix(0.7038326,0.0221994,-0.04159285,1.3187024,5.5527411,-6.5408101)"
       gradientUnits="userSpaceOnUse" />
    <radialGradient
       inkscape:collect="always"
       xlink:href="#linearGradient3169-2"
       id="radialGradient3024"
       gradientUnits="userSpaceOnUse"
       gradientTransform="matrix(0.7038326,0.0221994,-0.04159285,1.3187024,5.5527411,-6.5408101)"
       cx="17.380934"
       cy="12.705102"
       fx="17.380934"
       fy="12.705102"
       r="8.2885695" />
    <linearGradient
       id="linearGradient3169-2">
      <stop
         style="stop-color:#ffffff;stop-opacity:1;"
         offset="0"
         id="stop3171-6" />
      <stop
         style="stop-color:#00aa36;stop-opacity:1;"
         offset="1"
         id="stop3173-1" />
    </linearGradient>
    <radialGradient
       r="8.2885695"
       fy="12.705102"
       fx="17.380934"
       cy="12.705102"
       cx="17.380934"
       gradientTransform="matrix(0.7038326,0.0221994,-0.04159285,1.3187024,5.552795,-6.5405778)"
       gradientUnits="userSpaceOnUse"
       id="radialGradient3070"
       xlink:href="#linearGradient3169-2-1"
       inkscape:collect="always" />
    <linearGradient
       id="linearGradient3169-2-1">
      <stop
         style="stop-color:#ffffff;stop-opacity:1;"
         offset="0"
         id="stop3171-6-7" />
      <stop
         style="stop-color:#00aa36;stop-opacity:1;"
         offset="1"
         id="stop3173-1-2" />
    </linearGradient>
    <radialGradient
       r="8.2885695"
       fy="12.705102"
       fx="17.380934"
       cy="12.705102"
       cx="17.380934"
       gradientTransform="matrix(0.7038326,0.0221994,-0.04159285,1.3187024,5.6110416,-6.4255074)"
       gradientUnits="userSpaceOnUse"
       id="radialGradient3088"
       xlink:href="#linearGradient3169-2-1"
       inkscape:collect="always" />
    <filter
       inkscape:collect="always"
       id="filter3818">
      <feGaussianBlur
         inkscape:collect="always"
         stdDeviation="0.24028149"
         id="feGaussianBlur3820" />
    </filter>
  </defs>
  <sodipodi:namedview
     id="base"
     pagecolor="#ffffff"
     bordercolor="#666666"
     borderopacity="1.0"
     inkscape:pageopacity="0.0"
     inkscape:pageshadow="2"
     inkscape:zoom="15.999999"
     inkscape:cx="26.90728"
     inkscape:cy="13.995232"
     inkscape:document-units="px"
     inkscape:current-layer="layer1"
     showgrid="false"
     inkscape:window-width="1280"
     inkscape:window-height="776"
     inkscape:window-x="0"
     inkscape:window-y="24"
     fit-margin-top="0"
     fit-margin-left="0"
     fit-margin-right="0"
     fit-margin-bottom="0"
     inkscape:window-maximized="1" />
  <metadata
     id="metadata7">
    <rdf:RDF>
      <cc:Work
         rdf:about="">
        <dc:format>image/svg+xml</dc:format>
        <dc:type
           rdf:resource="http://purl.org/dc/dcmitype/StillImage" />
        <dc:title />
      </cc:Work>
    </rdf:RDF>
  </metadata>
  <g
     inkscape:label="Calque 1"
     inkscape:groupmode="layer"
     id="layer1"
     transform="translate(-4.125,-3.862)">
    <path
       style="fill:#d7dcfa;fill-opacity:1;stroke:#718dff;stroke-width:1px;stroke-linecap:butt;stroke-linejoin:miter;stroke-opacity:1;filter:url(#filter3818);opacity:0.85"
       d="m 27.620217,16.161805 -3.535534,2.651651 0.605235,2.854316 2.959709,-1.08839 -2.239119,2.211549 0.265165,1.944544 1.585471,2.02665 -5.058505,2.537375 -3.774811,-3.503364 -1.724111,2.778332 -0.750762,-2.33639 c 0,0 -11.2315104,3.25503 -10.7833794,2.828427 0.78125,-0.743719 2.740039,-3.358758 2.740039,-3.358758 l -3.049399,-2.165514 c 1.815817,-2.313603 2.229805,-2.934168 3.579729,-4.993942 -0.176777,-0.353553 -3.902413,-3.489119 -3.902413,-3.489119 l 0.831187,-5.4819178 0.883884,2.0329318 1.21507,-2.9613905 c 0,0 -3.093592,-3.8006991 -2.563262,-3.8006991 0.53033,0 4.419417,1.5026019 4.861359,1.0606602 0.4419424,-0.4419418 3.2328384,-1.5534588 3.2328384,-1.5534588 1.724302,0.6565691 4.369169,1.5830469 6.871162,2.347272 l 6.865643,-1.142005 -3.534614,3.5301725 c 0,0 3.741563,0.2732864 4.183505,0.2732864 -1.492309,3.4323793 -1.024174,2.6414933 -1.620243,4.1461313 z"
       id="path4018"
       inkscape:connector-curvature="0"
       sodipodi:nodetypes="cccccccccccscccccccssccccccc" />
    <path
       inkscape:connector-curvature="0"
       style="fill:url(#radialGradient3088);fill-opacity:1;fill-rule:evenodd;stroke:#003e08;stroke-width:1.50000000000000000;stroke-linecap:butt;stroke-linejoin:miter;stroke-miterlimit:4;stroke-opacity:1;stroke-dasharray:none;opacity:0.6"
       d="m 8.8572466,27.567788 c 0.555907,-1.383297 0.767709,-18.6044725 2.2212114,-20.2897935 1.477621,-1.713287 4.052216,-1.598758 5.125827,-1.592922 2.736225,0.01385 4.751631,1.52051 6.11809,3.159239 0.611532,1.9411415 0.701301,16.4871075 1.11201,18.8477655 -1.582438,0.632106 -2.588176,0.395339 -4.259864,0.204343 -0.869186,0.0021 -2.654199,0.357987 -3.670026,0.335641 -1.015827,-0.02235 -2.554698,-0.519667 -3.636093,-0.559399 -1.081395,-0.03973 -2.2956234,0.405193 -3.0111554,-0.104874 z"
       id="path3155-7"
       sodipodi:nodetypes="czsccczzc" />
    <path
       style="fill:#ffffff;stroke:#ffffff;stroke-width:1px;stroke-linecap:butt;stroke-linejoin:miter;stroke-opacity:1;fill-opacity:1"
       d="M 18.075418,5.5380965 C 14.527588,3.8008611 10.670003,2.5574443 6.2313788,5.3171256 5.9086593,7.500455 5.2663469,9.6518251 6.0546021,11.946252 l 3.4029516,1.59099 0.1325825,3.977476 4.7287768,0.220971 0.220971,-3.977476 3.402951,-1.635184 c 0.428426,-2.1949775 0.748844,-4.389955 0.132583,-6.5849325 z"
       id="path3128"
       inkscape:connector-curvature="0"
       transform="translate(4.125,3.862)"
       sodipodi:nodetypes="ccccccccc" />
    <g
       id="g3165">
      <path
         transform="matrix(1.3270525,0,0,1.3135112,-2.9010276,-0.705528)"
         d="m 14.002637,8.1084957 c 0,2.1408963 -1.71783,3.8764363 -3.836881,3.8764363 -2.1190505,0 -3.8368805,-1.73554 -3.8368805,-3.8764363 0,-2.1408965 1.71783,-3.876436 3.8368805,-3.876436 2.119051,0 3.836881,1.7355395 3.836881,3.876436 z"
         sodipodi:ry="3.876436"
         sodipodi:rx="3.8368807"
         sodipodi:cy="8.1084957"
         sodipodi:cx="10.165756"
         id="path3157"
         style="fill:#fff5f4;fill-opacity:1;stroke:#003e08;stroke-width:1.13613594;stroke-linecap:round;stroke-linejoin:round;stroke-miterlimit:4;stroke-opacity:1;stroke-dasharray:none;stroke-dashoffset:0"
         sodipodi:type="arc" />
      <path
         transform="matrix(0.9711572,0,0,0.9711572,28.729381,-5.7724347)"
         d="m -18.90768,16.057133 c 0,0.154473 -0.125226,0.279699 -0.2797,0.279699 -0.154474,0 -0.279699,-0.125226 -0.279699,-0.279699 0,-0.154474 0.125225,-0.2797 0.279699,-0.2797 0.154474,0 0.2797,0.125226 0.2797,0.2797 z"
         sodipodi:ry="0.27969941"
         sodipodi:rx="0.27969941"
         sodipodi:cy="16.057133"
         sodipodi:cx="-19.18738"
         id="path3177"
         style="fill:#000000;fill-opacity:1;stroke:#000000;stroke-width:1.5;stroke-linecap:round;stroke-linejoin:round;stroke-miterlimit:4;stroke-opacity:1;stroke-dasharray:none;stroke-dashoffset:0"
         sodipodi:type="arc" />
    </g>
    <path
       sodipodi:type="arc"
       style="fill:#ffffff;fill-opacity:1;stroke:#003e08;stroke-width:1.06443644;stroke-linecap:round;stroke-linejoin:round;stroke-miterlimit:4;stroke-opacity:1;stroke-dasharray:none;stroke-dashoffset:0"
       id="path3159"
       sodipodi:cx="21.992842"
       sodipodi:cy="9.3347158"
       sodipodi:rx="1.5822188"
       sodipodi:ry="1.7008852"
       d="m 23.57506,9.3347158 c 0,0.9393732 -0.708383,1.7008852 -1.582218,1.7008852 -0.873836,0 -1.582219,-0.761512 -1.582219,-1.7008852 0,-0.9393729 0.708383,-1.7008851 1.582219,-1.7008851 0.873835,0 1.582218,0.7615122 1.582218,1.7008851 z"
       transform="matrix(1.4091964,0,0,1.4091964,-8.2357229,-1.0287937)" />
    <path
       sodipodi:type="arc"
       style="fill:#000000;fill-opacity:1;stroke:#000000;stroke-width:1.5;stroke-linecap:round;stroke-linejoin:round;stroke-miterlimit:4;stroke-opacity:1;stroke-dasharray:none;stroke-dashoffset:0"
       id="path3179"
       sodipodi:cx="-19.18738"
       sodipodi:cy="16.057133"
       sodipodi:rx="0.27969941"
       sodipodi:ry="0.27969941"
       d="m -18.90768,16.057133 c 0,0.154473 -0.125226,0.279699 -0.2797,0.279699 -0.154474,0 -0.279699,-0.125226 -0.279699,-0.279699 0,-0.154474 0.125225,-0.2797 0.279699,-0.2797 0.154474,0 0.2797,0.125226 0.2797,0.2797 z"
       transform="matrix(0.7283679,0,0,0.7283679,36.450572,0.389902)" />
    <path
       style="fill:none;stroke:#003e08;stroke-width:1px;stroke-linecap:butt;stroke-linejoin:miter;stroke-opacity:1"
       d="m 14.775797,19.476369 -0.0442,2.496971"
       id="path3898"
       inkscape:connector-curvature="0"
       sodipodi:nodetypes="cc" />
    <path
       style="fill:none;stroke:#003e08;stroke-width:1px;stroke-linecap:butt;stroke-linejoin:miter;stroke-opacity:1"
       d="m 17.073894,19.122816 -0.06629,2.983106"
       id="path3898-6"
       inkscape:connector-curvature="0"
       sodipodi:nodetypes="cc" />
    <path
       style="fill:none;stroke:#003e08;stroke-width:0.77549124px;stroke-linecap:round;stroke-linejoin:miter;stroke-opacity:1"
       d="m 16.504632,15.494794 0.217377,1.465303"
       id="path3898-7"
       inkscape:connector-curvature="0"
       sodipodi:nodetypes="cc" />
    <path
       style="fill:none;stroke:#003e08;stroke-width:0.81;stroke-linecap:round;stroke-linejoin:miter;stroke-miterlimit:4;stroke-opacity:1;stroke-dasharray:none"
       d="m 15.962986,15.568662 -0.38564,1.450378"
       id="path3898-7-7"
       inkscape:connector-curvature="0"
       sodipodi:nodetypes="cc" />
    <path
       style="fill:none;stroke:#ffffff;stroke-width:1px;stroke-linecap:round;stroke-linejoin:miter;stroke-opacity:1"
       d="m 10.770908,22.254117 c 0.875,1.453055 1.52903,1.182301 2.40403,1.403379"
       id="path3956"
       inkscape:connector-curvature="0"
       sodipodi:nodetypes="cc" />
    <path
       style="fill:none;stroke:#ffffff;stroke-width:1px;stroke-linecap:round;stroke-linejoin:miter;stroke-opacity:1"
       d="m 10.845116,24.10517 c 0.875001,1.453055 1.12278,1.104176 1.99778,1.325254"
       id="path3956-9"
       inkscape:connector-curvature="0"
       sodipodi:nodetypes="cc" />
    <path
       style="fill:none;stroke:#ffffff;stroke-width:1px;stroke-linecap:round;stroke-linejoin:miter;stroke-opacity:1"
       d="m 21.104335,22.641198 c -0.874999,1.453055 -1.529029,1.182301 -2.404029,1.403379"
       id="path3956-3"
       inkscape:connector-curvature="0"
       sodipodi:nodetypes="cc" />
    <path
       style="fill:none;stroke:#ffffff;stroke-width:1px;stroke-linecap:round;stroke-linejoin:miter;stroke-opacity:1"
       d="m 21.16271,24.27128 c -0.875,1.453055 -1.122779,1.104176 -1.997779,1.325254"
       id="path3956-9-2"
       inkscape:connector-curvature="0"
       sodipodi:nodetypes="cc" />
  </g>
</svg>
