<?xml version="1.0" encoding="UTF-8" standalone="no"?>
<!-- Created with Inkscape (http://www.inkscape.org/) -->

<svg
   xmlns:dc="http://purl.org/dc/elements/1.1/"
   xmlns:cc="http://creativecommons.org/ns#"
   xmlns:rdf="http://www.w3.org/1999/02/22-rdf-syntax-ns#"
   xmlns:svg="http://www.w3.org/2000/svg"
   xmlns="http://www.w3.org/2000/svg"
   xmlns:xlink="http://www.w3.org/1999/xlink"
   xmlns:sodipodi="http://sodipodi.sourceforge.net/DTD/sodipodi-0.dtd"
   xmlns:inkscape="http://www.inkscape.org/namespaces/inkscape"
   width="24"
   height="26"
   id="svg2"
   sodipodi:version="0.32"
   inkscape:version="0.48.2 r9819"
   version="1.0"
   sodipodi:docname="electrified-01.svg"
   inkscape:output_extension="org.inkscape.output.svg.inkscape"
   inkscape:export-filename="/home/guillaume/Documents/gamers associate/labo break/base/slime/png120/electrified-01.png"
   inkscape:export-xdpi="120"
   inkscape:export-ydpi="120">
  <defs
     id="defs4">
    <linearGradient
       id="linearGradient3785">
      <stop
         style="stop-color:#ffffff;stop-opacity:1;"
         offset="0"
         id="stop3787" />
      <stop
         style="stop-color:#ffffff;stop-opacity:0;"
         offset="1"
         id="stop3789" />
    </linearGradient>
    <linearGradient
       id="linearGradient3169">
      <stop
         style="stop-color:#ffffff;stop-opacity:1;"
         offset="0"
         id="stop3171" />
      <stop
         style="stop-color:#00aa36;stop-opacity:1;"
         offset="1"
         id="stop3173" />
    </linearGradient>
    <inkscape:perspective
       sodipodi:type="inkscape:persp3d"
       inkscape:vp_x="0 : 526.18109 : 1"
       inkscape:vp_y="0 : 1000 : 0"
       inkscape:vp_z="744.09448 : 526.18109 : 1"
       inkscape:persp3d-origin="372.04724 : 350.78739 : 1"
       id="perspective10" />
    <radialGradient
       r="8.2885695"
       fy="12.705102"
       fx="17.380934"
       cy="12.705102"
       cx="17.380934"
       gradientTransform="matrix(0.7038326,0.0221994,-0.04159285,1.3187024,5.552795,-6.5405782)"
       gradientUnits="userSpaceOnUse"
       id="radialGradient3013"
       xlink:href="#linearGradient3169-2"
       inkscape:collect="always" />
    <linearGradient
       id="linearGradient3169-2">
      <stop
         style="stop-color:#ffffff;stop-opacity:1;"
         offset="0"
         id="stop3171-6" />
      <stop
         style="stop-color:#00aa36;stop-opacity:1;"
         offset="1"
         id="stop3173-1" />
    </linearGradient>
    <radialGradient
       r="8.2885695"
       fy="12.705102"
       fx="17.380934"
       cy="12.705102"
       cx="17.380934"
       gradientTransform="matrix(0.7038326,0.0221994,-0.04159285,1.3187024,5.552795,-6.5405778)"
       gradientUnits="userSpaceOnUse"
       id="radialGradient3070"
       xlink:href="#linearGradient3169-2"
       inkscape:collect="always" />
    <radialGradient
       inkscape:collect="always"
       xlink:href="#linearGradient4020"
       id="radialGradient4026"
       cx="10.768673"
       cy="11.79383"
       fx="10.768673"
       fy="11.79383"
       r="14.745231"
       gradientTransform="matrix(-1.2755128,0.03814793,0.03242289,1.0840908,30.646676,2.4594458)"
       gradientUnits="userSpaceOnUse" />
    <linearGradient
       id="linearGradient4020">
      <stop
         style="stop-color:#ffffff;stop-opacity:1;"
         offset="0"
         id="stop4022" />
      <stop
         style="stop-color:#78d4db;stop-opacity:0.73049647;"
         offset="1"
         id="stop4024" />
    </linearGradient>
    <filter
       inkscape:collect="always"
       id="filter3781">
      <feGaussianBlur
         inkscape:collect="always"
         stdDeviation="0.23985262"
         id="feGaussianBlur3783" />
    </filter>
  </defs>
  <sodipodi:namedview
     id="base"
     pagecolor="#ffffff"
     bordercolor="#666666"
     borderopacity="1.0"
     inkscape:pageopacity="0.0"
     inkscape:pageshadow="2"
     inkscape:zoom="15.999999"
     inkscape:cx="8.9498411"
     inkscape:cy="15.754669"
     inkscape:document-units="px"
     inkscape:current-layer="layer1"
     showgrid="false"
     inkscape:window-width="1280"
     inkscape:window-height="776"
     inkscape:window-x="0"
     inkscape:window-y="24"
     fit-margin-top="0"
     fit-margin-left="0"
     fit-margin-right="0"
     fit-margin-bottom="0"
     inkscape:window-maximized="1"
     showguides="true"
     inkscape:guide-bbox="true" />
  <metadata
     id="metadata7">
    <rdf:RDF>
      <cc:Work
         rdf:about="">
        <dc:format>image/svg+xml</dc:format>
        <dc:type
           rdf:resource="http://purl.org/dc/dcmitype/StillImage" />
        <dc:title></dc:title>
      </cc:Work>
    </rdf:RDF>
  </metadata>
  <g
     inkscape:label="Calque 1"
     inkscape:groupmode="layer"
     id="layer1"
     transform="translate(-4.125,-3.862)">
    <path
       style="fill:#d7dcfa;fill-opacity:1;stroke:#718dff;stroke-width:1px;stroke-linecap:butt;stroke-linejoin:miter;stroke-opacity:1;filter:url(#filter3781);opacity:0.88"
       d="m 27.651639,15.821406 -3.535534,2.651651 0.605235,2.854316 2.959709,-1.08839 -2.239119,2.211549 0.265165,1.944544 1.585471,2.02665 -5.058505,2.537375 -3.774812,-3.503364 -1.724111,2.778332 -5.188262,0.66361 c 0,0 2.087586,-5.013827 -0.165889,-3.764195 -2.1801336,1.208961 -6.424946,3.825811 -6.1799897,3.592622 0.7812499,-0.743719 2.7400391,-3.358758 2.7400391,-3.358758 L 9.5166376,23.514334 C 10.181491,22.667219 7.492458,21.093418 6.9996515,20.625156 3.3074797,17.116873 3.5532108,19.638489 8.4713664,18.207892 8.2945894,17.854339 4.5689533,14.718773 4.5689533,14.718773 L 7.5251404,11.049355 5.0340242,7.0197867 7.4990943,8.3083958 c 0,0 -1.6560919,-4.1131993 -1.1257619,-4.1131993 0.53033,0 2.981917,1.8151023 3.423859,1.37316 0.4419416,-0.441941 2.6078376,2.3215422 2.6078376,2.3215422 5.435307,-4.9592452 0.744169,-3.7294533 7.496163,-1.5277279 l 2.178143,1.6704949 1.715386,-3.2198281 c 0,0 3.179063,4.2107872 3.621005,4.2107872 -1.492309,3.4323792 -1.024174,2.6414932 -1.620243,4.1461312 z"
       id="path4018"
       inkscape:connector-curvature="0"
       sodipodi:nodetypes="cccccccccccssccscccccssccccccc" />
    <path
       inkscape:connector-curvature="0"
       style="fill:url(#radialGradient3070);fill-opacity:1;fill-rule:evenodd;stroke:#003e08;stroke-width:1.5;stroke-linecap:butt;stroke-linejoin:miter;stroke-miterlimit:4;stroke-opacity:1;stroke-dasharray:none"
       d="M 8.799,27.452717 C 9.354907,26.06942 9.566709,8.8482451 11.020211,7.1629241 c 1.477621,-1.713287 4.052216,-1.598758 5.125827,-1.592922 2.736225,0.01385 4.751631,1.52051 6.11809,3.159239 0.611532,1.9411409 0.701301,16.4871069 1.11201,18.8477649 -1.582438,0.632106 -2.588176,0.395339 -4.259864,0.204343 -0.869186,0.0021 -2.654199,0.357987 -3.670026,0.335641 C 14.430421,28.09464 12.89155,27.597323 11.810155,27.557591 10.72876,27.517861 9.514532,27.962784 8.799,27.452717 z"
       id="path3155"
       sodipodi:nodetypes="czsccczzc" />
    <g
       id="g3169">
      <path
         transform="matrix(1.4091964,0,0,1.4091964,-8.2357229,-1.0287937)"
         d="m 23.57506,9.3347158 c 0,0.9393732 -0.708383,1.7008852 -1.582218,1.7008852 -0.873836,0 -1.582219,-0.761512 -1.582219,-1.7008852 0,-0.9393729 0.708383,-1.7008851 1.582219,-1.7008851 0.873835,0 1.582218,0.7615122 1.582218,1.7008851 z"
         sodipodi:ry="1.7008852"
         sodipodi:rx="1.5822188"
         sodipodi:cy="9.3347158"
         sodipodi:cx="21.992842"
         id="path3159"
         style="fill:#ffffff;fill-opacity:1;stroke:#003e08;stroke-width:1.06443644;stroke-linecap:round;stroke-linejoin:round;stroke-miterlimit:4;stroke-opacity:1;stroke-dasharray:none;stroke-dashoffset:0"
         sodipodi:type="arc" />
      <path
         transform="matrix(0.7283679,0,0,0.7283679,36.450572,0.389902)"
         d="m -18.90768,16.057133 c 0,0.154473 -0.125226,0.279699 -0.2797,0.279699 -0.154474,0 -0.279699,-0.125226 -0.279699,-0.279699 0,-0.154474 0.125225,-0.2797 0.279699,-0.2797 0.154474,0 0.2797,0.125226 0.2797,0.2797 z"
         sodipodi:ry="0.27969941"
         sodipodi:rx="0.27969941"
         sodipodi:cy="16.057133"
         sodipodi:cx="-19.18738"
         id="path3179"
         style="fill:#000000;fill-opacity:1;stroke:#000000;stroke-width:1.5;stroke-linecap:round;stroke-linejoin:round;stroke-miterlimit:4;stroke-opacity:1;stroke-dasharray:none;stroke-dashoffset:0"
         sodipodi:type="arc" />
    </g>
    <path
       inkscape:connector-curvature="0"
       style="fill:#003e08;fill-opacity:1;fill-rule:evenodd;stroke:#000000;stroke-width:1px;stroke-linecap:butt;stroke-linejoin:miter;stroke-opacity:1"
       d="m 13.750054,21.500232 c -0.424814,-1.198524 0.966641,-5.334001 2.3125,-5.25 1.345859,0.084 2.51081,4.575317 1.75,5.625 -1.01081,-0.575317 -2.793936,-0.801476 -4.0625,-0.375 z"
       id="path3223"
       sodipodi:nodetypes="cccc" />
    <g
       id="g3165">
      <path
         transform="matrix(1.3270525,0,0,1.3135112,-2.9010276,-0.705528)"
         d="m 14.002637,8.1084957 c 0,2.1408963 -1.71783,3.8764363 -3.836881,3.8764363 -2.1190505,0 -3.8368805,-1.73554 -3.8368805,-3.8764363 0,-2.1408965 1.71783,-3.876436 3.8368805,-3.876436 2.119051,0 3.836881,1.7355395 3.836881,3.876436 z"
         sodipodi:ry="3.876436"
         sodipodi:rx="3.8368807"
         sodipodi:cy="8.1084957"
         sodipodi:cx="10.165756"
         id="path3157"
         style="fill:#fff5f4;fill-opacity:1;stroke:#003e08;stroke-width:1.13613594;stroke-linecap:round;stroke-linejoin:round;stroke-miterlimit:4;stroke-opacity:1;stroke-dasharray:none;stroke-dashoffset:0"
         sodipodi:type="arc" />
      <path
         transform="matrix(0.9711572,0,0,0.9711572,28.729381,-5.7724347)"
         d="m -18.90768,16.057133 c 0,0.154473 -0.125226,0.279699 -0.2797,0.279699 -0.154474,0 -0.279699,-0.125226 -0.279699,-0.279699 0,-0.154474 0.125225,-0.2797 0.279699,-0.2797 0.154474,0 0.2797,0.125226 0.2797,0.2797 z"
         sodipodi:ry="0.27969941"
         sodipodi:rx="0.27969941"
         sodipodi:cy="16.057133"
         sodipodi:cx="-19.18738"
         id="path3177"
         style="fill:#000000;fill-opacity:1;stroke:#000000;stroke-width:1.5;stroke-linecap:round;stroke-linejoin:round;stroke-miterlimit:4;stroke-opacity:1;stroke-dasharray:none;stroke-dashoffset:0"
         sodipodi:type="arc" />
    </g>
  </g>
</svg>
