<?xml version="1.0" encoding="UTF-8" standalone="no"?>
<!-- Created with Inkscape (http://www.inkscape.org/) -->

<svg
   xmlns:dc="http://purl.org/dc/elements/1.1/"
   xmlns:cc="http://creativecommons.org/ns#"
   xmlns:rdf="http://www.w3.org/1999/02/22-rdf-syntax-ns#"
   xmlns:svg="http://www.w3.org/2000/svg"
   xmlns="http://www.w3.org/2000/svg"
   xmlns:xlink="http://www.w3.org/1999/xlink"
   xmlns:sodipodi="http://sodipodi.sourceforge.net/DTD/sodipodi-0.dtd"
   xmlns:inkscape="http://www.inkscape.org/namespaces/inkscape"
   width="24"
   height="26"
   id="svg2"
   sodipodi:version="0.32"
   inkscape:version="0.48.0 r9654"
   version="1.0"
   sodipodi:docname="draft-falling.svg"
   inkscape:output_extension="org.inkscape.output.svg.inkscape"
   inkscape:export-filename="/home/guillaume/Documents/gamers associate/labo break/png/falling-1.png"
   inkscape:export-xdpi="90"
   inkscape:export-ydpi="90">
  <defs
     id="defs4">
    <linearGradient
       id="linearGradient3169">
      <stop
         style="stop-color:#ffffff;stop-opacity:1;"
         offset="0"
         id="stop3171" />
      <stop
         style="stop-color:#00aa36;stop-opacity:1;"
         offset="1"
         id="stop3173" />
    </linearGradient>
    <inkscape:perspective
       sodipodi:type="inkscape:persp3d"
       inkscape:vp_x="0 : 526.18109 : 1"
       inkscape:vp_y="0 : 1000 : 0"
       inkscape:vp_z="744.09448 : 526.18109 : 1"
       inkscape:persp3d-origin="372.04724 : 350.78739 : 1"
       id="perspective10" />
    <radialGradient
       inkscape:collect="always"
       xlink:href="#linearGradient3169"
       id="radialGradient3175"
       cx="17.380934"
       cy="12.705102"
       fx="17.380934"
       fy="12.705102"
       r="8.2885695"
       gradientTransform="matrix(0.7038326,0.0221994,-0.04159285,1.3187024,5.5527411,-6.5408101)"
       gradientUnits="userSpaceOnUse" />
    <radialGradient
       inkscape:collect="always"
       xlink:href="#linearGradient3169"
       id="radialGradient3013"
       gradientUnits="userSpaceOnUse"
       gradientTransform="matrix(0.7038326,0.0221994,-0.04159285,1.3187024,5.5527411,-6.5408101)"
       cx="17.380934"
       cy="12.705102"
       fx="17.380934"
       fy="12.705102"
       r="8.2885695" />
    <radialGradient
       inkscape:collect="always"
       xlink:href="#linearGradient3169"
       id="radialGradient3024"
       gradientUnits="userSpaceOnUse"
       gradientTransform="matrix(0.7038326,0.0221994,-0.04159285,1.3187024,5.5527411,-6.5408101)"
       cx="17.380934"
       cy="12.705102"
       fx="17.380934"
       fy="12.705102"
       r="8.2885695" />
  </defs>
  <sodipodi:namedview
     id="base"
     pagecolor="#ffffff"
     bordercolor="#666666"
     borderopacity="1.0"
     inkscape:pageopacity="0.0"
     inkscape:pageshadow="2"
     inkscape:zoom="8"
     inkscape:cx="-18.174096"
     inkscape:cy="-0.87334751"
     inkscape:document-units="px"
     inkscape:current-layer="layer1"
     showgrid="false"
     inkscape:window-width="1280"
     inkscape:window-height="727"
     inkscape:window-x="0"
     inkscape:window-y="25"
     fit-margin-top="0"
     fit-margin-left="0"
     fit-margin-right="0"
     fit-margin-bottom="0"
     inkscape:window-maximized="1" />
  <metadata
     id="metadata7">
    <rdf:RDF>
      <cc:Work
         rdf:about="">
        <dc:format>image/svg+xml</dc:format>
        <dc:type
           rdf:resource="http://purl.org/dc/dcmitype/StillImage" />
        <dc:title></dc:title>
      </cc:Work>
    </rdf:RDF>
  </metadata>
  <g
     inkscape:label="Calque 1"
     inkscape:groupmode="layer"
     id="layer1"
     transform="translate(-4.125,-3.862)">
    <path
       inkscape:connector-curvature="0"
       style="fill:url(#radialGradient3024);fill-opacity:1;fill-rule:evenodd;stroke:#003e08;stroke-width:1.5;stroke-linecap:butt;stroke-linejoin:miter;stroke-miterlimit:4;stroke-opacity:1;stroke-dasharray:none"
       d="M 8.7989459,27.452485 C 9.3548536,26.069188 9.5666551,8.8480125 11.020157,7.1626923 c 1.477621,-1.713287 4.052216,-1.5987586 5.125827,-1.5929219 2.736225,0.013854 4.751631,1.5205098 6.11809,3.1592386 0.611532,1.941141 0.701301,16.487107 1.11201,18.847765 -1.582438,0.632106 -2.588176,0.395339 -4.259864,0.204343 -0.869186,0.0021 -2.654199,0.357987 -3.670026,0.335641 -1.015827,-0.02235 -2.554698,-0.519667 -3.636093,-0.559399 -1.081395,-0.03973 -2.2956232,0.405193 -3.0111551,-0.104874 z"
       id="path3155"
       sodipodi:nodetypes="czsccczzc" />
    <path
       sodipodi:type="arc"
       style="fill:#ffffff;fill-opacity:1;stroke:#003e08;stroke-width:1.13613594;stroke-linecap:round;stroke-linejoin:round;stroke-miterlimit:4;stroke-opacity:1;stroke-dasharray:none;stroke-dashoffset:0"
       id="path3157"
       sodipodi:cx="10.165756"
       sodipodi:cy="8.1084957"
       sodipodi:rx="3.8368807"
       sodipodi:ry="3.876436"
       d="m 14.002637,8.1084957 a 3.8368807,3.876436 0 1 1 -7.6737615,0 3.8368807,3.876436 0 1 1 7.6737615,0 z"
       transform="matrix(1.3270525,0,0,1.3135112,-2.9010276,-0.705528)" />
    <path
       sodipodi:type="arc"
       style="fill:#ffffff;fill-opacity:1;stroke:#003e08;stroke-width:1.06443644;stroke-linecap:round;stroke-linejoin:round;stroke-miterlimit:4;stroke-opacity:1;stroke-dasharray:none;stroke-dashoffset:0"
       id="path3159"
       sodipodi:cx="21.992842"
       sodipodi:cy="9.3347158"
       sodipodi:rx="1.5822188"
       sodipodi:ry="1.7008852"
       d="m 23.57506,9.3347158 a 1.5822188,1.7008852 0 1 1 -3.164437,0 1.5822188,1.7008852 0 1 1 3.164437,0 z"
       transform="matrix(1.4091964,0,0,1.4091964,-8.2357229,-1.0287937)" />
    <path
       sodipodi:type="arc"
       style="fill:#000000;fill-opacity:1;stroke:#000000;stroke-width:1.5;stroke-linecap:round;stroke-linejoin:round;stroke-miterlimit:4;stroke-opacity:1;stroke-dasharray:none;stroke-dashoffset:0"
       id="path3177"
       sodipodi:cx="-19.18738"
       sodipodi:cy="16.057133"
       sodipodi:rx="0.27969941"
       sodipodi:ry="0.27969941"
       d="m -18.90768,16.057133 a 0.27969941,0.27969941 0 1 1 -0.559399,0 0.27969941,0.27969941 0 1 1 0.559399,0 z"
       transform="matrix(0.9711572,0,0,0.9711572,28.666881,-7.3349347)" />
    <path
       sodipodi:type="arc"
       style="fill:#000000;fill-opacity:1;stroke:#000000;stroke-width:1.5;stroke-linecap:round;stroke-linejoin:round;stroke-miterlimit:4;stroke-opacity:1;stroke-dasharray:none;stroke-dashoffset:0"
       id="path3179"
       sodipodi:cx="-19.18738"
       sodipodi:cy="16.057133"
       sodipodi:rx="0.27969941"
       sodipodi:ry="0.27969941"
       d="m -18.90768,16.057133 a 0.27969941,0.27969941 0 1 1 -0.559399,0 0.27969941,0.27969941 0 1 1 0.559399,0 z"
       transform="matrix(0.7283679,0,0,0.7283679,36.888072,-0.422598)" />
    <path
       inkscape:connector-curvature="0"
       style="fill:#003e08;fill-opacity:1;fill-rule:evenodd;stroke:#000000;stroke-width:1px;stroke-linecap:butt;stroke-linejoin:miter;stroke-opacity:1"
       d="m 13.75,21.5 c -0.424814,-1.198524 0.966641,-5.334001 2.3125,-5.25 1.345859,0.084 2.51081,4.575317 1.75,5.625 C 16.80169,21.299683 15.018564,21.073524 13.75,21.5 z"
       id="path3223"
       sodipodi:nodetypes="cccc" />
    <path
       inkscape:connector-curvature="0"
       style="fill:#00aa36;fill-opacity:1;fill-rule:evenodd;stroke:none"
       d="m 6.90625,12.25 c 2.1031502,-2.5822971 5.012376,-3.6614177 7.78125,-3.78125 0.768874,2.286418 -0.379484,4.551624 -2.15625,5.375 -1.495516,0.854626 -4.3111768,0.786802 -5.625,-1.59375 z"
       id="path3225"
       sodipodi:nodetypes="cccc" />
    <path
       inkscape:connector-curvature="0"
       style="fill:#00aa36;fill-opacity:1;fill-rule:evenodd;stroke:none"
       d="m 21.332031,11.691406 c 0.711972,-0.271902 2.293343,0.33392 2.742188,1.191406 -0.407191,0.788521 -1.091485,1.10486 -1.851563,0.777344 -0.754514,-0.325119 -1.094784,-1.153879 -0.890625,-1.96875 z"
       id="path3227"
       sodipodi:nodetypes="cczc" />
  </g>
</svg>
