<?xml version="1.0" encoding="UTF-8" standalone="no"?>
<!-- Created with Inkscape (http://www.inkscape.org/) -->

<svg
   xmlns:dc="http://purl.org/dc/elements/1.1/"
   xmlns:cc="http://creativecommons.org/ns#"
   xmlns:rdf="http://www.w3.org/1999/02/22-rdf-syntax-ns#"
   xmlns:svg="http://www.w3.org/2000/svg"
   xmlns="http://www.w3.org/2000/svg"
   xmlns:xlink="http://www.w3.org/1999/xlink"
   xmlns:sodipodi="http://sodipodi.sourceforge.net/DTD/sodipodi-0.dtd"
   xmlns:inkscape="http://www.inkscape.org/namespaces/inkscape"
   width="24"
   height="26"
   id="svg2"
   sodipodi:version="0.32"
   inkscape:version="0.48.2 r9819"
   version="1.0"
   sodipodi:docname="sliced-02.svg"
   inkscape:output_extension="org.inkscape.output.svg.inkscape"
   inkscape:export-filename="/home/guillaume/Documents/gamers associate/labo break/base/slime/png120/sliced-02.png"
   inkscape:export-xdpi="120"
   inkscape:export-ydpi="120">
  <defs
     id="defs4">
    <linearGradient
       id="linearGradient3169">
      <stop
         style="stop-color:#ffffff;stop-opacity:1;"
         offset="0"
         id="stop3171" />
      <stop
         style="stop-color:#00aa36;stop-opacity:1;"
         offset="1"
         id="stop3173" />
    </linearGradient>
    <inkscape:perspective
       sodipodi:type="inkscape:persp3d"
       inkscape:vp_x="0 : 526.18109 : 1"
       inkscape:vp_y="0 : 1000 : 0"
       inkscape:vp_z="744.09448 : 526.18109 : 1"
       inkscape:persp3d-origin="372.04724 : 350.78739 : 1"
       id="perspective10" />
    <radialGradient
       inkscape:collect="always"
       xlink:href="#linearGradient3169"
       id="radialGradient3175"
       cx="17.373365"
       cy="14.079686"
       fx="17.373365"
       fy="14.079686"
       r="8.2885695"
       gradientTransform="matrix(0.7038326,0.0221994,-0.04159285,1.3187024,1.4277411,-10.40281)"
       gradientUnits="userSpaceOnUse" />
    <radialGradient
       inkscape:collect="always"
       xlink:href="#linearGradient3169-7"
       id="radialGradient3175-2"
       cx="17.373365"
       cy="14.079686"
       fx="17.373365"
       fy="14.079686"
       r="8.2885695"
       gradientTransform="matrix(0.7038326,0.0221994,-0.04159285,1.3187024,5.5527411,-6.5408101)"
       gradientUnits="userSpaceOnUse" />
    <linearGradient
       id="linearGradient3169-7">
      <stop
         style="stop-color:#ffffff;stop-opacity:1;"
         offset="0"
         id="stop3171-2" />
      <stop
         style="stop-color:#00aa36;stop-opacity:1;"
         offset="1"
         id="stop3173-2" />
    </linearGradient>
    <radialGradient
       inkscape:collect="always"
       xlink:href="#linearGradient3169-0"
       id="radialGradient3175-1"
       cx="17.373365"
       cy="14.079686"
       fx="17.373365"
       fy="14.079686"
       r="8.2885695"
       gradientTransform="matrix(0.7038326,0.0221994,-0.04159285,1.3187024,5.5527411,-6.5408101)"
       gradientUnits="userSpaceOnUse" />
    <linearGradient
       id="linearGradient3169-0">
      <stop
         style="stop-color:#ffffff;stop-opacity:1;"
         offset="0"
         id="stop3171-6" />
      <stop
         style="stop-color:#00aa36;stop-opacity:1;"
         offset="1"
         id="stop3173-1" />
    </linearGradient>
    <radialGradient
       r="8.2885695"
       fy="14.079686"
       fx="17.373365"
       cy="14.079686"
       cx="17.373365"
       gradientTransform="matrix(0.7038326,0.0221994,-0.04159285,1.3187024,1.4860422,-10.375896)"
       gradientUnits="userSpaceOnUse"
       id="radialGradient3008-5"
       xlink:href="#linearGradient3169-0"
       inkscape:collect="always" />
  </defs>
  <sodipodi:namedview
     id="base"
     pagecolor="#ffffff"
     bordercolor="#666666"
     borderopacity="1.0"
     inkscape:pageopacity="0.0"
     inkscape:pageshadow="2"
     inkscape:zoom="7.9999996"
     inkscape:cx="10.573531"
     inkscape:cy="10.654808"
     inkscape:document-units="px"
     inkscape:current-layer="layer1"
     showgrid="false"
     inkscape:window-width="1280"
     inkscape:window-height="776"
     inkscape:window-x="0"
     inkscape:window-y="24"
     fit-margin-top="0"
     fit-margin-left="0"
     fit-margin-right="0"
     fit-margin-bottom="0"
     inkscape:window-maximized="1" />
  <metadata
     id="metadata7">
    <rdf:RDF>
      <cc:Work
         rdf:about="">
        <dc:format>image/svg+xml</dc:format>
        <dc:type
           rdf:resource="http://purl.org/dc/dcmitype/StillImage" />
        <dc:title />
      </cc:Work>
    </rdf:RDF>
  </metadata>
  <g
     inkscape:label="Calque 1"
     inkscape:groupmode="layer"
     id="layer1"
     transform="translate(-4.125,-3.862)">
    <path
       style="fill:url(#radialGradient3008-5);fill-opacity:1;fill-rule:evenodd;stroke:#003e08;stroke-width:1.5;stroke-linecap:butt;stroke-linejoin:miter;stroke-miterlimit:4;stroke-opacity:1;stroke-dasharray:none"
       d="M 18.925857,6.3570753 C 14.14167,12.4937 12.096931,19.225413 4.9375,22.5 c -0.058439,0.549767 -0.1533717,0.962315 -0.21875,1.125 0.715532,0.510067 1.949855,0.05402 3.03125,0.09375 1.081395,0.03973 2.609173,0.54015 3.625,0.5625 1.015827,0.02235 2.818314,-0.34165 3.6875,-0.34375 1.671688,0.190996 2.667562,0.444606 4.25,-0.1875 C 18.908208,21.426227 21.330302,5.5340059 18.925857,6.3570753 z"
       transform="translate(4.125,3.862)"
       id="path3155-9"
       inkscape:connector-curvature="0"
       sodipodi:nodetypes="cccssccc" />
    <path
       style="fill:url(#radialGradient3175);fill-opacity:1;fill-rule:evenodd;stroke:#003e08;stroke-width:1.5;stroke-linecap:butt;stroke-linejoin:miter;stroke-miterlimit:4;stroke-opacity:1;stroke-dasharray:none"
       d="M 11.145527,3.0445753 C 9.8992287,3.0902122 8.1912428,3.3533603 7.0830267,4.6383253 6.6871133,5.0973827 6.5284975,5.6015492 5.3815166,7.7391134 3.4614359,11.31746 5.1910993,15.475109 4.342449,17.820621 8.8528854,15.882754 12.771756,9.0005033 16.679592,3.9747621 15.142859,3.2899203 14.260196,3.0549658 12.208027,3.0445753 c -0.268403,-0.00146 -0.647067,-0.015212 -1.0625,0 z"
       transform="translate(4.125,3.862)"
       id="path3155"
       inkscape:connector-curvature="0"
       sodipodi:nodetypes="ssscccs" />
    <path
       sodipodi:type="arc"
       style="fill:#fff5f4;fill-opacity:1;stroke:#003e08;stroke-width:1.13613594;stroke-linecap:round;stroke-linejoin:round;stroke-miterlimit:4;stroke-opacity:1;stroke-dasharray:none;stroke-dashoffset:0"
       id="path3157"
       sodipodi:cx="10.165756"
       sodipodi:cy="8.1084957"
       sodipodi:rx="3.8368807"
       sodipodi:ry="3.876436"
       d="m 14.002637,8.1084957 c 0,2.1408963 -1.71783,3.8764363 -3.836881,3.8764363 -2.1190505,0 -3.8368805,-1.73554 -3.8368805,-3.8764363 0,-2.1408965 1.71783,-3.876436 3.8368805,-3.876436 2.119051,0 3.836881,1.7355395 3.836881,3.876436 z"
       transform="matrix(1.3270525,0,0,1.3135112,-2.9010276,-0.705528)" />
    <path
       sodipodi:type="arc"
       style="fill:#ffffff;fill-opacity:1;stroke:#003e08;stroke-width:1.06443644;stroke-linecap:round;stroke-linejoin:round;stroke-miterlimit:4;stroke-opacity:1;stroke-dasharray:none;stroke-dashoffset:0"
       id="path3159"
       sodipodi:cx="21.992842"
       sodipodi:cy="9.3347158"
       sodipodi:rx="1.5822188"
       sodipodi:ry="1.7008852"
       d="m 23.57506,9.3347158 c 0,0.9393732 -0.708383,1.7008852 -1.582218,1.7008852 -0.873836,0 -1.582219,-0.761512 -1.582219,-1.7008852 0,-0.9393729 0.708383,-1.7008851 1.582219,-1.7008851 0.873835,0 1.582218,0.7615122 1.582218,1.7008851 z"
       transform="matrix(1.4091964,0,0,1.4091964,-8.2357229,-1.0287937)" />
    <path
       sodipodi:type="arc"
       style="fill:#000000;fill-opacity:1;stroke:#000000;stroke-width:1.5;stroke-linecap:round;stroke-linejoin:round;stroke-miterlimit:4;stroke-opacity:1;stroke-dasharray:none;stroke-dashoffset:0"
       id="path3177"
       sodipodi:cx="-19.18738"
       sodipodi:cy="16.057133"
       sodipodi:rx="0.27969941"
       sodipodi:ry="0.27969941"
       d="m -18.90768,16.057133 c 0,0.154473 -0.125226,0.279699 -0.2797,0.279699 -0.154474,0 -0.279699,-0.125226 -0.279699,-0.279699 0,-0.154474 0.125225,-0.2797 0.279699,-0.2797 0.154474,0 0.2797,0.125226 0.2797,0.2797 z"
       transform="matrix(0.9711572,0,0,0.9711572,28.729381,-5.7724347)" />
    <path
       sodipodi:type="arc"
       style="fill:#000000;fill-opacity:1;stroke:#000000;stroke-width:1.5;stroke-linecap:round;stroke-linejoin:round;stroke-miterlimit:4;stroke-opacity:1;stroke-dasharray:none;stroke-dashoffset:0"
       id="path3179"
       sodipodi:cx="-19.18738"
       sodipodi:cy="16.057133"
       sodipodi:rx="0.27969941"
       sodipodi:ry="0.27969941"
       d="m -18.90768,16.057133 c 0,0.154473 -0.125226,0.279699 -0.2797,0.279699 -0.154474,0 -0.279699,-0.125226 -0.279699,-0.279699 0,-0.154474 0.125225,-0.2797 0.279699,-0.2797 0.154474,0 0.2797,0.125226 0.2797,0.2797 z"
       transform="matrix(0.7283679,0,0,0.7283679,36.450572,0.389902)" />
  </g>
</svg>
