<?xml version="1.0" encoding="UTF-8" standalone="no"?>
<!-- Created with Inkscape (http://www.inkscape.org/) -->
<svg
   xmlns:dc="http://purl.org/dc/elements/1.1/"
   xmlns:cc="http://creativecommons.org/ns#"
   xmlns:rdf="http://www.w3.org/1999/02/22-rdf-syntax-ns#"
   xmlns:svg="http://www.w3.org/2000/svg"
   xmlns="http://www.w3.org/2000/svg"
   xmlns:xlink="http://www.w3.org/1999/xlink"
   xmlns:sodipodi="http://sodipodi.sourceforge.net/DTD/sodipodi-0.dtd"
   xmlns:inkscape="http://www.inkscape.org/namespaces/inkscape"
   width="24"
   height="26"
   id="svg2"
   sodipodi:version="0.32"
   inkscape:version="0.46"
   version="1.0"
   sodipodi:docname="splashed-01.svg"
   inkscape:output_extension="org.inkscape.output.svg.inkscape"
   inkscape:export-filename="F:\base\splashed-01.png"
   inkscape:export-xdpi="120"
   inkscape:export-ydpi="120">
  <defs
     id="defs4">
    <linearGradient
       id="linearGradient3169">
      <stop
         style="stop-color:#ffffff;stop-opacity:1;"
         offset="0"
         id="stop3171" />
      <stop
         style="stop-color:#00aa36;stop-opacity:1;"
         offset="1"
         id="stop3173" />
    </linearGradient>
    <inkscape:perspective
       sodipodi:type="inkscape:persp3d"
       inkscape:vp_x="0 : 526.18109 : 1"
       inkscape:vp_y="0 : 1000 : 0"
       inkscape:vp_z="744.09448 : 526.18109 : 1"
       inkscape:persp3d-origin="372.04724 : 350.78739 : 1"
       id="perspective10" />
    <radialGradient
       inkscape:collect="always"
       xlink:href="#linearGradient3169"
       id="radialGradient3175"
       cx="17.373365"
       cy="14.079686"
       fx="17.373365"
       fy="14.079686"
       r="8.2885695"
       gradientTransform="matrix(0.7038326,0.0221994,-0.04159285,1.3187024,5.5527411,-6.5408101)"
       gradientUnits="userSpaceOnUse" />
    <radialGradient
       inkscape:collect="always"
       xlink:href="#linearGradient3169"
       id="radialGradient3162"
       gradientUnits="userSpaceOnUse"
       gradientTransform="matrix(0.7038326,2.21994e-2,-4.159285e-2,1.3187024,31.969989,-13.835639)"
       cx="17.373365"
       cy="14.079686"
       fx="17.373365"
       fy="14.079686"
       r="8.2885695" />
    <radialGradient
       inkscape:collect="always"
       xlink:href="#linearGradient3169"
       id="radialGradient3164"
       gradientUnits="userSpaceOnUse"
       gradientTransform="matrix(0.616439,-0.3404058,0.6377851,1.1549615,-2.9609224,-5.7435191)"
       cx="14.988522"
       cy="11.974977"
       fx="14.988522"
       fy="11.974977"
       r="8.2885695" />
  </defs>
  <sodipodi:namedview
     id="base"
     pagecolor="#ffffff"
     bordercolor="#666666"
     borderopacity="1.0"
     inkscape:pageopacity="0.0"
     inkscape:pageshadow="2"
     inkscape:zoom="11.313709"
     inkscape:cx="22.464883"
     inkscape:cy="12.79603"
     inkscape:document-units="px"
     inkscape:current-layer="layer1"
     showgrid="false"
     inkscape:window-width="1280"
     inkscape:window-height="727"
     inkscape:window-x="132"
     inkscape:window-y="139"
     inkscape:window-maximized="1"
     fit-margin-top="0"
     fit-margin-left="0"
     fit-margin-right="0"
     fit-margin-bottom="0" />
  <metadata
     id="metadata7">
    <rdf:RDF>
      <cc:Work
         rdf:about="">
        <dc:format>image/svg+xml</dc:format>
        <dc:type
           rdf:resource="http://purl.org/dc/dcmitype/StillImage" />
      </cc:Work>
    </rdf:RDF>
  </metadata>
  <g
     inkscape:label="Calque 1"
     inkscape:groupmode="layer"
     id="layer1"
     transform="translate(-4.125,-3.862)">
    <path
       style="fill:url(#radialGradient3175);fill-opacity:1;fill-rule:evenodd;stroke:#003e08;stroke-width:1.5;stroke-linecap:butt;stroke-linejoin:miter;stroke-miterlimit:4;stroke-opacity:1;stroke-dasharray:none"
       d="M 8.4882858,21.961368 C 5.6950153,20.223552 4.8399955,18.872421 8.5703522,15.375352 C 10.750624,13.331429 3.3997141,7.3425784 9.9166036,5.1904205 C 16.35385,3.0645641 17.900799,9.3364588 18.97441,9.3422948 C 21.710635,9.3561488 23.760896,9.1957432 25.492627,12.920951 C 27.208322,16.611663 23.314709,16.513298 23.464932,20.687515 C 23.615154,24.861731 27.741403,24.77411 23.552861,27.930327 C 19.605503,31.116102 18.447324,26.405502 16.107806,26.14969 C 13.768288,25.893878 9.0062645,31.116975 8.7989459,27.452485 L 8.4882858,21.961368 z"
       id="path3155"
       sodipodi:nodetypes="cszszsczzc"
       inkscape:connector-curvature="0" />
    <path
       sodipodi:type="arc"
       style="fill:#fff5f4;fill-opacity:1;stroke:#003e08;stroke-width:1.13613594;stroke-linecap:round;stroke-linejoin:round;stroke-miterlimit:4;stroke-opacity:1;stroke-dasharray:none;stroke-dashoffset:0"
       id="path3157"
       sodipodi:cx="10.165756"
       sodipodi:cy="8.1084957"
       sodipodi:rx="3.8368807"
       sodipodi:ry="3.876436"
       d="m 14.002637,8.1084957 c 0,2.1408963 -1.71783,3.8764363 -3.836881,3.8764363 -2.1190505,0 -3.8368805,-1.73554 -3.8368805,-3.8764363 0,-2.1408965 1.71783,-3.876436 3.8368805,-3.876436 2.119051,0 3.836881,1.7355395 3.836881,3.876436 z"
       transform="matrix(1.3270525,0,0,1.3135112,-2.9010276,-0.705528)" />
    <path
       sodipodi:type="arc"
       style="fill:#ffffff;fill-opacity:1;stroke:#003e08;stroke-width:1.06443644;stroke-linecap:round;stroke-linejoin:round;stroke-miterlimit:4;stroke-opacity:1;stroke-dasharray:none;stroke-dashoffset:0"
       id="path3159"
       sodipodi:cx="21.992842"
       sodipodi:cy="9.3347158"
       sodipodi:rx="1.5822188"
       sodipodi:ry="1.7008852"
       d="m 23.57506,9.3347158 c 0,0.9393732 -0.708383,1.7008852 -1.582218,1.7008852 -0.873836,0 -1.582219,-0.761512 -1.582219,-1.7008852 0,-0.9393729 0.708383,-1.7008851 1.582219,-1.7008851 0.873835,0 1.582218,0.7615122 1.582218,1.7008851 z"
       transform="matrix(1.4091964,0,0,1.4091964,-8.2357229,-1.0287937)" />
    <path
       sodipodi:type="arc"
       style="fill:#000000;fill-opacity:1;stroke:#000000;stroke-width:1.5;stroke-linecap:round;stroke-linejoin:round;stroke-miterlimit:4;stroke-opacity:1;stroke-dasharray:none;stroke-dashoffset:0"
       id="path3177"
       sodipodi:cx="-19.18738"
       sodipodi:cy="16.057133"
       sodipodi:rx="0.27969941"
       sodipodi:ry="0.27969941"
       d="m -18.90768,16.057133 c 0,0.154473 -0.125226,0.279699 -0.2797,0.279699 -0.154474,0 -0.279699,-0.125226 -0.279699,-0.279699 0,-0.154474 0.125225,-0.2797 0.279699,-0.2797 0.154474,0 0.2797,0.125226 0.2797,0.2797 z"
       transform="matrix(0.9711572,0,0,0.9711572,28.729381,-5.7724347)" />
    <path
       sodipodi:type="arc"
       style="fill:#000000;fill-opacity:1;stroke:#000000;stroke-width:1.5;stroke-linecap:round;stroke-linejoin:round;stroke-miterlimit:4;stroke-opacity:1;stroke-dasharray:none;stroke-dashoffset:0"
       id="path3179"
       sodipodi:cx="-19.18738"
       sodipodi:cy="16.057133"
       sodipodi:rx="0.27969941"
       sodipodi:ry="0.27969941"
       d="m -18.90768,16.057133 c 0,0.154473 -0.125226,0.279699 -0.2797,0.279699 -0.154474,0 -0.279699,-0.125226 -0.279699,-0.279699 0,-0.154474 0.125225,-0.2797 0.279699,-0.2797 0.154474,0 0.2797,0.125226 0.2797,0.2797 z"
       transform="matrix(0.7283679,0,0,0.7283679,36.450572,0.389902)" />
  </g>
</svg>
