<?xml version="1.0" encoding="UTF-8" standalone="no"?>
<!-- Created with Inkscape (http://www.inkscape.org/) -->

<svg
   xmlns:dc="http://purl.org/dc/elements/1.1/"
   xmlns:cc="http://creativecommons.org/ns#"
   xmlns:rdf="http://www.w3.org/1999/02/22-rdf-syntax-ns#"
   xmlns:svg="http://www.w3.org/2000/svg"
   xmlns="http://www.w3.org/2000/svg"
   xmlns:xlink="http://www.w3.org/1999/xlink"
   xmlns:sodipodi="http://sodipodi.sourceforge.net/DTD/sodipodi-0.dtd"
   xmlns:inkscape="http://www.inkscape.org/namespaces/inkscape"
   inkscape:export-ydpi="90"
   inkscape:export-xdpi="90"
   inkscape:export-filename="/home/guillaume/Documents/gamers associate/labo break/png/wait-v-1.png"
   inkscape:output_extension="org.inkscape.output.svg.inkscape"
   sodipodi:docname="slime-afro.svg"
   version="1.0"
   inkscape:version="0.48.2 r9819"
   sodipodi:version="0.32"
   id="svg2"
   height="50"
   width="50">
  <sodipodi:namedview
     id="base"
     pagecolor="#ffffff"
     bordercolor="#666666"
     borderopacity="1.0"
     inkscape:pageopacity="0.0"
     inkscape:pageshadow="2"
     inkscape:zoom="8.198224"
     inkscape:cx="49.915302"
     inkscape:cy="24.959653"
     inkscape:document-units="px"
     inkscape:current-layer="layer1"
     showgrid="false"
     inkscape:window-width="1280"
     inkscape:window-height="776"
     inkscape:window-x="0"
     inkscape:window-y="24"
     fit-margin-top="0"
     fit-margin-left="0"
     fit-margin-right="0"
     fit-margin-bottom="0"
     inkscape:window-maximized="1"
     showguides="true"
     inkscape:guide-bbox="true">
    <sodipodi:guide
       orientation="0,1"
       position="26.306621,0.77626093"
       id="guide3147" />
    <sodipodi:guide
       orientation="1,0"
       position="25.22848,0.77626093"
       id="guide3149" />
  </sodipodi:namedview>
  <defs
     id="defs4">
    <linearGradient
       id="linearGradient4076">
      <stop
         style="stop-color:#000000;stop-opacity:1;"
         offset="0"
         id="stop4078" />
      <stop
         id="stop4084"
         offset="1"
         style="stop-color:#87c4f1;stop-opacity:1;" />
    </linearGradient>
    <linearGradient
       id="linearGradient3169">
      <stop
         style="stop-color:#ffffff;stop-opacity:1;"
         offset="0"
         id="stop3171" />
      <stop
         style="stop-color:#00aa36;stop-opacity:1;"
         offset="1"
         id="stop3173" />
    </linearGradient>
    <inkscape:perspective
       sodipodi:type="inkscape:persp3d"
       inkscape:vp_x="0 : 526.18109 : 1"
       inkscape:vp_y="0 : 1000 : 0"
       inkscape:vp_z="744.09448 : 526.18109 : 1"
       inkscape:persp3d-origin="372.04724 : 350.78739 : 1"
       id="perspective10" />
    <radialGradient
       inkscape:collect="always"
       xlink:href="#linearGradient3169"
       id="radialGradient3009"
       gradientUnits="userSpaceOnUse"
       gradientTransform="matrix(0.7038326,0.0221994,-0.04159285,1.3187024,19.435796,-6.5408101)"
       cx="17.373365"
       cy="14.079686"
       fx="17.373365"
       fy="14.079686"
       r="8.2885695" />
    <radialGradient
       inkscape:collect="always"
       xlink:href="#linearGradient4076"
       id="radialGradient4086"
       cx="32.431377"
       cy="6.0925846"
       fx="32.431377"
       fy="6.0925846"
       r="13.092623"
       gradientTransform="matrix(2.2707191,0.13897381,-0.12232595,2.244154,-40.891689,-11.667855)"
       gradientUnits="userSpaceOnUse" />
    <radialGradient
       inkscape:collect="always"
       xlink:href="#linearGradient4076-2"
       id="radialGradient4086-2"
       cx="32.431377"
       cy="6.0925846"
       fx="32.431377"
       fy="6.0925846"
       r="13.092623"
       gradientTransform="matrix(2.2707191,0.13897381,-0.12232595,2.244154,-40.891689,-11.667855)"
       gradientUnits="userSpaceOnUse" />
    <linearGradient
       id="linearGradient4076-2">
      <stop
         style="stop-color:#000000;stop-opacity:1;"
         offset="0"
         id="stop4078-3" />
      <stop
         id="stop4198"
         offset="0.5"
         style="stop-color:#436278;stop-opacity:1;" />
      <stop
         id="stop4084-4"
         offset="1"
         style="stop-color:#000000;stop-opacity:1;" />
    </linearGradient>
    <radialGradient
       r="13.092623"
       fy="6.0925846"
       fx="32.431377"
       cy="6.0925846"
       cx="32.431377"
       gradientTransform="matrix(2.2707191,0.13897381,-0.12232595,2.244154,-150.28172,-11.77178)"
       gradientUnits="userSpaceOnUse"
       id="radialGradient4103"
       xlink:href="#linearGradient4076-2"
       inkscape:collect="always" />
    <linearGradient
       inkscape:collect="always"
       xlink:href="#linearGradient4076-2"
       id="linearGradient4196"
       x1="-47.461102"
       y1="25.061132"
       x2="-41.698235"
       y2="28.015671"
       gradientUnits="userSpaceOnUse" />
    <linearGradient
       inkscape:collect="always"
       xlink:href="#linearGradient4076-2"
       id="linearGradient4208"
       x1="-47.081627"
       y1="26.335802"
       x2="-40.909824"
       y2="26.659941"
       gradientUnits="userSpaceOnUse" />
    <linearGradient
       inkscape:collect="always"
       xlink:href="#linearGradient4076-2"
       id="linearGradient4216"
       x1="-46.275909"
       y1="23.790918"
       x2="-41.241734"
       y2="27.277107"
       gradientUnits="userSpaceOnUse" />
    <linearGradient
       inkscape:collect="always"
       xlink:href="#linearGradient4076-2"
       id="linearGradient4218"
       x1="-46.553429"
       y1="23.979361"
       x2="-41.241734"
       y2="27.559771"
       gradientUnits="userSpaceOnUse" />
    <linearGradient
       inkscape:collect="always"
       xlink:href="#linearGradient4076-2-2"
       id="linearGradient4196-9"
       x1="-46.130989"
       y1="25.063244"
       x2="-41.34087"
       y2="28.359411"
       gradientUnits="userSpaceOnUse" />
    <linearGradient
       id="linearGradient4076-2-2">
      <stop
         style="stop-color:#000000;stop-opacity:1;"
         offset="0"
         id="stop4078-3-0" />
      <stop
         id="stop4198-2"
         offset="0.5"
         style="stop-color:#436278;stop-opacity:1;" />
      <stop
         id="stop4084-4-2"
         offset="1"
         style="stop-color:#000000;stop-opacity:1;" />
    </linearGradient>
    <linearGradient
       inkscape:collect="always"
       xlink:href="#linearGradient4076-2-2"
       id="linearGradient4208-9"
       x1="-46.332939"
       y1="24.437075"
       x2="-41.586472"
       y2="27.768303"
       gradientUnits="userSpaceOnUse" />
    <linearGradient
       id="linearGradient4236">
      <stop
         style="stop-color:#000000;stop-opacity:1;"
         offset="0"
         id="stop4238" />
      <stop
         id="stop4240"
         offset="0.5"
         style="stop-color:#436278;stop-opacity:1;" />
      <stop
         id="stop4242"
         offset="1"
         style="stop-color:#000000;stop-opacity:1;" />
    </linearGradient>
    <radialGradient
       gradientUnits="userSpaceOnUse"
       gradientTransform="matrix(0.7038326,0.0221994,-0.04159285,1.3187024,5.5527411,-6.5408101)"
       r="8.2885695"
       fy="14.079686"
       fx="17.373365"
       cy="14.079686"
       cx="17.373365"
       id="radialGradient3175"
       xlink:href="#linearGradient3169-6"
       inkscape:collect="always" />
    <inkscape:perspective
       id="perspective10-4"
       inkscape:persp3d-origin="372.04724 : 350.78739 : 1"
       inkscape:vp_z="744.09448 : 526.18109 : 1"
       inkscape:vp_y="0 : 1000 : 0"
       inkscape:vp_x="0 : 526.18109 : 1"
       sodipodi:type="inkscape:persp3d" />
    <linearGradient
       id="linearGradient3169-6">
      <stop
         id="stop3171-3"
         offset="0"
         style="stop-color:#ffffff;stop-opacity:1;" />
      <stop
         id="stop3173-2"
         offset="1"
         style="stop-color:#00aa36;stop-opacity:1;" />
    </linearGradient>
    <radialGradient
       inkscape:collect="always"
       xlink:href="#linearGradient3169-6"
       id="radialGradient4314"
       gradientUnits="userSpaceOnUse"
       gradientTransform="matrix(0.7038326,0.0221994,-0.04159285,1.3187024,-42.401451,-16.584065)"
       cx="17.373365"
       cy="14.079686"
       fx="17.373365"
       fy="14.079686"
       r="8.2885695" />
  </defs>
  <metadata
     id="metadata7">
    <rdf:RDF>
      <cc:Work
         rdf:about="">
        <dc:format>image/svg+xml</dc:format>
        <dc:type
           rdf:resource="http://purl.org/dc/dcmitype/StillImage" />
        <dc:title />
      </cc:Work>
    </rdf:RDF>
  </metadata>
  <g
     inkscape:label="Calque 1"
     inkscape:groupmode="layer"
     id="layer1"
     transform="translate(-4.125,20.138)">
    <g
       id="g3151">
      <path
         inkscape:connector-curvature="0"
         sodipodi:nodetypes="czsccczzc"
         id="path3155"
         d="m 22.682001,27.352 c 0.555908,-1.383297 0.767709,-18.5039875 2.221211,-20.1893077 1.477621,-1.713287 4.052216,-1.5987586 5.125827,-1.5929219 2.736225,0.013854 4.751631,1.5205098 6.11809,3.1592386 0.611532,1.941141 0.701301,16.387333 1.11201,18.747991 -1.582438,0.632106 -2.588176,0.695054 -4.259864,0.504058 -0.869186,0.0021 -2.654199,0.357987 -3.670026,0.335641 -1.015827,-0.02235 -2.554698,-0.519667 -3.636093,-0.559399 -1.081395,-0.03973 -2.295623,0.104767 -3.011155,-0.4053 z"
         style="fill:url(#radialGradient3009);fill-opacity:1;fill-rule:evenodd;stroke:#003e08;stroke-width:1.5;stroke-linecap:butt;stroke-linejoin:miter;stroke-miterlimit:4;stroke-opacity:1;stroke-dasharray:none" />
      <path
         sodipodi:nodetypes="csccc"
         inkscape:connector-curvature="0"
         id="path2993-4"
         d="m 27.169515,18.81869 c 0.592051,-0.122012 1.602383,-0.195231 2.619692,-0.189618 1.017309,0.0056 2.041596,0.09006 2.661558,0.283368 -0.964208,1.414301 -1.774706,2.542864 -2.84375,2.46875 -0.985253,-0.06364 -1.895012,-1.24024 -2.4375,-2.5625 z"
         style="fill:#000000;fill-opacity:1;stroke:#000000;stroke-width:1px;stroke-linecap:round;stroke-linejoin:round;stroke-opacity:1;opacity:0.8" />
      <path
         sodipodi:nodetypes="csssscsssssscssssssssssssssssssssccccc"
         inkscape:connector-curvature="0"
         id="path3971"
         d="m 43.515139,6.6376622 c 0,0.7852867 -0.479997,1.5526624 -0.632969,2.2950467 -0.157806,0.7658367 0.268664,1.9304761 -0.03593,2.6353501 -0.309976,0.717338 -0.691755,1.399082 -1.136769,2.03704 -0.449381,0.644218 -2.216839,0.876154 -2.33491,1.656578 -0.114126,0.75435 -2.655244,2.582015 -3.546875,2.914779 -0.03679,-0.548052 -0.230755,-1.527796 -0.147161,-2.108014 0.127191,-0.882815 1.7426,-2.918463 1.71304,-4.041583 C 37.337584,9.8997746 36.683027,9.0320563 36.003087,8.4883116 31.521257,4.9042141 27.539515,4.9924206 24.411263,8.2431194 23.897102,8.7774059 22.419097,10.09332 22.333927,11.672314 c -0.07743,1.435523 1.129491,3.227113 1.807644,4.041284 0.646501,0.77617 0.211787,1.502807 0.174391,2.480853 -0.738866,-0.03277 -3.903844,-2.060324 -4.364157,-3.263639 -0.281881,-0.736874 -1.082619,-1.14551 -1.531856,-1.789397 -0.445302,-0.638247 -1.394504,-1.225796 -1.704632,-1.943509 -0.304595,-0.704909 0.405476,-1.5859861 0.247679,-2.3518611 -0.152941,-0.7423096 -0.202194,-1.4623376 -0.202194,-2.2475395 0,-0.7852865 0.380137,-1.5526622 0.533109,-2.2950466 0.157806,-0.7658365 -0.0067,-1.6107276 0.297891,-2.3156014 0.309976,-0.7173378 1.65872,-1.29343217 2.103734,-1.9313898 0.449381,-0.64421828 0.762938,-1.7618441 1.332464,-2.3083268 0.570139,-0.5470713 1.396367,-0.6174178 2.06922,-1.0496255 0.668574,-0.4294585 1.383484,-1.327974 2.13605,-1.6273673 0.740035,-0.2944083 1.516482,0.00802 2.321085,-0.1446936 0.781371,-0.1483052 1.589727,-0.8615667 2.416645,-0.8615667 0.827266,0 1.635094,0.7133272 2.416772,0.8617541 0.804948,0.1528458 1.58171,-0.1493875 2.322021,0.1452712 0.752379,0.2994623 1.467107,1.1980173 2.135508,1.6274897 0.672328,0.4319964 1.497951,0.5020412 2.067699,1.0487381 0.569269,0.5462361 0.882844,1.56903439 1.332081,2.21292163 0.445302,0.63824732 1.027791,1.21468017 1.337919,1.93239307 0.304595,0.704908 1.141423,1.6835259 1.29922,2.4494008 0.152941,0.7423095 0.632919,1.5096042 0.632919,2.2948059 l 0,0 0,0 0,0 0,0"
         style="color:#000000;fill:url(#radialGradient4086);fill-opacity:1;fill-rule:nonzero;stroke:#000000;stroke-width:1.54407048;stroke-linecap:round;stroke-linejoin:miter;stroke-miterlimit:4;stroke-opacity:1;marker:none;visibility:visible;display:inline;overflow:visible;enable-background:accumulate" />
      <g
         id="g3030">
        <path
           sodipodi:type="arc"
           style="fill:#fff5f4;fill-opacity:1;stroke:#003e08;stroke-width:1.13613594;stroke-linecap:round;stroke-linejoin:round;stroke-miterlimit:4;stroke-opacity:1;stroke-dasharray:none;stroke-dashoffset:0"
           id="path3157"
           sodipodi:cx="10.165756"
           sodipodi:cy="8.1084957"
           sodipodi:rx="3.8368807"
           sodipodi:ry="3.876436"
           d="m 14.002637,8.1084957 c 0,2.1408963 -1.71783,3.8764363 -3.836881,3.8764363 -2.1190505,0 -3.8368805,-1.73554 -3.8368805,-3.8764363 0,-2.1408965 1.71783,-3.876436 3.8368805,-3.876436 2.119051,0 3.836881,1.7355395 3.836881,3.876436 z"
           transform="matrix(1.3270525,0,0,1.3135112,10.982027,-0.705528)" />
        <path
           sodipodi:type="arc"
           style="fill:#ffffff;fill-opacity:1;stroke:#003e08;stroke-width:1.06443644;stroke-linecap:round;stroke-linejoin:round;stroke-miterlimit:4;stroke-opacity:1;stroke-dasharray:none;stroke-dashoffset:0"
           id="path3159"
           sodipodi:cx="21.992842"
           sodipodi:cy="9.3347158"
           sodipodi:rx="1.5822188"
           sodipodi:ry="1.7008852"
           d="m 23.57506,9.3347158 c 0,0.9393732 -0.708383,1.7008852 -1.582218,1.7008852 -0.873836,0 -1.582219,-0.761512 -1.582219,-1.7008852 0,-0.9393729 0.708383,-1.7008851 1.582219,-1.7008851 0.873835,0 1.582218,0.7615122 1.582218,1.7008851 z"
           transform="matrix(1.4091964,0,0,1.4091964,5.6473321,-1.0287937)" />
        <path
           sodipodi:type="arc"
           style="fill:#000000;fill-opacity:1;stroke:#000000;stroke-width:1.5;stroke-linecap:round;stroke-linejoin:round;stroke-miterlimit:4;stroke-opacity:1;stroke-dasharray:none;stroke-dashoffset:0"
           id="path3177"
           sodipodi:cx="-19.18738"
           sodipodi:cy="16.057133"
           sodipodi:rx="0.27969941"
           sodipodi:ry="0.27969941"
           d="m -18.90768,16.057133 c 0,0.154473 -0.125226,0.279699 -0.2797,0.279699 -0.154474,0 -0.279699,-0.125226 -0.279699,-0.279699 0,-0.154474 0.125225,-0.2797 0.279699,-0.2797 0.154474,0 0.2797,0.125226 0.2797,0.2797 z"
           transform="matrix(0.9711572,0,0,0.9711572,42.612436,-5.7724347)" />
        <path
           sodipodi:type="arc"
           style="fill:#000000;fill-opacity:1;stroke:#000000;stroke-width:1.5;stroke-linecap:round;stroke-linejoin:round;stroke-miterlimit:4;stroke-opacity:1;stroke-dasharray:none;stroke-dashoffset:0"
           id="path3179"
           sodipodi:cx="-19.18738"
           sodipodi:cy="16.057133"
           sodipodi:rx="0.27969941"
           sodipodi:ry="0.27969941"
           d="m -18.90768,16.057133 c 0,0.154473 -0.125226,0.279699 -0.2797,0.279699 -0.154474,0 -0.279699,-0.125226 -0.279699,-0.279699 0,-0.154474 0.125225,-0.2797 0.279699,-0.2797 0.154474,0 0.2797,0.125226 0.2797,0.2797 z"
           transform="matrix(0.7283679,0,0,0.7283679,50.333627,0.389902)" />
      </g>
      <path
         sodipodi:nodetypes="cc"
         inkscape:connector-curvature="0"
         id="path4122"
         d="m 19.489752,11.768393 c 6.995325,-1.148378 13.873862,-1.596031 20.411785,0"
         style="fill:none;stroke:#ba0093;stroke-width:2;stroke-linecap:round;stroke-linejoin:miter;stroke-miterlimit:4;stroke-opacity:1;stroke-dasharray:none" />
      <path
         inkscape:transform-center-y="-0.19260115"
         inkscape:transform-center-x="0.34312042"
         transform="matrix(0.90994686,-0.20537266,0.2016331,0.89337798,60.316892,-20.718773)"
         d="m -40.769983,31.362293 -3.571462,-1.671954 -3.643886,1.507604 0.48648,-3.913325 -2.559839,-2.999665 3.872124,-0.746614 2.061817,-3.3615 1.906624,3.451893 3.834113,0.922144 -2.693766,2.88 z"
         inkscape:randomized="0"
         inkscape:rounded="0"
         inkscape:flatsided="false"
         sodipodi:arg2="1.5935702"
         sodipodi:arg1="0.96525166"
         sodipodi:r2="3.3766334"
         sodipodi:r1="6.1393337"
         sodipodi:cy="26.314581"
         sodipodi:cx="-44.264553"
         sodipodi:sides="5"
         id="path4146"
         style="color:#000000;fill:url(#linearGradient4196);fill-opacity:1;fill-rule:nonzero;stroke:#ba0093;stroke-width:1.6228441;stroke-linecap:round;stroke-linejoin:round;stroke-miterlimit:4;stroke-opacity:1;stroke-dasharray:none;marker:none;visibility:visible;display:inline;overflow:visible;enable-background:accumulate"
         sodipodi:type="star" />
      <path
         inkscape:transform-center-y="-0.11665335"
         inkscape:transform-center-x="-0.26322559"
         transform="matrix(0.64707873,0.12634506,-0.12404449,0.63529632,66.886983,1.0888587)"
         d="m -40.769983,31.362293 -3.571462,-1.671954 -3.643886,1.507604 0.48648,-3.913325 -2.559839,-2.999665 3.872124,-0.746614 2.061817,-3.3615 1.906624,3.451893 3.834113,0.922144 -2.693766,2.88 z"
         inkscape:randomized="0"
         inkscape:rounded="0"
         inkscape:flatsided="false"
         sodipodi:arg2="1.5935702"
         sodipodi:arg1="0.96525166"
         sodipodi:r2="3.3766334"
         sodipodi:r1="6.1393337"
         sodipodi:cy="26.314581"
         sodipodi:cx="-44.264553"
         sodipodi:sides="5"
         id="path4146-8"
         style="color:#000000;fill:url(#linearGradient4208);fill-opacity:1;fill-rule:nonzero;stroke:#ba0093;stroke-width:2.29614780999999990;stroke-linecap:round;stroke-linejoin:round;stroke-miterlimit:4;stroke-opacity:1;stroke-dasharray:none;marker:none;visibility:visible;display:inline;overflow:visible;enable-background:accumulate"
         sodipodi:type="star" />
    </g>
  </g>
</svg>
