<?xml version="1.0" encoding="UTF-8" standalone="no"?>
<!-- Created with Inkscape (http://www.inkscape.org/) -->

<svg
   xmlns:dc="http://purl.org/dc/elements/1.1/"
   xmlns:cc="http://creativecommons.org/ns#"
   xmlns:rdf="http://www.w3.org/1999/02/22-rdf-syntax-ns#"
   xmlns:svg="http://www.w3.org/2000/svg"
   xmlns="http://www.w3.org/2000/svg"
   xmlns:xlink="http://www.w3.org/1999/xlink"
   xmlns:sodipodi="http://sodipodi.sourceforge.net/DTD/sodipodi-0.dtd"
   xmlns:inkscape="http://www.inkscape.org/namespaces/inkscape"
   width="50"
   height="50"
   id="svg2"
   sodipodi:version="0.32"
   inkscape:version="0.48.2 r9819"
   version="1.0"
   sodipodi:docname="slime-hawaiian.svg"
   inkscape:output_extension="org.inkscape.output.svg.inkscape"
   inkscape:export-filename="/home/guillaume/Documents/gamers associate/labo break/png/wait-v-1.png"
   inkscape:export-xdpi="90"
   inkscape:export-ydpi="90">
  <defs
     id="defs4">
    <linearGradient
       id="linearGradient3169">
      <stop
         style="stop-color:#ffffff;stop-opacity:1;"
         offset="0"
         id="stop3171" />
      <stop
         style="stop-color:#00aa36;stop-opacity:1;"
         offset="1"
         id="stop3173" />
    </linearGradient>
    <inkscape:perspective
       sodipodi:type="inkscape:persp3d"
       inkscape:vp_x="0 : 526.18109 : 1"
       inkscape:vp_y="0 : 1000 : 0"
       inkscape:vp_z="744.09448 : 526.18109 : 1"
       inkscape:persp3d-origin="372.04724 : 350.78739 : 1"
       id="perspective10" />
    <radialGradient
       inkscape:collect="always"
       xlink:href="#linearGradient3169"
       id="radialGradient3009"
       gradientUnits="userSpaceOnUse"
       gradientTransform="matrix(0.7038326,0.0221994,-0.04159285,1.3187024,19.435796,-6.5408101)"
       cx="17.373365"
       cy="14.079686"
       fx="17.373365"
       fy="14.079686"
       r="8.2885695" />
  </defs>
  <sodipodi:namedview
     id="base"
     pagecolor="#ffffff"
     bordercolor="#666666"
     borderopacity="1.0"
     inkscape:pageopacity="0.0"
     inkscape:pageshadow="2"
     inkscape:zoom="21.156635"
     inkscape:cx="24.521228"
     inkscape:cy="11.142413"
     inkscape:document-units="px"
     inkscape:current-layer="layer1"
     showgrid="false"
     inkscape:window-width="1280"
     inkscape:window-height="776"
     inkscape:window-x="0"
     inkscape:window-y="24"
     fit-margin-top="0"
     fit-margin-left="0"
     fit-margin-right="0"
     fit-margin-bottom="0"
     inkscape:window-maximized="1"
     showguides="true"
     inkscape:guide-bbox="true" />
  <metadata
     id="metadata7">
    <rdf:RDF>
      <cc:Work
         rdf:about="">
        <dc:format>image/svg+xml</dc:format>
        <dc:type
           rdf:resource="http://purl.org/dc/dcmitype/StillImage" />
        <dc:title />
      </cc:Work>
    </rdf:RDF>
  </metadata>
  <g
     inkscape:label="Calque 1"
     inkscape:groupmode="layer"
     id="layer1"
     transform="translate(-4.125,20.138)">
    <path
       style="fill:url(#radialGradient3009);fill-opacity:1;fill-rule:evenodd;stroke:#003e08;stroke-width:1.5;stroke-linecap:butt;stroke-linejoin:miter;stroke-miterlimit:4;stroke-opacity:1;stroke-dasharray:none"
       d="m 22.682001,27.052 c 0.555908,-1.383297 0.767709,-18.2039875 2.221211,-19.8893077 1.477621,-1.713287 4.052216,-1.5987586 5.125827,-1.5929219 2.736225,0.013854 4.751631,1.5205098 6.11809,3.1592386 0.611532,1.941141 0.701301,16.087333 1.11201,18.447991 -1.582438,0.632106 -2.588176,0.995054 -4.259864,0.804058 -0.869186,0.0021 -2.654199,0.357987 -3.670026,0.335641 -1.015827,-0.02235 -2.554698,-0.519667 -3.636093,-0.559399 -1.081395,-0.03973 -2.295623,-0.195233 -3.011155,-0.7053 z"
       id="path3155"
       sodipodi:nodetypes="czsccczzc"
       inkscape:connector-curvature="0" />
    <path
       style="fill:#d2c227;fill-opacity:1;stroke:#a18132;stroke-width:0.75064999;stroke-linecap:butt;stroke-linejoin:miter;stroke-miterlimit:4;stroke-opacity:1;stroke-dasharray:none"
       d="m 23.177452,22.438419 -0.827163,4.078256 c -0.755677,-0.867751 -0.312117,-2.722253 -0.04559,-4.149297 0.687891,-0.152327 0.310719,-0.109064 0.87275,0.07104 z"
       id="path3824-3"
       inkscape:connector-curvature="0"
       sodipodi:nodetypes="cccc" />
    <path
       style="fill:#d2c227;fill-opacity:1;stroke:#a18132;stroke-width:0.75064999;stroke-linecap:butt;stroke-linejoin:miter;stroke-miterlimit:4;stroke-opacity:1;stroke-dasharray:none"
       d="m 22.452236,22.729614 c 0.60888,1.40013 0.456048,3.623791 1.456168,4.531836 0.533312,-1.195051 0.736742,-3.004227 0.89233,-4.531836 -0.961086,-0.235644 -1.387412,-0.263414 -2.348498,0 z"
       id="path3828-7"
       inkscape:connector-curvature="0"
       sodipodi:nodetypes="cccc" />
    <g
       id="g3806"
       transform="translate(1.2495611,-1.1055552)">
      <path
         sodipodi:nodetypes="ccccc"
         transform="translate(4.125,-20.138)"
         inkscape:connector-curvature="0"
         id="path3025"
         d="M 31.550802,26.470588 30.280749,23.028075 C 32.548577,22.647453 34.312181,22.98336 34.893048,25 l -1.203209,2.673797 z"
         style="fill:#d227b8;fill-opacity:1;stroke:#6d1a69;stroke-width:1.20000005;stroke-linecap:butt;stroke-linejoin:miter;stroke-miterlimit:4;stroke-opacity:1;stroke-dasharray:none" />
      <path
         sodipodi:nodetypes="ccccc"
         transform="translate(4.125,-20.138)"
         inkscape:connector-curvature="0"
         id="path3027"
         d="M 33.28877,28.008022 34.79278,25 c 1.989653,0.468545 2.4316,1.671733 2.640375,3.475936 L 34.759358,29.6123 z"
         style="fill:#d227b8;fill-opacity:1;stroke:#6d1a69;stroke-width:1.20000005;stroke-linecap:butt;stroke-linejoin:miter;stroke-miterlimit:4;stroke-opacity:1;stroke-dasharray:none" />
      <path
         sodipodi:nodetypes="cccscc"
         transform="translate(4.125,-20.138)"
         inkscape:connector-curvature="0"
         id="path3029"
         d="m 31.082888,23.529412 c -2.047447,-0.567515 -3.10983,0.619909 -3.977273,1.637701 l 3.509358,2.840909 c 0,0 1.671123,-1.203209 1.470588,-1.737968 -0.200534,-0.53476 -0.668449,-2.941177 -0.668449,-2.941177 z"
         style="fill:#d227b8;fill-opacity:1;stroke:#6d1a69;stroke-width:1.20000005;stroke-linecap:butt;stroke-linejoin:miter;stroke-miterlimit:4;stroke-opacity:1;stroke-dasharray:none" />
      <path
         sodipodi:nodetypes="csccc"
         transform="translate(4.125,-20.138)"
         inkscape:connector-curvature="0"
         id="path3031"
         d="m 31.149732,26.938503 c 0,0 -3.573975,-1.038619 -3.81016,-0.802139 -0.666785,0.667617 0.979945,4.723931 1.737968,4.34492 l 2.673797,-1.002674 z"
         style="fill:#d227b8;fill-opacity:1;stroke:#6d1a69;stroke-width:1.20000005;stroke-linecap:butt;stroke-linejoin:miter;stroke-miterlimit:4;stroke-opacity:1;stroke-dasharray:none" />
      <path
         sodipodi:nodetypes="cccsc"
         transform="translate(4.125,-20.138)"
         inkscape:connector-curvature="0"
         id="path3033"
         d="m 31.751337,28.94385 2.740641,-0.06685 2.473262,1.938503 c 0.128627,0.857514 -6.545816,2.261396 -6.684491,1.002674 -0.0366,-0.332215 1.470588,-2.874332 1.470588,-2.874327 z"
         style="fill:#d227b8;fill-opacity:1;stroke:#6d1a69;stroke-width:1.20000005;stroke-linecap:butt;stroke-linejoin:miter;stroke-miterlimit:4;stroke-opacity:1;stroke-dasharray:none" />
      <path
         sodipodi:nodetypes="sssss"
         inkscape:connector-curvature="0"
         id="path3035"
         d="m 34.491977,28.041445 c 0.134076,0.636819 -1.159413,1.389833 -1.737968,1.236631 -0.938373,-0.248483 -1.224743,-0.811505 -1.437165,-1.136364 -0.55561,-0.849699 0.637062,-1.819272 1.570855,-1.470588 0.650024,0.242723 1.43229,0.55343 1.604278,1.370321 z"
         style="color:#000000;fill:#d227b8;fill-opacity:1;fill-rule:nonzero;stroke:#6d1a69;stroke-width:1.20000005;stroke-miterlimit:4;stroke-opacity:1;marker:none;visibility:visible;display:inline;overflow:visible;enable-background:accumulate"
         transform="translate(4.125,-20.138)" />
    </g>
    <g
       id="g3030">
      <path
         transform="matrix(1.3270525,0,0,1.3135112,10.982027,-0.705528)"
         d="m 14.002637,8.1084957 c 0,2.1408963 -1.71783,3.8764363 -3.836881,3.8764363 -2.1190505,0 -3.8368805,-1.73554 -3.8368805,-3.8764363 0,-2.1408965 1.71783,-3.876436 3.8368805,-3.876436 2.119051,0 3.836881,1.7355395 3.836881,3.876436 z"
         sodipodi:ry="3.876436"
         sodipodi:rx="3.8368807"
         sodipodi:cy="8.1084957"
         sodipodi:cx="10.165756"
         id="path3157"
         style="fill:#fff5f4;fill-opacity:1;stroke:#003e08;stroke-width:1.13613594;stroke-linecap:round;stroke-linejoin:round;stroke-miterlimit:4;stroke-opacity:1;stroke-dasharray:none;stroke-dashoffset:0"
         sodipodi:type="arc" />
      <path
         transform="matrix(1.4091964,0,0,1.4091964,5.6473321,-1.0287937)"
         d="m 23.57506,9.3347158 c 0,0.9393732 -0.708383,1.7008852 -1.582218,1.7008852 -0.873836,0 -1.582219,-0.761512 -1.582219,-1.7008852 0,-0.9393729 0.708383,-1.7008851 1.582219,-1.7008851 0.873835,0 1.582218,0.7615122 1.582218,1.7008851 z"
         sodipodi:ry="1.7008852"
         sodipodi:rx="1.5822188"
         sodipodi:cy="9.3347158"
         sodipodi:cx="21.992842"
         id="path3159"
         style="fill:#ffffff;fill-opacity:1;stroke:#003e08;stroke-width:1.06443644;stroke-linecap:round;stroke-linejoin:round;stroke-miterlimit:4;stroke-opacity:1;stroke-dasharray:none;stroke-dashoffset:0"
         sodipodi:type="arc" />
      <path
         transform="matrix(0.9711572,0,0,0.9711572,42.612436,-5.7724347)"
         d="m -18.90768,16.057133 c 0,0.154473 -0.125226,0.279699 -0.2797,0.279699 -0.154474,0 -0.279699,-0.125226 -0.279699,-0.279699 0,-0.154474 0.125225,-0.2797 0.279699,-0.2797 0.154474,0 0.2797,0.125226 0.2797,0.2797 z"
         sodipodi:ry="0.27969941"
         sodipodi:rx="0.27969941"
         sodipodi:cy="16.057133"
         sodipodi:cx="-19.18738"
         id="path3177"
         style="fill:#000000;fill-opacity:1;stroke:#000000;stroke-width:1.5;stroke-linecap:round;stroke-linejoin:round;stroke-miterlimit:4;stroke-opacity:1;stroke-dasharray:none;stroke-dashoffset:0"
         sodipodi:type="arc" />
      <path
         transform="matrix(0.7283679,0,0,0.7283679,50.333627,0.389902)"
         d="m -18.90768,16.057133 c 0,0.154473 -0.125226,0.279699 -0.2797,0.279699 -0.154474,0 -0.279699,-0.125226 -0.279699,-0.279699 0,-0.154474 0.125225,-0.2797 0.279699,-0.2797 0.154474,0 0.2797,0.125226 0.2797,0.2797 z"
         sodipodi:ry="0.27969941"
         sodipodi:rx="0.27969941"
         sodipodi:cy="16.057133"
         sodipodi:cx="-19.18738"
         id="path3179"
         style="fill:#000000;fill-opacity:1;stroke:#000000;stroke-width:1.5;stroke-linecap:round;stroke-linejoin:round;stroke-miterlimit:4;stroke-opacity:1;stroke-dasharray:none;stroke-dashoffset:0"
         sodipodi:type="arc" />
    </g>
    <path
       style="fill:#d2c227;fill-opacity:1;stroke:#a18132;stroke-width:0.75064999;stroke-linecap:butt;stroke-linejoin:miter;stroke-miterlimit:4;stroke-opacity:1;stroke-dasharray:none"
       d="m 23.171719,22.36288 c -0.840042,1.114108 -1.003362,3.087883 -0.735007,4.460795 1.377318,-0.846722 1.786881,-2.774955 2.253269,-4.327333 -0.752263,-0.183526 -0.826545,-0.216471 -1.518262,-0.133462 z"
       id="path3822"
       inkscape:connector-curvature="0"
       sodipodi:nodetypes="cccc" />
    <path
       style="fill:#d2c227;fill-opacity:1;stroke:#a18132;stroke-width:0.75064999;stroke-linecap:butt;stroke-linejoin:miter;stroke-miterlimit:4;stroke-opacity:1;stroke-dasharray:none"
       d="m 25.004626,22.771228 c 0.60888,1.400132 0.456048,3.623792 1.456168,4.531837 0.533312,-1.19505 0.736742,-3.004226 0.89233,-4.531837 -0.961086,-0.235643 -1.387412,-0.263413 -2.348498,0 z"
       id="path3828-4"
       inkscape:connector-curvature="0"
       sodipodi:nodetypes="cccc" />
    <path
       style="fill:#d2c227;fill-opacity:1;stroke:#a18132;stroke-width:0.75064999;stroke-linecap:butt;stroke-linejoin:miter;stroke-miterlimit:4;stroke-opacity:1;stroke-dasharray:none"
       d="m 24.099149,22.596788 c 0.317287,1.348894 -0.100081,3.62924 0.968963,4.536887 0.966171,-1.4912 1.064373,-3.045687 1.583428,-4.536887 -0.850797,-0.176737 -1.701594,-0.155908 -2.552391,0 z"
       id="path3820"
       inkscape:connector-curvature="0"
       sodipodi:nodetypes="cccc" />
    <path
       style="fill:#d2c227;fill-opacity:1;stroke:#a18132;stroke-width:0.75064999;stroke-linecap:butt;stroke-linejoin:miter;stroke-miterlimit:4;stroke-opacity:1;stroke-dasharray:none"
       d="m 27.382569,22.833608 c 0.60888,1.400131 0.456048,3.623792 1.456168,4.531836 0.533312,-1.19505 0.736742,-3.004226 0.89233,-4.531836 -0.961086,-0.235643 -1.387412,-0.263413 -2.348498,0 z"
       id="path3828-0"
       inkscape:connector-curvature="0"
       sodipodi:nodetypes="cccc" />
    <path
       style="fill:#d2c227;fill-opacity:1;stroke:#a18132;stroke-width:0.75064999;stroke-linecap:butt;stroke-linejoin:miter;stroke-miterlimit:4;stroke-opacity:1;stroke-dasharray:none"
       d="m 28.353134,22.696298 c -0.03648,1.40797 0.237857,3.110201 -0.665094,4.488744 -1.383969,-1.452046 -0.932999,-3.086349 -1.414635,-4.488744 0.693243,-0.153575 1.386486,-0.178938 2.079729,0 z"
       id="path3818"
       inkscape:connector-curvature="0"
       sodipodi:nodetypes="cccc" />
    <path
       style="fill:#d2c227;fill-opacity:1;stroke:#a18132;stroke-width:0.75064999;stroke-linecap:butt;stroke-linejoin:miter;stroke-miterlimit:4;stroke-opacity:1;stroke-dasharray:none"
       d="m 34.255385,22.928027 c -0.03648,1.407968 0.237857,3.110199 -0.665094,4.488742 -1.383969,-1.452046 -0.932999,-3.086348 -1.414635,-4.488742 0.693243,-0.153577 1.386486,-0.17894 2.079729,0 z"
       id="path3818-5"
       inkscape:connector-curvature="0"
       sodipodi:nodetypes="cccc" />
    <path
       style="fill:#d2c227;fill-opacity:1;stroke:#a18132;stroke-width:0.75064999;stroke-linecap:butt;stroke-linejoin:miter;stroke-miterlimit:4;stroke-opacity:1;stroke-dasharray:none"
       d="m 30.014875,22.812844 c 0.60888,1.40013 0.456048,3.623791 1.456168,4.531836 0.533312,-1.195051 0.736742,-3.004227 0.89233,-4.531836 -0.961086,-0.235644 -1.387412,-0.263413 -2.348498,0 z"
       id="path3828-3"
       inkscape:connector-curvature="0"
       sodipodi:nodetypes="cccc" />
    <path
       style="fill:#d2c227;fill-opacity:1;stroke:#a18132;stroke-width:0.75064999;stroke-linecap:butt;stroke-linejoin:miter;stroke-miterlimit:4;stroke-opacity:1;stroke-dasharray:none"
       d="m 31.37819,22.696298 c 0.268732,1.499379 -0.01677,3.207883 0.827163,4.490223 0.755677,-0.867752 1.130475,-2.491894 1.063496,-4.490223 -0.687891,-0.152327 -1.328628,-0.180105 -1.890659,0 z"
       id="path3824"
       inkscape:connector-curvature="0"
       sodipodi:nodetypes="cccc" />
    <path
       style="fill:#d2c227;fill-opacity:1;stroke:#a18132;stroke-width:0.75064999;stroke-linecap:butt;stroke-linejoin:miter;stroke-miterlimit:4;stroke-opacity:1;stroke-dasharray:none"
       d="m 28.873065,22.896519 c 0.787775,-0.170442 1.57555,-0.103413 2.363325,0 -0.276969,1.351148 -0.25432,2.94517 -1.035808,4.691156 -1.381226,-0.754513 -0.97763,-3.022989 -1.327517,-4.691156 z"
       id="path3816"
       inkscape:connector-curvature="0"
       sodipodi:nodetypes="cccc" />
    <path
       style="fill:#d2c227;fill-opacity:1;stroke:#a18132;stroke-width:0.75064999;stroke-linecap:butt;stroke-linejoin:miter;stroke-miterlimit:4;stroke-opacity:1;stroke-dasharray:none"
       d="m 36.459338,22.292969 1.479106,4.384706 c 0.405806,-0.566329 0.112734,-3.12712 -0.172152,-4.472985 -0.704191,-0.02539 -0.310439,-0.182114 -1.070622,0.08828 z"
       id="path3826-3"
       inkscape:connector-curvature="0"
       sodipodi:nodetypes="ccccc" />
    <path
       style="fill:#d2c227;fill-opacity:1;stroke:#a18132;stroke-width:0.75064999;stroke-linecap:butt;stroke-linejoin:miter;stroke-miterlimit:4;stroke-opacity:1;stroke-dasharray:none"
       d="m 36.335112,22.96964 c -0.03648,1.40797 0.237857,3.110201 -0.665094,4.488744 -1.383969,-1.452047 -0.932999,-3.086349 -1.414635,-4.488744 0.693243,-0.153575 1.386486,-0.178938 2.079729,0 z"
       id="path3818-6"
       inkscape:connector-curvature="0"
       sodipodi:nodetypes="cccc" />
    <path
       style="fill:#d2c227;fill-opacity:1;stroke:#a18132;stroke-width:0.75064999;stroke-linecap:butt;stroke-linejoin:miter;stroke-miterlimit:4;stroke-opacity:1;stroke-dasharray:none"
       d="m 34.87591,22.595838 c 0.60888,1.400132 0.456048,3.623792 1.456168,4.531837 0.533312,-1.19505 0.736742,-3.004226 0.89233,-4.531837 -0.961086,-0.235643 -1.387412,-0.263413 -2.348498,0 z"
       id="path3828"
       inkscape:connector-curvature="0"
       sodipodi:nodetypes="cccc" />
    <path
       style="fill:#d2c227;fill-opacity:1;stroke:#a18132;stroke-width:0.75064999;stroke-linecap:butt;stroke-linejoin:miter;stroke-miterlimit:4;stroke-opacity:1;stroke-dasharray:none"
       d="m 33.12705,22.595838 c 0.450685,1.510613 0.188444,3.021226 1.378838,4.531837 0.405806,-0.566329 0.701191,-3.156545 0.984487,-4.531837 -0.704191,-0.02539 -1.36681,-0.270393 -2.126993,0 z"
       id="path3826"
       inkscape:connector-curvature="0"
       sodipodi:nodetypes="ccccc" />
    <path
       style="opacity:0.8;fill:#000000;fill-opacity:1;stroke:#000000;stroke-width:1px;stroke-linecap:round;stroke-linejoin:round;stroke-opacity:1"
       d="m 27.17,18.819047 c 0.592051,-0.122012 1.602383,-0.195231 2.619692,-0.189618 1.017309,0.0056 2.041596,0.09006 2.661558,0.283368 -0.964208,1.414301 -1.774706,2.542864 -2.84375,2.46875 -0.985253,-0.06364 -1.895012,-1.24024 -2.4375,-2.5625 z"
       id="path2993-4"
       inkscape:connector-curvature="0"
       sodipodi:nodetypes="csccc" />
  </g>
</svg>
