<?xml version="1.0" encoding="UTF-8" standalone="no"?>
<!-- Created with Inkscape (http://www.inkscape.org/) -->

<svg
   xmlns:dc="http://purl.org/dc/elements/1.1/"
   xmlns:cc="http://creativecommons.org/ns#"
   xmlns:rdf="http://www.w3.org/1999/02/22-rdf-syntax-ns#"
   xmlns:svg="http://www.w3.org/2000/svg"
   xmlns="http://www.w3.org/2000/svg"
   xmlns:xlink="http://www.w3.org/1999/xlink"
   xmlns:sodipodi="http://sodipodi.sourceforge.net/DTD/sodipodi-0.dtd"
   xmlns:inkscape="http://www.inkscape.org/namespaces/inkscape"
   width="50"
   height="50"
   id="svg2"
   sodipodi:version="0.32"
   inkscape:version="0.48.2 r9819"
   version="1.0"
   sodipodi:docname="slime-sombrero.svg"
   inkscape:output_extension="org.inkscape.output.svg.inkscape"
   inkscape:export-filename="/home/guillaume/Documents/gamers associate/labo break/png/wait-v-1.png"
   inkscape:export-xdpi="90"
   inkscape:export-ydpi="90">
  <defs
     id="defs4">
    <linearGradient
       id="linearGradient3169">
      <stop
         style="stop-color:#ffffff;stop-opacity:1;"
         offset="0"
         id="stop3171" />
      <stop
         style="stop-color:#00aa36;stop-opacity:1;"
         offset="1"
         id="stop3173" />
    </linearGradient>
    <inkscape:perspective
       sodipodi:type="inkscape:persp3d"
       inkscape:vp_x="0 : 526.18109 : 1"
       inkscape:vp_y="0 : 1000 : 0"
       inkscape:vp_z="744.09448 : 526.18109 : 1"
       inkscape:persp3d-origin="372.04724 : 350.78739 : 1"
       id="perspective10" />
    <radialGradient
       inkscape:collect="always"
       xlink:href="#linearGradient3169"
       id="radialGradient3009"
       gradientUnits="userSpaceOnUse"
       gradientTransform="matrix(0.7038326,0.0221994,-0.04159285,1.3187024,19.435796,-6.5408101)"
       cx="17.373365"
       cy="14.079686"
       fx="17.373365"
       fy="14.079686"
       r="8.2885695" />
  </defs>
  <sodipodi:namedview
     id="base"
     pagecolor="#ffffff"
     bordercolor="#666666"
     borderopacity="1.0"
     inkscape:pageopacity="0.0"
     inkscape:pageshadow="2"
     inkscape:zoom="14.960001"
     inkscape:cx="27.980596"
     inkscape:cy="3.2910506"
     inkscape:document-units="px"
     inkscape:current-layer="layer1"
     showgrid="false"
     inkscape:window-width="1280"
     inkscape:window-height="776"
     inkscape:window-x="0"
     inkscape:window-y="24"
     fit-margin-top="0"
     fit-margin-left="0"
     fit-margin-right="0"
     fit-margin-bottom="0"
     inkscape:window-maximized="1"
     showguides="true"
     inkscape:guide-bbox="true" />
  <metadata
     id="metadata7">
    <rdf:RDF>
      <cc:Work
         rdf:about="">
        <dc:format>image/svg+xml</dc:format>
        <dc:type
           rdf:resource="http://purl.org/dc/dcmitype/StillImage" />
        <dc:title></dc:title>
      </cc:Work>
    </rdf:RDF>
  </metadata>
  <g
     inkscape:label="Calque 1"
     inkscape:groupmode="layer"
     id="layer1"
     transform="translate(-4.125,20.138)">
    <path
       style="fill:#e2a23d;fill-opacity:1;stroke:#6e4518;stroke-width:1.5;stroke-linecap:butt;stroke-linejoin:miter;stroke-miterlimit:4;stroke-opacity:1;stroke-dasharray:none"
       d="M 24.100767,7.756281 36.29836,8.375 C 35.671611,5.101969 35.709596,2.543334 34.618982,-2.585156 33.897079,-5.327312 29.6645,-5.883128 26.310477,-1.347719 c -1.244304,3.859625 -1.195165,5.244375 -2.20971,9.104 z"
       id="path3036"
       inkscape:connector-curvature="0"
       sodipodi:nodetypes="ccccc" />
    <path
       style="fill:#936a4f;fill-opacity:1;stroke:#6e4518;stroke-width:1.5;stroke-linecap:butt;stroke-linejoin:miter;stroke-miterlimit:4;stroke-opacity:1;stroke-dasharray:none"
       d="m 10.479113,31.526835 c 10.892659,2.223634 21.202081,2.224134 32.566014,0.441941 0,0 1.281501,-3.088018 -0.362108,-3.596257 -9.313839,-2.295561 -23.662587,-2.789226 -32.7806435,-0.561052 -1.8944603,0.488306 0.5767375,3.715368 0.5767375,3.715368 z"
       id="path3827"
       inkscape:connector-curvature="0"
       transform="translate(4.125,-20.138)"
       sodipodi:nodetypes="ccccc" />
    <path
       style="fill:url(#radialGradient3009);fill-opacity:1;fill-rule:evenodd;stroke:#003e08;stroke-width:1.5;stroke-linecap:butt;stroke-linejoin:miter;stroke-miterlimit:4;stroke-opacity:1;stroke-dasharray:none"
       d="m 22.682001,27.052 c 0.555908,-1.383297 0.767709,-18.2039875 2.221211,-19.8893077 1.477621,-1.713287 4.052216,-1.5987586 5.125827,-1.5929219 2.736225,0.013854 4.751631,1.5205098 6.11809,3.1592386 0.611532,1.941141 0.701301,16.087333 1.11201,18.447991 -1.582438,0.632106 -2.588176,0.995054 -4.259864,0.804058 -0.869186,0.0021 -2.654199,0.357987 -3.670026,0.335641 -1.015827,-0.02235 -2.554698,-0.519667 -3.636093,-0.559399 -1.081395,-0.03973 -2.295623,-0.195233 -3.011155,-0.7053 z"
       id="path3155"
       sodipodi:nodetypes="czsccczzc"
       inkscape:connector-curvature="0" />
    <path
       style="fill:#e2a23d;fill-opacity:1;stroke:#6e4518;stroke-width:1.5;stroke-linecap:butt;stroke-linejoin:miter;stroke-miterlimit:4;stroke-opacity:1;stroke-dasharray:none"
       d="m 5.7888123,25.440699 c -0.2935634,1.703074 1.7380261,3.728621 3.2547155,5.483365 0.4086258,0.355922 1.9528202,0.983445 2.4708042,0.463924 2.403285,-2.410419 25.839502,-2.037847 29.243751,0.432244 0.517969,0.375833 2.730796,0.312188 2.876868,-0.109744 1.693464,-1.313221 3.595897,-3.952403 3.762193,-5.352741 0.02801,-0.235882 -0.199743,-0.454463 -0.621731,-0.684094 C 31.925312,21.82974 21.254143,21.167009 6.4640261,24.783126 6.2044782,24.846585 6.0256384,25.033121 5.7888123,25.440699 z"
       id="path3825"
       inkscape:connector-curvature="0"
       transform="translate(4.125,-20.138)"
       sodipodi:nodetypes="ccsscscsc" />
    <path
       style="fill:none;stroke:#bd0d0d;stroke-width:1.5;stroke-linecap:round;stroke-linejoin:round;stroke-miterlimit:4;stroke-opacity:1;stroke-dasharray:none"
       d="M 14.459697,10.124562 C 19.363304,7.7884646 38.375912,8.0015185 46.5183,10.828556"
       id="path3873"
       inkscape:connector-curvature="0"
       sodipodi:nodetypes="cc" />
    <path
       style="fill:#bd0d0d;fill-opacity:1;stroke:#bd0d0d;stroke-width:1px;stroke-linecap:round;stroke-linejoin:round;stroke-opacity:1"
       d="m 24.718751,28.421874 c 0,0 0.693648,-3.739658 1.596599,-3.754319 0.902951,-0.01466 1.653401,3.816819 1.653401,3.816819 -1.083333,-0.08349 -2.166667,-0.104005 -3.25,-0.0625 z"
       id="path3881"
       inkscape:connector-curvature="0"
       transform="translate(4.125,-20.138)"
       sodipodi:nodetypes="czcc" />
    <path
       style="fill:#bd0d0d;fill-opacity:1;stroke:#bd0d0d;stroke-width:1px;stroke-linecap:round;stroke-linejoin:round;stroke-opacity:1"
       d="m 36.250001,8.4870388 c 0,0 1.381816,-3.0508168 2.284767,-3.0654778 0.902951,-0.01466 0.887108,3.3623528 0.887108,3.3623528 -1.145833,-0.224115 -1.947917,-0.197755 -3.171875,-0.296875 z"
       id="path3881-9"
       inkscape:connector-curvature="0"
       sodipodi:nodetypes="czcc" />
    <path
       style="fill:#bd0d0d;fill-opacity:1;stroke:#bd0d0d;stroke-width:1px;stroke-linecap:round;stroke-linejoin:round;stroke-opacity:1"
       d="m 43.243508,9.0394436 c 0,0 1.803315,-2.8595821 2.628141,-2.6711181 0.824826,0.188464 0.153109,3.2961181 0.153109,3.2961181 -1.098958,-0.33349 -1.588542,-0.479005 -2.78125,-0.625 z"
       id="path3881-96"
       inkscape:connector-curvature="0"
       sodipodi:nodetypes="czcc" />
    <path
       style="fill:#bd0d0d;fill-opacity:1;stroke:#bd0d0d;stroke-width:1px;stroke-linecap:round;stroke-linejoin:round;stroke-opacity:1"
       d="m 24.490007,8.3580455 c 0,0 -1.57933,-3.3713858 -2.480856,-3.4241787 C 21.107626,4.8810748 21.308422,8.52066 21.308422,8.52066 22.4627,8.3451507 23.262954,8.405371 24.490007,8.3580455 z"
       id="path3881-9-5"
       inkscape:connector-curvature="0"
       sodipodi:nodetypes="czcc" />
    <g
       id="g3030">
      <path
         transform="matrix(1.3270525,0,0,1.3135112,10.982027,-0.705528)"
         d="m 14.002637,8.1084957 c 0,2.1408963 -1.71783,3.8764363 -3.836881,3.8764363 -2.1190505,0 -3.8368805,-1.73554 -3.8368805,-3.8764363 0,-2.1408965 1.71783,-3.876436 3.8368805,-3.876436 2.119051,0 3.836881,1.7355395 3.836881,3.876436 z"
         sodipodi:ry="3.876436"
         sodipodi:rx="3.8368807"
         sodipodi:cy="8.1084957"
         sodipodi:cx="10.165756"
         id="path3157"
         style="fill:#fff5f4;fill-opacity:1;stroke:#003e08;stroke-width:1.13613594;stroke-linecap:round;stroke-linejoin:round;stroke-miterlimit:4;stroke-opacity:1;stroke-dasharray:none;stroke-dashoffset:0"
         sodipodi:type="arc" />
      <path
         transform="matrix(1.4091964,0,0,1.4091964,5.6473321,-1.0287937)"
         d="m 23.57506,9.3347158 c 0,0.9393732 -0.708383,1.7008852 -1.582218,1.7008852 -0.873836,0 -1.582219,-0.761512 -1.582219,-1.7008852 0,-0.9393729 0.708383,-1.7008851 1.582219,-1.7008851 0.873835,0 1.582218,0.7615122 1.582218,1.7008851 z"
         sodipodi:ry="1.7008852"
         sodipodi:rx="1.5822188"
         sodipodi:cy="9.3347158"
         sodipodi:cx="21.992842"
         id="path3159"
         style="fill:#ffffff;fill-opacity:1;stroke:#003e08;stroke-width:1.06443644;stroke-linecap:round;stroke-linejoin:round;stroke-miterlimit:4;stroke-opacity:1;stroke-dasharray:none;stroke-dashoffset:0"
         sodipodi:type="arc" />
      <path
         transform="matrix(0.9711572,0,0,0.9711572,42.612436,-5.7724347)"
         d="m -18.90768,16.057133 c 0,0.154473 -0.125226,0.279699 -0.2797,0.279699 -0.154474,0 -0.279699,-0.125226 -0.279699,-0.279699 0,-0.154474 0.125225,-0.2797 0.279699,-0.2797 0.154474,0 0.2797,0.125226 0.2797,0.2797 z"
         sodipodi:ry="0.27969941"
         sodipodi:rx="0.27969941"
         sodipodi:cy="16.057133"
         sodipodi:cx="-19.18738"
         id="path3177"
         style="fill:#000000;fill-opacity:1;stroke:#000000;stroke-width:1.5;stroke-linecap:round;stroke-linejoin:round;stroke-miterlimit:4;stroke-opacity:1;stroke-dasharray:none;stroke-dashoffset:0"
         sodipodi:type="arc" />
      <path
         transform="matrix(0.7283679,0,0,0.7283679,50.333627,0.389902)"
         d="m -18.90768,16.057133 c 0,0.154473 -0.125226,0.279699 -0.2797,0.279699 -0.154474,0 -0.279699,-0.125226 -0.279699,-0.279699 0,-0.154474 0.125225,-0.2797 0.279699,-0.2797 0.154474,0 0.2797,0.125226 0.2797,0.2797 z"
         sodipodi:ry="0.27969941"
         sodipodi:rx="0.27969941"
         sodipodi:cy="16.057133"
         sodipodi:cx="-19.18738"
         id="path3179"
         style="fill:#000000;fill-opacity:1;stroke:#000000;stroke-width:1.5;stroke-linecap:round;stroke-linejoin:round;stroke-miterlimit:4;stroke-opacity:1;stroke-dasharray:none;stroke-dashoffset:0"
         sodipodi:type="arc" />
    </g>
    <path
       style="fill:#bd0d0d;fill-opacity:1;stroke:#bd0d0d;stroke-width:1px;stroke-linecap:round;stroke-linejoin:round;stroke-opacity:1"
       d="m 17.415803,8.7215771 c 0,0 -1.668858,-3.0861468 -2.49989,-2.9272647 -0.831031,0.1588821 -0.301909,3.4525235 -0.301909,3.4525235 1.110168,-0.294024 1.604638,-0.4219588 2.801799,-0.5252588 z"
       id="path3881-96-7"
       inkscape:connector-curvature="0"
       sodipodi:nodetypes="czcc" />
    <path
       style="fill:#000000;fill-opacity:1;stroke:#000000;stroke-width:1px;stroke-linecap:round;stroke-linejoin:round;stroke-opacity:1;opacity:0.8"
       d="m 27.17,18.819047 c 0.592051,-0.122012 1.602383,-0.195231 2.619692,-0.189618 1.017309,0.0056 2.041596,0.09006 2.661558,0.283368 -0.964208,1.414301 -1.774706,2.542864 -2.84375,2.46875 -0.985253,-0.06364 -1.895012,-1.24024 -2.4375,-2.5625 z"
       id="path2993-4"
       inkscape:connector-curvature="0"
       sodipodi:nodetypes="csccc" />
  </g>
</svg>
