<?xml version="1.0" encoding="UTF-8" standalone="no"?>
<!-- Created with Inkscape (http://www.inkscape.org/) -->

<svg
   xmlns:dc="http://purl.org/dc/elements/1.1/"
   xmlns:cc="http://creativecommons.org/ns#"
   xmlns:rdf="http://www.w3.org/1999/02/22-rdf-syntax-ns#"
   xmlns:svg="http://www.w3.org/2000/svg"
   xmlns="http://www.w3.org/2000/svg"
   xmlns:xlink="http://www.w3.org/1999/xlink"
   xmlns:sodipodi="http://sodipodi.sourceforge.net/DTD/sodipodi-0.dtd"
   xmlns:inkscape="http://www.inkscape.org/namespaces/inkscape"
   width="125"
   height="85"
   id="svg4614"
   version="1.1"
   inkscape:version="0.48.2 r9819"
   sodipodi:docname="breaking-06.svg"
   inkscape:export-filename="/home/guillaume/Documents/gamers associate/labo break/base/red/png120/breaking-06.png"
   inkscape:export-xdpi="120"
   inkscape:export-ydpi="120">
  <defs
     id="defs4616">
    <radialGradient
       inkscape:collect="always"
       xlink:href="#linearGradient3169"
       id="radialGradient3898"
       gradientUnits="userSpaceOnUse"
       gradientTransform="matrix(2.4074118,-0.0205603,0.01110804,1.3006448,-44.68824,-22.887129)"
       cx="68.877106"
       cy="1.9344065"
       fx="68.877106"
       fy="1.9344065"
       r="36.199493" />
    <linearGradient
       id="linearGradient3169">
      <stop
         style="stop-color:#ead8be;stop-opacity:1;"
         offset="0"
         id="stop3171" />
      <stop
         style="stop-color:#c13c2a;stop-opacity:1;"
         offset="1"
         id="stop3173" />
    </linearGradient>
    <radialGradient
       r="36.199493"
       fy="1.9344065"
       fx="68.877106"
       cy="1.9344065"
       cx="68.877106"
       gradientTransform="matrix(2.4074118,-0.0205603,0.01110804,1.3006448,-79.55187,971.2765)"
       gradientUnits="userSpaceOnUse"
       id="radialGradient4656"
       xlink:href="#linearGradient3169"
       inkscape:collect="always" />
    <linearGradient
       id="linearGradient3169-8">
      <stop
         style="stop-color:#ead8be;stop-opacity:1;"
         offset="0"
         id="stop3171-1" />
      <stop
         style="stop-color:#c13c2a;stop-opacity:1;"
         offset="1"
         id="stop3173-6" />
    </linearGradient>
    <linearGradient
       id="linearGradient4431">
      <stop
         id="stop4433"
         offset="0"
         style="stop-color:#ccb192;stop-opacity:1;" />
      <stop
         id="stop4435"
         offset="1"
         style="stop-color:#853126;stop-opacity:1;" />
    </linearGradient>
    <radialGradient
       inkscape:collect="always"
       xlink:href="#linearGradient4425"
       id="radialGradient4409"
       gradientUnits="userSpaceOnUse"
       gradientTransform="matrix(2.4074118,-0.0205603,0.01110804,1.3006448,21.408178,476.62698)"
       cx="68.877106"
       cy="1.9344065"
       fx="68.877106"
       fy="1.9344065"
       r="36.199493" />
    <linearGradient
       id="linearGradient4425">
      <stop
         id="stop4427"
         offset="0"
         style="stop-color:#b29a90;stop-opacity:1;" />
      <stop
         id="stop4429"
         offset="1"
         style="stop-color:#6c2d24;stop-opacity:1;" />
    </linearGradient>
    <linearGradient
       id="linearGradient4398">
      <stop
         id="stop4400"
         offset="0"
         style="stop-color:#b5996f;stop-opacity:1;" />
      <stop
         id="stop4402"
         offset="1"
         style="stop-color:#772316;stop-opacity:1;" />
    </linearGradient>
    <radialGradient
       inkscape:collect="always"
       xlink:href="#linearGradient4398"
       id="radialGradient3799"
       gradientUnits="userSpaceOnUse"
       gradientTransform="matrix(2.4074118,-0.0205603,0.01110804,1.3006448,-80.99995,33.07972)"
       cx="68.877106"
       cy="1.9344065"
       fx="68.877106"
       fy="1.9344065"
       r="36.199493" />
  </defs>
  <sodipodi:namedview
     id="base"
     pagecolor="#ffffff"
     bordercolor="#666666"
     borderopacity="1.0"
     inkscape:pageopacity="0.0"
     inkscape:pageshadow="2"
     inkscape:zoom="5.4169666"
     inkscape:cx="88.249386"
     inkscape:cy="48.099176"
     inkscape:document-units="px"
     inkscape:current-layer="layer1"
     showgrid="false"
     inkscape:window-width="1280"
     inkscape:window-height="776"
     inkscape:window-x="0"
     inkscape:window-y="24"
     inkscape:window-maximized="1" />
  <metadata
     id="metadata4619">
    <rdf:RDF>
      <cc:Work
         rdf:about="">
        <dc:format>image/svg+xml</dc:format>
        <dc:type
           rdf:resource="http://purl.org/dc/dcmitype/StillImage" />
        <dc:title></dc:title>
      </cc:Work>
    </rdf:RDF>
  </metadata>
  <g
     inkscape:label="Calque 1"
     inkscape:groupmode="layer"
     id="layer1"
     transform="translate(0,-967.36218)">
    <g
       id="g3978"
       transform="translate(-163.85832,8.8655626)">
      <path
         inkscape:connector-curvature="0"
         id="path3792-5-6-3-1-7-6-6"
         d="m 230.03759,1005.1617 c -1.98369,0.041 -4.17288,0.5003 -6.5625,1.4375 -1.54921,0.6077 -2.88855,1.3465 -4.03125,2.1875 -3.18852,-2.73 -8.26631,-4.008 -15.9375,-1.375 -15.6331,5.366 -15.25892,23.6569 -4.4375,27.8751 5.71932,2.2293 12.38747,-0.6563 17.40625,-4.7813 1.13814,1.7589 2.52782,3.0745 3.96875,3.6563 6.77852,2.7368 22.07117,-5.6389 23.6875,-12.3125 1.36379,-5.631 -3.38182,-16.9062 -14.09375,-16.6876 z"
         style="fill:#ffffff;fill-opacity:1;stroke:#4b2e2a;stroke-width:3;stroke-linecap:butt;stroke-linejoin:miter;stroke-miterlimit:4;stroke-opacity:1;stroke-dasharray:none" />
      <path
         transform="matrix(3.192748,0,0,3.192748,286.38163,970.9242)"
         d="m -18.90768,16.057133 c 0,0.154473 -0.125226,0.279699 -0.2797,0.279699 -0.154474,0 -0.279699,-0.125226 -0.279699,-0.279699 0,-0.154474 0.125225,-0.2797 0.279699,-0.2797 0.154474,0 0.2797,0.125226 0.2797,0.2797 z"
         sodipodi:ry="0.27969941"
         sodipodi:rx="0.27969941"
         sodipodi:cy="16.057133"
         sodipodi:cx="-19.18738"
         id="path3177-6-1-8-0-4-3-24"
         style="fill:#000000;fill-opacity:1;stroke:#000000;stroke-width:1.5;stroke-linecap:round;stroke-linejoin:round;stroke-miterlimit:4;stroke-opacity:1;stroke-dasharray:none;stroke-dashoffset:0"
         sodipodi:type="arc" />
      <path
         transform="matrix(3.192748,0,0,3.192748,269.01834,971.66703)"
         d="m -18.90768,16.057133 c 0,0.154473 -0.125226,0.279699 -0.2797,0.279699 -0.154474,0 -0.279699,-0.125226 -0.279699,-0.279699 0,-0.154474 0.125225,-0.2797 0.279699,-0.2797 0.154474,0 0.2797,0.125226 0.2797,0.2797 z"
         sodipodi:ry="0.27969941"
         sodipodi:rx="0.27969941"
         sodipodi:cy="16.057133"
         sodipodi:cx="-19.18738"
         id="path3177-6-1-8-0-4-3-2-2"
         style="fill:#000000;fill-opacity:1;stroke:#000000;stroke-width:1.5;stroke-linecap:round;stroke-linejoin:round;stroke-miterlimit:4;stroke-opacity:1;stroke-dasharray:none;stroke-dashoffset:0"
         sodipodi:type="arc" />
    </g>
    <path
       style="fill:url(#radialGradient3799);fill-opacity:1;stroke:#4b2e2a;stroke-width:3;stroke-linecap:round;stroke-linejoin:miter;stroke-miterlimit:2;stroke-opacity:1;stroke-dasharray:none"
       d="m 32.216517,38.14625 c -20.73896,5.45883 -20.134521,30.896688 -17.038816,37.342028 3.773355,7.856229 7.706334,6.881694 16.791049,7.855472 5.07012,0.2501 8.92929,-0.63055 14,-0.53125 1.413159,0.02779 2.823295,0.103315 4.25,0.1875 l 0.765067,-14.485597 7.739607,-15.315395 0,-13.65625 -0.96875,-0.0625 -5.25,5.33013 -2.375,7.40625 0.5625,-6.71875 -8.268816,5.475394 L 39.086924,60.54062 34.912112,80.532816 33.56027,54.740912 21.557375,63.27966 c 0,0 4.753375,-16.826068 10.315392,-24.47716 l 0.84375,0.125 0,-0.78125 c -8.470963,4.98954 -0.342829,-0.04137 -0.5,0 z m 58.559394,4.815453 -0.375,1.34375 9.812499,4.4375 5.4202,12.74421 c -0.78313,-0.2579 -9.243985,-6.773372 -10.708355,-7.449672 l -0.193289,14.336774 -6.10355,-17.671246 -10.971644,-5.122106 5.722759,11.548619 -2.270856,6.534145 -3.188022,0.717635 14.333879,10.193219 -13.368024,-4.975655 7.597831,11.095529 -12.02947,-10.075788 -6.0625,6.25 5.375,-7.09375 -10.778949,-9.950266 -5.574079,6.318883 0.357038,8.628488 10.267369,8.540528 c 3.451837,-0.229891 3.381389,-0.581229 6.742502,-0.53125 6.02125,0.09 11.853,0.26935 17.21875,0.71875 14.36614,-2.467578 19.83105,-3.539933 22.00861,-10.993166 2.2045,-7.545421 3.85412,-26.303267 -23.232699,-29.545131 z M 55.309012,77.229143 50.46875,83 c 2.906551,0.174935 5.825089,0.422877 8.75,0.5 1.613101,0.04254 6.744088,-0.05665 8.351248,-0.15625 z"
       transform="translate(0,967.36218)"
       id="path2993-3-9-0-2-4"
       inkscape:connector-curvature="0"
       sodipodi:nodetypes="ssccccccccccccccccccscccccccccccccccccccccccscccscc" />
    <g
       id="g3943"
       transform="translate(0,4)">
      <path
         inkscape:connector-curvature="0"
         id="path3792-5-6-3-1-7-6"
         d="m 66.17909,1010.0276 c -1.98369,0.041 -4.17288,0.5003 -6.5625,1.4375 -1.54921,0.6077 -2.88855,1.3465 -4.03125,2.1875 -3.18852,-2.73 -8.26631,-4.008 -15.9375,-1.375 -15.6331,5.366 -15.25892,23.6569 -4.4375,27.8751 5.71932,2.2293 12.38747,-0.6563 17.40625,-4.7813 1.13814,1.7589 2.52782,3.0745 3.96875,3.6563 6.77852,2.7368 22.07117,-5.6389 23.6875,-12.3125 1.36379,-5.631 -3.38182,-16.9062 -14.09375,-16.6876 z"
         style="opacity:0.3;fill:#ffffff;fill-opacity:1;stroke:#4b2e2a;stroke-width:3;stroke-linecap:butt;stroke-linejoin:miter;stroke-miterlimit:4;stroke-opacity:1;stroke-dasharray:none" />
      <path
         transform="matrix(3.192748,0,0,3.192748,122.52313,975.7901)"
         d="m -18.90768,16.057133 c 0,0.154473 -0.125226,0.279699 -0.2797,0.279699 -0.154474,0 -0.279699,-0.125226 -0.279699,-0.279699 0,-0.154474 0.125225,-0.2797 0.279699,-0.2797 0.154474,0 0.2797,0.125226 0.2797,0.2797 z"
         sodipodi:ry="0.27969941"
         sodipodi:rx="0.27969941"
         sodipodi:cy="16.057133"
         sodipodi:cx="-19.18738"
         id="path3177-6-1-8-0-4-3"
         style="opacity:0.3;fill:#000000;fill-opacity:1;stroke:#000000;stroke-width:1.5;stroke-linecap:round;stroke-linejoin:round;stroke-miterlimit:4;stroke-opacity:1;stroke-dasharray:none;stroke-dashoffset:0"
         sodipodi:type="arc" />
      <path
         transform="matrix(3.192748,0,0,3.192748,105.15984,976.53293)"
         d="m -18.90768,16.057133 c 0,0.154473 -0.125226,0.279699 -0.2797,0.279699 -0.154474,0 -0.279699,-0.125226 -0.279699,-0.279699 0,-0.154474 0.125225,-0.2797 0.279699,-0.2797 0.154474,0 0.2797,0.125226 0.2797,0.2797 z"
         sodipodi:ry="0.27969941"
         sodipodi:rx="0.27969941"
         sodipodi:cy="16.057133"
         sodipodi:cx="-19.18738"
         id="path3177-6-1-8-0-4-3-2"
         style="opacity:0.3;fill:#000000;fill-opacity:1;stroke:#000000;stroke-width:1.5;stroke-linecap:round;stroke-linejoin:round;stroke-miterlimit:4;stroke-opacity:1;stroke-dasharray:none;stroke-dashoffset:0"
         sodipodi:type="arc" />
    </g>
  </g>
</svg>
