<?xml version="1.0" encoding="UTF-8" standalone="no"?>
<!-- Created with Inkscape (http://www.inkscape.org/) -->

<svg
   xmlns:dc="http://purl.org/dc/elements/1.1/"
   xmlns:cc="http://creativecommons.org/ns#"
   xmlns:rdf="http://www.w3.org/1999/02/22-rdf-syntax-ns#"
   xmlns:svg="http://www.w3.org/2000/svg"
   xmlns="http://www.w3.org/2000/svg"
   xmlns:xlink="http://www.w3.org/1999/xlink"
   xmlns:sodipodi="http://sodipodi.sourceforge.net/DTD/sodipodi-0.dtd"
   xmlns:inkscape="http://www.inkscape.org/namespaces/inkscape"
   width="125"
   height="85"
   id="svg4614"
   version="1.1"
   inkscape:version="0.48.2 r9819"
   sodipodi:docname="breaking-05.svg"
   inkscape:export-filename="/home/guillaume/Documents/gamers associate/labo break/base/red/png120/breaking-05.png"
   inkscape:export-xdpi="120"
   inkscape:export-ydpi="120">
  <defs
     id="defs4616">
    <radialGradient
       inkscape:collect="always"
       xlink:href="#linearGradient3169"
       id="radialGradient3898"
       gradientUnits="userSpaceOnUse"
       gradientTransform="matrix(2.4074118,-0.0205603,0.01110804,1.3006448,-44.68824,-22.887129)"
       cx="68.877106"
       cy="1.9344065"
       fx="68.877106"
       fy="1.9344065"
       r="36.199493" />
    <linearGradient
       id="linearGradient3169">
      <stop
         style="stop-color:#ead8be;stop-opacity:1;"
         offset="0"
         id="stop3171" />
      <stop
         style="stop-color:#c13c2a;stop-opacity:1;"
         offset="1"
         id="stop3173" />
    </linearGradient>
    <radialGradient
       r="36.199493"
       fy="1.9344065"
       fx="68.877106"
       cy="1.9344065"
       cx="68.877106"
       gradientTransform="matrix(2.4074118,-0.0205603,0.01110804,1.3006448,-79.55187,971.2765)"
       gradientUnits="userSpaceOnUse"
       id="radialGradient4656"
       xlink:href="#linearGradient3169"
       inkscape:collect="always" />
    <linearGradient
       id="linearGradient3169-8">
      <stop
         style="stop-color:#ead8be;stop-opacity:1;"
         offset="0"
         id="stop3171-1" />
      <stop
         style="stop-color:#c13c2a;stop-opacity:1;"
         offset="1"
         id="stop3173-6" />
    </linearGradient>
    <linearGradient
       id="linearGradient4431">
      <stop
         id="stop4433"
         offset="0"
         style="stop-color:#ccb192;stop-opacity:1;" />
      <stop
         id="stop4435"
         offset="1"
         style="stop-color:#853126;stop-opacity:1;" />
    </linearGradient>
    <radialGradient
       inkscape:collect="always"
       xlink:href="#linearGradient4425"
       id="radialGradient4409"
       gradientUnits="userSpaceOnUse"
       gradientTransform="matrix(2.4074118,-0.0205603,0.01110804,1.3006448,21.408178,476.62698)"
       cx="68.877106"
       cy="1.9344065"
       fx="68.877106"
       fy="1.9344065"
       r="36.199493" />
    <linearGradient
       id="linearGradient4425">
      <stop
         id="stop4427"
         offset="0"
         style="stop-color:#b29a90;stop-opacity:1;" />
      <stop
         id="stop4429"
         offset="1"
         style="stop-color:#6c2d24;stop-opacity:1;" />
    </linearGradient>
    <linearGradient
       id="linearGradient4398">
      <stop
         id="stop4400"
         offset="0"
         style="stop-color:#b5996f;stop-opacity:1;" />
      <stop
         id="stop4402"
         offset="1"
         style="stop-color:#772316;stop-opacity:1;" />
    </linearGradient>
    <radialGradient
       inkscape:collect="always"
       xlink:href="#linearGradient4398"
       id="radialGradient3799"
       gradientUnits="userSpaceOnUse"
       gradientTransform="matrix(2.4074118,-0.0205603,0.01110804,1.3006448,-80.99995,33.07972)"
       cx="68.877106"
       cy="1.9344065"
       fx="68.877106"
       fy="1.9344065"
       r="36.199493" />
  </defs>
  <sodipodi:namedview
     id="base"
     pagecolor="#ffffff"
     bordercolor="#666666"
     borderopacity="1.0"
     inkscape:pageopacity="0.0"
     inkscape:pageshadow="2"
     inkscape:zoom="5.4169666"
     inkscape:cx="88.249386"
     inkscape:cy="48.099176"
     inkscape:document-units="px"
     inkscape:current-layer="layer1"
     showgrid="false"
     inkscape:window-width="1280"
     inkscape:window-height="776"
     inkscape:window-x="0"
     inkscape:window-y="24"
     inkscape:window-maximized="1" />
  <metadata
     id="metadata4619">
    <rdf:RDF>
      <cc:Work
         rdf:about="">
        <dc:format>image/svg+xml</dc:format>
        <dc:type
           rdf:resource="http://purl.org/dc/dcmitype/StillImage" />
        <dc:title></dc:title>
      </cc:Work>
    </rdf:RDF>
  </metadata>
  <g
     inkscape:label="Calque 1"
     inkscape:groupmode="layer"
     id="layer1"
     transform="translate(0,-967.36218)">
    <g
       id="g3978"
       transform="translate(-163.85832,6.8655626)">
      <path
         inkscape:connector-curvature="0"
         id="path3792-5-6-3-1-7-6-6"
         d="m 230.03759,1005.1617 c -1.98369,0.041 -4.17288,0.5003 -6.5625,1.4375 -1.54921,0.6077 -2.88855,1.3465 -4.03125,2.1875 -3.18852,-2.73 -8.26631,-4.008 -15.9375,-1.375 -15.6331,5.366 -15.25892,23.6569 -4.4375,27.8751 5.71932,2.2293 12.38747,-0.6563 17.40625,-4.7813 1.13814,1.7589 2.52782,3.0745 3.96875,3.6563 6.77852,2.7368 22.07117,-5.6389 23.6875,-12.3125 1.36379,-5.631 -3.38182,-16.9062 -14.09375,-16.6876 z"
         style="fill:#ffffff;fill-opacity:1;stroke:#4b2e2a;stroke-width:3;stroke-linecap:butt;stroke-linejoin:miter;stroke-miterlimit:4;stroke-opacity:1;stroke-dasharray:none" />
      <path
         transform="matrix(3.192748,0,0,3.192748,286.38163,970.9242)"
         d="m -18.90768,16.057133 c 0,0.154473 -0.125226,0.279699 -0.2797,0.279699 -0.154474,0 -0.279699,-0.125226 -0.279699,-0.279699 0,-0.154474 0.125225,-0.2797 0.279699,-0.2797 0.154474,0 0.2797,0.125226 0.2797,0.2797 z"
         sodipodi:ry="0.27969941"
         sodipodi:rx="0.27969941"
         sodipodi:cy="16.057133"
         sodipodi:cx="-19.18738"
         id="path3177-6-1-8-0-4-3-24"
         style="fill:#000000;fill-opacity:1;stroke:#000000;stroke-width:1.5;stroke-linecap:round;stroke-linejoin:round;stroke-miterlimit:4;stroke-opacity:1;stroke-dasharray:none;stroke-dashoffset:0"
         sodipodi:type="arc" />
      <path
         transform="matrix(3.192748,0,0,3.192748,269.01834,971.66703)"
         d="m -18.90768,16.057133 c 0,0.154473 -0.125226,0.279699 -0.2797,0.279699 -0.154474,0 -0.279699,-0.125226 -0.279699,-0.279699 0,-0.154474 0.125225,-0.2797 0.279699,-0.2797 0.154474,0 0.2797,0.125226 0.2797,0.2797 z"
         sodipodi:ry="0.27969941"
         sodipodi:rx="0.27969941"
         sodipodi:cy="16.057133"
         sodipodi:cx="-19.18738"
         id="path3177-6-1-8-0-4-3-2-2"
         style="fill:#000000;fill-opacity:1;stroke:#000000;stroke-width:1.5;stroke-linecap:round;stroke-linejoin:round;stroke-miterlimit:4;stroke-opacity:1;stroke-dasharray:none;stroke-dashoffset:0"
         sodipodi:type="arc" />
    </g>
    <path
       style="fill:url(#radialGradient3799);fill-opacity:1;stroke:#4b2e2a;stroke-width:3;stroke-linecap:round;stroke-linejoin:miter;stroke-miterlimit:2;stroke-opacity:1;stroke-dasharray:none"
       d="M 48.830982,30.946649 C 16.092686,32.15956 14.125914,53.766885 13.700859,60.90447 c -0.442744,7.434619 2.486922,17.214537 18.267891,22.43928 5.07012,0.2501 8.92929,-0.63055 14,-0.53125 1.413159,0.02779 2.823295,0.103315 4.25,0.1875 l 3.71875,-23.53125 4.97053,-10.884871 0,-13.65625 -0.96875,-0.0625 -5.25,5.33013 -2.375,7.40625 0.5625,-6.71875 -8.268816,5.475394 L 39.15803,65.025982 37.436978,48.464336 26.172504,50.726509 C 35.269572,42.62768 37.75627,38.88478 48.487232,31.602899 l 0.84375,0.125 0,-0.78125 c -0.163731,0.0052 -0.337587,-0.006 -0.5,0 z m 27.545726,3.154006 -0.375,1.34375 9.8125,4.4375 19.819402,21.605258 C 104.85048,61.229263 87.897788,47.8834 86.433418,47.2071 l -0.5625,9.90625 -0.75,-10.65625 -10.971644,-5.122106 3.322892,9.333357 -2.086251,6.164935 0.319476,4.963554 9.71875,0.59375 -8.9375,0.5625 9.997698,17.741315 -12.02947,-10.075788 -6.0625,6.25 5.375,-7.09375 -8.748292,-14.75 -5.574079,6.318883 -2.78125,10.84375 11.375,11.125 C 71.490585,83.082609 71.420137,82.731271 74.78125,82.78125 80.8025,82.87125 86.63425,83.0506 92,83.5 106.36614,81.032422 108.87737,71.283624 108.47046,62.538155 108.1051,54.685787 103.46353,37.342519 76.376708,34.100655 z M 56.601248,73.90625 50.46875,83 c 2.906551,0.174935 5.825089,0.422877 8.75,0.5 1.613101,0.04254 6.744088,-0.05665 8.351248,-0.15625 z"
       transform="translate(0,967.36218)"
       id="path2993-3-9-0-2-4"
       inkscape:connector-curvature="0"
       sodipodi:nodetypes="sscccccccccccccccccscccccccccccccccccccccccscccscc" />
    <g
       id="g3943"
       transform="translate(0,2)">
      <path
         inkscape:connector-curvature="0"
         id="path3792-5-6-3-1-7-6"
         d="m 66.17909,1010.0276 c -1.98369,0.041 -4.17288,0.5003 -6.5625,1.4375 -1.54921,0.6077 -2.88855,1.3465 -4.03125,2.1875 -3.18852,-2.73 -8.26631,-4.008 -15.9375,-1.375 -15.6331,5.366 -15.25892,23.6569 -4.4375,27.8751 5.71932,2.2293 12.38747,-0.6563 17.40625,-4.7813 1.13814,1.7589 2.52782,3.0745 3.96875,3.6563 6.77852,2.7368 22.07117,-5.6389 23.6875,-12.3125 1.36379,-5.631 -3.38182,-16.9062 -14.09375,-16.6876 z"
         style="opacity:0.3;fill:#ffffff;fill-opacity:1;stroke:#4b2e2a;stroke-width:3;stroke-linecap:butt;stroke-linejoin:miter;stroke-miterlimit:4;stroke-opacity:1;stroke-dasharray:none" />
      <path
         transform="matrix(3.192748,0,0,3.192748,122.52313,975.7901)"
         d="m -18.90768,16.057133 c 0,0.154473 -0.125226,0.279699 -0.2797,0.279699 -0.154474,0 -0.279699,-0.125226 -0.279699,-0.279699 0,-0.154474 0.125225,-0.2797 0.279699,-0.2797 0.154474,0 0.2797,0.125226 0.2797,0.2797 z"
         sodipodi:ry="0.27969941"
         sodipodi:rx="0.27969941"
         sodipodi:cy="16.057133"
         sodipodi:cx="-19.18738"
         id="path3177-6-1-8-0-4-3"
         style="opacity:0.3;fill:#000000;fill-opacity:1;stroke:#000000;stroke-width:1.5;stroke-linecap:round;stroke-linejoin:round;stroke-miterlimit:4;stroke-opacity:1;stroke-dasharray:none;stroke-dashoffset:0"
         sodipodi:type="arc" />
      <path
         transform="matrix(3.192748,0,0,3.192748,105.15984,976.53293)"
         d="m -18.90768,16.057133 c 0,0.154473 -0.125226,0.279699 -0.2797,0.279699 -0.154474,0 -0.279699,-0.125226 -0.279699,-0.279699 0,-0.154474 0.125225,-0.2797 0.279699,-0.2797 0.154474,0 0.2797,0.125226 0.2797,0.2797 z"
         sodipodi:ry="0.27969941"
         sodipodi:rx="0.27969941"
         sodipodi:cy="16.057133"
         sodipodi:cx="-19.18738"
         id="path3177-6-1-8-0-4-3-2"
         style="opacity:0.3;fill:#000000;fill-opacity:1;stroke:#000000;stroke-width:1.5;stroke-linecap:round;stroke-linejoin:round;stroke-miterlimit:4;stroke-opacity:1;stroke-dasharray:none;stroke-dashoffset:0"
         sodipodi:type="arc" />
    </g>
  </g>
</svg>
