<?xml version="1.0" encoding="UTF-8" standalone="no"?>
<!-- Created with Inkscape (http://www.inkscape.org/) -->

<svg
   xmlns:dc="http://purl.org/dc/elements/1.1/"
   xmlns:cc="http://creativecommons.org/ns#"
   xmlns:rdf="http://www.w3.org/1999/02/22-rdf-syntax-ns#"
   xmlns:svg="http://www.w3.org/2000/svg"
   xmlns="http://www.w3.org/2000/svg"
   xmlns:xlink="http://www.w3.org/1999/xlink"
   xmlns:sodipodi="http://sodipodi.sourceforge.net/DTD/sodipodi-0.dtd"
   xmlns:inkscape="http://www.inkscape.org/namespaces/inkscape"
   width="125"
   height="85"
   id="svg4614"
   version="1.1"
   inkscape:version="0.48.2 r9819"
   sodipodi:docname="wait-01.svg">
  <defs
     id="defs4616">
    <radialGradient
       inkscape:collect="always"
       xlink:href="#linearGradient3169"
       id="radialGradient3898"
       gradientUnits="userSpaceOnUse"
       gradientTransform="matrix(2.4074118,-0.0205603,0.01110804,1.3006448,-44.68824,-22.887129)"
       cx="68.877106"
       cy="1.9344065"
       fx="68.877106"
       fy="1.9344065"
       r="36.199493" />
    <linearGradient
       id="linearGradient3169">
      <stop
         style="stop-color:#ead8be;stop-opacity:1;"
         offset="0"
         id="stop3171" />
      <stop
         style="stop-color:#c13c2a;stop-opacity:1;"
         offset="1"
         id="stop3173" />
    </linearGradient>
    <radialGradient
       r="36.199493"
       fy="1.9344065"
       fx="68.877106"
       cy="1.9344065"
       cx="68.877106"
       gradientTransform="matrix(2.4074118,-0.0205603,0.01110804,1.3006448,-79.55187,971.2765)"
       gradientUnits="userSpaceOnUse"
       id="radialGradient4656"
       xlink:href="#linearGradient3169"
       inkscape:collect="always" />
    <radialGradient
       inkscape:collect="always"
       xlink:href="#linearGradient3169-8"
       id="radialGradient3898-9"
       gradientUnits="userSpaceOnUse"
       gradientTransform="matrix(2.4074118,-0.0205603,0.01110804,1.3006448,-44.68824,-22.887129)"
       cx="68.877106"
       cy="1.9344065"
       fx="68.877106"
       fy="1.9344065"
       r="36.199493" />
    <linearGradient
       id="linearGradient3169-8">
      <stop
         style="stop-color:#ead8be;stop-opacity:1;"
         offset="0"
         id="stop3171-1" />
      <stop
         style="stop-color:#c13c2a;stop-opacity:1;"
         offset="1"
         id="stop3173-6" />
    </linearGradient>
    <radialGradient
       inkscape:collect="always"
       xlink:href="#linearGradient4431"
       id="radialGradient4422"
       gradientUnits="userSpaceOnUse"
       gradientTransform="matrix(2.4074118,-0.0205603,0.01110804,1.3006448,-135.33338,475.5966)"
       cx="68.877106"
       cy="1.9344065"
       fx="68.877106"
       fy="1.9344065"
       r="36.199493" />
    <linearGradient
       id="linearGradient4431">
      <stop
         id="stop4433"
         offset="0"
         style="stop-color:#ccb192;stop-opacity:1;" />
      <stop
         id="stop4435"
         offset="1"
         style="stop-color:#853126;stop-opacity:1;" />
    </linearGradient>
  </defs>
  <sodipodi:namedview
     id="base"
     pagecolor="#ffffff"
     bordercolor="#666666"
     borderopacity="1.0"
     inkscape:pageopacity="0.0"
     inkscape:pageshadow="2"
     inkscape:zoom="3.8303738"
     inkscape:cx="11.910454"
     inkscape:cy="32.314261"
     inkscape:document-units="px"
     inkscape:current-layer="layer1"
     showgrid="false"
     inkscape:window-width="1280"
     inkscape:window-height="776"
     inkscape:window-x="0"
     inkscape:window-y="24"
     inkscape:window-maximized="1" />
  <metadata
     id="metadata4619">
    <rdf:RDF>
      <cc:Work
         rdf:about="">
        <dc:format>image/svg+xml</dc:format>
        <dc:type
           rdf:resource="http://purl.org/dc/dcmitype/StillImage" />
        <dc:title></dc:title>
      </cc:Work>
    </rdf:RDF>
  </metadata>
  <g
     inkscape:label="Calque 1"
     inkscape:groupmode="layer"
     id="layer1"
     transform="translate(0,-967.36218)">
    <g
       transform="translate(54.066747,524.8453)"
       id="g5364">
      <path
         sodipodi:nodetypes="csssczzzc"
         inkscape:connector-curvature="0"
         id="path2993-3-9-0-2-5"
         d="m -22.370302,525.86746 c 5.07012,0.25012 8.9277,-0.64457 13.99841,-0.54527 4.37313,0.0856 8.82497,0.5635 13.269806,0.68069 5.237034,0.13807 10.464344,-0.79236 15.541734,-0.71692 6.02125,0.0895 11.87585,0.26753 17.2416,0.71692 15.8121,-2.81086 21.76392,-23.00287 21.06782,-35.75 -0.6961,-12.74713 -10.48381,-33.7723 -50.143843,-33.70633 -39.660037,0.066 -48.783167,15.31294 -50.358117,33.6165 -1.57496,18.30355 7.14373,30.80672 19.38259,35.70441 z"
         style="fill:url(#radialGradient4422);fill-opacity:1;stroke:#4b2e2a;stroke-width:3;stroke-linecap:butt;stroke-linejoin:miter;stroke-miterlimit:4;stroke-opacity:1;stroke-dasharray:none" />
      <path
         inkscape:connector-curvature="0"
         id="path3792-5-6-3-1-7-1"
         transform="translate(-0.10872212,-54.818519)"
         d="m 11.25,528.90625 c -1.98369,0.0405 -4.1728795,0.46898 -6.5625,1.40625 -3.2529247,1.27588 -5.5659349,3.12215 -7.125,5.28125 -2.6906244,-4.53839 -8.274687,-7.96777 -18.46875,-4.46875 -15.6331,5.36592 -15.25892,23.65684 -4.4375,27.875 7.356277,2.86746 16.265639,-2.70429 21.21875,-8.53125 1.2317523,3.60043 3.43718773,6.45982 5.78125,7.40625 6.7785203,2.73686 22.102414,-5.63882 23.71875,-12.3125 1.363784,-5.63092 -3.413074,-16.87486 -14.125,-16.65625 z"
         style="opacity:0.7;fill:#ffffff;fill-opacity:1;stroke:#4b2e2a;stroke-width:3;stroke-linecap:butt;stroke-linejoin:miter;stroke-miterlimit:4;stroke-opacity:1;stroke-dasharray:none" />
      <path
         transform="matrix(3.192748,0,0,3.192748,67.489277,439.82218)"
         d="m -18.90768,16.057133 c 0,0.154473 -0.125226,0.279699 -0.2797,0.279699 -0.154474,0 -0.279699,-0.125226 -0.279699,-0.279699 0,-0.154474 0.125225,-0.2797 0.279699,-0.2797 0.154474,0 0.2797,0.125226 0.2797,0.2797 z"
         sodipodi:ry="0.27969941"
         sodipodi:rx="0.27969941"
         sodipodi:cy="16.057133"
         sodipodi:cx="-19.18738"
         id="path3177-6-1-8-0-4-9"
         style="opacity:0.7;fill:#000000;fill-opacity:1;stroke:#000000;stroke-width:1.5;stroke-linecap:round;stroke-linejoin:round;stroke-miterlimit:4;stroke-opacity:1;stroke-dasharray:none;stroke-dashoffset:0"
         sodipodi:type="arc" />
      <path
         transform="matrix(3.192748,0,0,3.192748,44.140457,440.2743)"
         d="m -18.90768,16.057133 c 0,0.154473 -0.125226,0.279699 -0.2797,0.279699 -0.154474,0 -0.279699,-0.125226 -0.279699,-0.279699 0,-0.154474 0.125225,-0.2797 0.279699,-0.2797 0.154474,0 0.2797,0.125226 0.2797,0.2797 z"
         sodipodi:ry="0.27969941"
         sodipodi:rx="0.27969941"
         sodipodi:cy="16.057133"
         sodipodi:cx="-19.18738"
         id="path3177-6-1-8-0-4-9-5"
         style="opacity:0.7;fill:#000000;fill-opacity:1;stroke:#000000;stroke-width:1.5;stroke-linecap:round;stroke-linejoin:round;stroke-miterlimit:4;stroke-opacity:1;stroke-dasharray:none;stroke-dashoffset:0"
         sodipodi:type="arc" />
    </g>
  </g>
</svg>
