<?xml version="1.0" encoding="UTF-8" standalone="no"?>
<!-- Created with Inkscape (http://www.inkscape.org/) -->

<svg
   xmlns:dc="http://purl.org/dc/elements/1.1/"
   xmlns:cc="http://creativecommons.org/ns#"
   xmlns:rdf="http://www.w3.org/1999/02/22-rdf-syntax-ns#"
   xmlns:svg="http://www.w3.org/2000/svg"
   xmlns="http://www.w3.org/2000/svg"
   xmlns:xlink="http://www.w3.org/1999/xlink"
   xmlns:sodipodi="http://sodipodi.sourceforge.net/DTD/sodipodi-0.dtd"
   xmlns:inkscape="http://www.inkscape.org/namespaces/inkscape"
   width="125"
   height="85"
   id="svg4614"
   version="1.1"
   inkscape:version="0.48.2 r9819"
   sodipodi:docname="turning-02.svg"
   inkscape:export-filename="/home/guillaume/Documents/gamers associate/labo break/base/red/png120/turning-02.png"
   inkscape:export-xdpi="120"
   inkscape:export-ydpi="120">
  <defs
     id="defs4616">
    <radialGradient
       inkscape:collect="always"
       xlink:href="#linearGradient3169"
       id="radialGradient3898"
       gradientUnits="userSpaceOnUse"
       gradientTransform="matrix(2.4074118,-0.0205603,0.01110804,1.3006448,-44.68824,-22.887129)"
       cx="68.877106"
       cy="1.9344065"
       fx="68.877106"
       fy="1.9344065"
       r="36.199493" />
    <linearGradient
       id="linearGradient3169">
      <stop
         style="stop-color:#ead8be;stop-opacity:1;"
         offset="0"
         id="stop3171" />
      <stop
         style="stop-color:#c13c2a;stop-opacity:1;"
         offset="1"
         id="stop3173" />
    </linearGradient>
    <radialGradient
       r="36.199493"
       fy="1.9344065"
       fx="68.877106"
       cy="1.9344065"
       cx="68.877106"
       gradientTransform="matrix(2.4074118,-0.0205603,0.01110804,1.3006448,-79.55187,971.2765)"
       gradientUnits="userSpaceOnUse"
       id="radialGradient4656"
       xlink:href="#linearGradient3169"
       inkscape:collect="always" />
    <linearGradient
       id="linearGradient3169-8">
      <stop
         style="stop-color:#ead8be;stop-opacity:1;"
         offset="0"
         id="stop3171-1" />
      <stop
         style="stop-color:#c13c2a;stop-opacity:1;"
         offset="1"
         id="stop3173-6" />
    </linearGradient>
    <radialGradient
       inkscape:collect="always"
       xlink:href="#linearGradient3169-8"
       id="radialGradient2999"
       gradientUnits="userSpaceOnUse"
       gradientTransform="matrix(2.4074118,-0.0205603,0.01110804,1.3006448,-77.930099,1000.4419)"
       cx="63.691586"
       cy="-2.362777"
       fx="63.691586"
       fy="-2.362777"
       r="36.199493" />
  </defs>
  <sodipodi:namedview
     id="base"
     pagecolor="#ffffff"
     bordercolor="#666666"
     borderopacity="1.0"
     inkscape:pageopacity="0.0"
     inkscape:pageshadow="2"
     inkscape:zoom="3.8303738"
     inkscape:cx="53.81237"
     inkscape:cy="32.314261"
     inkscape:document-units="px"
     inkscape:current-layer="layer1"
     showgrid="false"
     inkscape:window-width="1280"
     inkscape:window-height="776"
     inkscape:window-x="0"
     inkscape:window-y="24"
     inkscape:window-maximized="1" />
  <metadata
     id="metadata4619">
    <rdf:RDF>
      <cc:Work
         rdf:about="">
        <dc:format>image/svg+xml</dc:format>
        <dc:type
           rdf:resource="http://purl.org/dc/dcmitype/StillImage" />
        <dc:title></dc:title>
      </cc:Work>
    </rdf:RDF>
  </metadata>
  <g
     inkscape:label="Calque 1"
     inkscape:groupmode="layer"
     id="layer1"
     transform="translate(0,-967.36218)">
    <path
       sodipodi:nodetypes="csssczzzc"
       inkscape:connector-curvature="0"
       id="path2993"
       d="m 33.205483,1049.6684 c 5.07012,0.2502 10.755198,0.3998 15.825908,0.4991 4.37313,0.086 8.82497,0.5635 13.269806,0.6807 5.237034,0.138 10.464344,-0.7924 15.541734,-0.717 6.02125,0.09 11.87585,0.2676 17.2416,0.717 15.812099,-2.8109 24.024989,-24.5692 23.067819,-35.75 -0.95717,-11.1808 -8.56774,-34.02882 -52.143842,-36.8346 -43.576104,-2.80578 -50.783167,18.44116 -52.358117,36.7447 -1.57496,18.3036 7.316232,29.7624 19.555092,34.6601 z"
       style="fill:url(#radialGradient2999);fill-opacity:1;stroke:#4b2e2a;stroke-width:3;stroke-linecap:butt;stroke-linejoin:miter;stroke-miterlimit:4;stroke-opacity:1;stroke-dasharray:none" />
    <path
       sodipodi:nodetypes="zzzz"
       inkscape:connector-curvature="0"
       id="path3792-5"
       d="m 37.745863,1015.9156 c -0.948735,6.2904 -9.0154,15.407 -20.836872,11.3799 -11.8214725,-4.0271 -8.2159702,-24.4319 4.45277,-26.8334 12.66874,-2.4016 17.332837,9.1631 16.384102,15.4535 z"
       style="fill:#ffffff;fill-opacity:1;stroke:#4b2e2a;stroke-width:3;stroke-linecap:butt;stroke-linejoin:miter;stroke-miterlimit:4;stroke-opacity:1;stroke-dasharray:none" />
    <path
       sodipodi:nodetypes="zzzz"
       inkscape:connector-curvature="0"
       id="path3792"
       d="m 87.989372,1021.1819 c -1.414203,7.6687 -13.370705,13.5084 -21.345993,11.2581 -7.975288,-2.2504 -14.631136,-21.0524 0.66244,-27.0508 15.293576,-5.99852 22.097756,8.124 20.683553,15.7927 z"
       style="fill:#ffffff;fill-opacity:1;stroke:#4b2e2a;stroke-width:3;stroke-linecap:butt;stroke-linejoin:miter;stroke-miterlimit:4;stroke-opacity:1;stroke-dasharray:none" />
    <path
       transform="matrix(3.192748,0,0,3.192748,138.31911,970.24704)"
       d="m -18.90768,16.057133 c 0,0.154473 -0.125226,0.279699 -0.2797,0.279699 -0.154474,0 -0.279699,-0.125226 -0.279699,-0.279699 0,-0.154474 0.125225,-0.2797 0.279699,-0.2797 0.154474,0 0.2797,0.125226 0.2797,0.2797 z"
       sodipodi:ry="0.27969941"
       sodipodi:rx="0.27969941"
       sodipodi:cy="16.057133"
       sodipodi:cx="-19.18738"
       id="path3177-6"
       style="fill:#000000;fill-opacity:1;stroke:#000000;stroke-width:1.5;stroke-linecap:round;stroke-linejoin:round;stroke-miterlimit:4;stroke-opacity:1;stroke-dasharray:none;stroke-dashoffset:0"
       sodipodi:type="arc" />
    <path
       transform="matrix(3.192748,0,0,3.192748,90.500435,965.06798)"
       d="m -18.90768,16.057133 c 0,0.154473 -0.125226,0.279699 -0.2797,0.279699 -0.154474,0 -0.279699,-0.125226 -0.279699,-0.279699 0,-0.154474 0.125225,-0.2797 0.279699,-0.2797 0.154474,0 0.2797,0.125226 0.2797,0.2797 z"
       sodipodi:ry="0.27969941"
       sodipodi:rx="0.27969941"
       sodipodi:cy="16.057133"
       sodipodi:cx="-19.18738"
       id="path3177-6-4"
       style="fill:#000000;fill-opacity:1;stroke:#000000;stroke-width:1.5;stroke-linecap:round;stroke-linejoin:round;stroke-miterlimit:4;stroke-opacity:1;stroke-dasharray:none;stroke-dashoffset:0"
       sodipodi:type="arc" />
  </g>
</svg>
