<?xml version="1.0" encoding="UTF-8" standalone="no"?>
<!-- Created with Inkscape (http://www.inkscape.org/) -->

<svg
   xmlns:dc="http://purl.org/dc/elements/1.1/"
   xmlns:cc="http://creativecommons.org/ns#"
   xmlns:rdf="http://www.w3.org/1999/02/22-rdf-syntax-ns#"
   xmlns:svg="http://www.w3.org/2000/svg"
   xmlns="http://www.w3.org/2000/svg"
   xmlns:xlink="http://www.w3.org/1999/xlink"
   xmlns:sodipodi="http://sodipodi.sourceforge.net/DTD/sodipodi-0.dtd"
   xmlns:inkscape="http://www.inkscape.org/namespaces/inkscape"
   width="500"
   height="480"
   id="svg3813"
   version="1.1"
   inkscape:version="0.48.2 r9819"
   sodipodi:docname="gamers associate.svg"
   inkscape:export-filename="/home/guillaume/Documents/gamers associate/logo/gamers associate.png"
   inkscape:export-xdpi="120"
   inkscape:export-ydpi="120">
  <defs
     id="defs3815">
    <linearGradient
       id="linearGradient4496">
      <stop
         style="stop-color:#ffffff;stop-opacity:0.23529412;"
         offset="0"
         id="stop4498" />
      <stop
         style="stop-color:#ffffff;stop-opacity:0;"
         offset="1"
         id="stop4500" />
    </linearGradient>
    <linearGradient
       inkscape:collect="always"
       xlink:href="#linearGradient4496"
       id="linearGradient4502"
       x1="283.38776"
       y1="215.03893"
       x2="283.38776"
       y2="305.21478"
       gradientUnits="userSpaceOnUse"
       gradientTransform="matrix(1.3592235,0,0,2.3826111,-100.90158,-291.5939)" />
    <linearGradient
       inkscape:collect="always"
       xlink:href="#linearGradient4496"
       id="linearGradient3768"
       gradientUnits="userSpaceOnUse"
       gradientTransform="matrix(1.3592235,0,0,2.3826111,-100.90158,-291.5939)"
       x1="283.38776"
       y1="215.03893"
       x2="283.38776"
       y2="305.21478" />
    <linearGradient
       inkscape:collect="always"
       xlink:href="#linearGradient4496"
       id="linearGradient3777"
       gradientUnits="userSpaceOnUse"
       gradientTransform="matrix(1.3592235,0,0,2.3826111,-100.90158,-291.5939)"
       x1="283.38776"
       y1="215.03893"
       x2="283.38776"
       y2="305.21478" />
    <linearGradient
       inkscape:collect="always"
       xlink:href="#linearGradient4496"
       id="linearGradient3791"
       gradientUnits="userSpaceOnUse"
       gradientTransform="matrix(1.3592235,0,0,2.3826111,-100.90158,-291.5939)"
       x1="283.38776"
       y1="215.03893"
       x2="283.38776"
       y2="305.21478" />
  </defs>
  <sodipodi:namedview
     id="base"
     pagecolor="#ffffff"
     bordercolor="#666666"
     borderopacity="1.0"
     inkscape:pageopacity="0.0"
     inkscape:pageshadow="2"
     inkscape:zoom="0.7"
     inkscape:cx="193.61934"
     inkscape:cy="214.12099"
     inkscape:document-units="px"
     inkscape:current-layer="layer1"
     showgrid="false"
     showguides="true"
     inkscape:guide-bbox="true"
     fit-margin-top="0"
     fit-margin-left="0"
     fit-margin-right="0"
     fit-margin-bottom="0"
     inkscape:window-width="1280"
     inkscape:window-height="775"
     inkscape:window-x="0"
     inkscape:window-y="24"
     inkscape:window-maximized="1" />
  <metadata
     id="metadata3818">
    <rdf:RDF>
      <cc:Work
         rdf:about="">
        <dc:format>image/svg+xml</dc:format>
        <dc:type
           rdf:resource="http://purl.org/dc/dcmitype/StillImage" />
        <dc:title></dc:title>
      </cc:Work>
    </rdf:RDF>
  </metadata>
  <g
     inkscape:label="Calque 1"
     inkscape:groupmode="layer"
     id="layer1"
     transform="translate(-86.897499,-148.72537)">
    <g
       id="g3764"
       transform="translate(15.468909,-13.884678)">
      <path
         transform="translate(191.42859,186.49469)"
         inkscape:connector-curvature="0"
         id="rect3821-6"
         d="M 72.96875,0 C 32.549363,0 0,32.549363 0,72.96875 l 0,174.0625 C 0,287.45064 32.549363,320 72.96875,320 L 165,320 l 0,-121.28125 -70,0 L 95,248 c 0,6.648 -4.46,12 -10,12 -5.54,0 -10,-5.352 -10,-12 L 75,91.28125 c 0,-6.648 4.46,-12 10,-12 L 85,0 72.96875,0 z M 95,0 l 0,91.28125 0,44.28125 0,53.15625 70,0 0,-117.28125 c 0,-6.648 4.46,-12 10,-12 5.54,0 10,5.352 10,12 l 0,117.28125 6.75,0 c 3.324,0 6,2.23 6,5 0,2.77 -2.676,5 -6,5 l -6.75,0 0,161.28125 2.03125,0 C 227.45064,360 260,327.48189 260,287.0625 l 0,-40.03125 0,-134.0625 0,-40 C 260,32.549363 227.45064,0 187.03125,0 L 95,0 z"
         style="color:#000000;fill:#830b0d;fill-opacity:1;fill-rule:nonzero;stroke:none;stroke-width:2.9001224;marker:none;visibility:visible;display:inline;overflow:visible;enable-background:accumulate" />
      <rect
         ry="44.955387"
         y="220.82501"
         x="221.42859"
         height="304.63382"
         width="200"
         id="rect4494"
         style="color:#000000;fill:url(#linearGradient3791);fill-opacity:1;fill-rule:nonzero;stroke:none;stroke-width:3;marker:none;visibility:visible;display:inline;overflow:visible;enable-background:accumulate" />
    </g>
    <text
       xml:space="preserve"
       style="font-size:50px;font-style:italic;font-variant:normal;font-weight:bold;font-stretch:normal;line-height:125%;letter-spacing:0px;word-spacing:0px;fill:#830b0d;fill-opacity:1;stroke:none;font-family:Slime;-inkscape-font-specification:Slime Bold Italic"
       x="136.60492"
       y="593.32074"
       id="text2988"
       sodipodi:linespacing="125%"><tspan
         sodipodi:role="line"
         id="tspan2990"
         x="136.60492"
         y="593.32074"
         style="font-size:50px;font-style:italic;font-variant:normal;font-weight:bold;font-stretch:normal;fill:#830b0d;fill-opacity:1;font-family:Expressway;-inkscape-font-specification:Expressway Bold Italic">gamers associate</tspan></text>
  </g>
</svg>
