<?xml version="1.0" encoding="UTF-8" standalone="no"?>
<!-- Created with Inkscape (http://www.inkscape.org/) -->

<svg
   xmlns:dc="http://purl.org/dc/elements/1.1/"
   xmlns:cc="http://creativecommons.org/ns#"
   xmlns:rdf="http://www.w3.org/1999/02/22-rdf-syntax-ns#"
   xmlns:svg="http://www.w3.org/2000/svg"
   xmlns="http://www.w3.org/2000/svg"
   xmlns:xlink="http://www.w3.org/1999/xlink"
   xmlns:sodipodi="http://sodipodi.sourceforge.net/DTD/sodipodi-0.dtd"
   xmlns:inkscape="http://www.inkscape.org/namespaces/inkscape"
   width="500"
   height="480"
   id="svg3813"
   version="1.1"
   inkscape:version="0.48.1 "
   sodipodi:docname="gamers associate.svg"
   inkscape:export-filename="C:\Documents and Settings\clerc.RRC-RA\Bureau\__ Perso2\gamersAssociate\logo\gamers associate.png"
   inkscape:export-xdpi="120"
   inkscape:export-ydpi="120">
  <defs
     id="defs3815">
    <linearGradient
       id="linearGradient4496">
      <stop
         style="stop-color:#ffffff;stop-opacity:0.23529412;"
         offset="0"
         id="stop4498" />
      <stop
         style="stop-color:#ffffff;stop-opacity:0;"
         offset="1"
         id="stop4500" />
    </linearGradient>
    <linearGradient
       inkscape:collect="always"
       xlink:href="#linearGradient4496"
       id="linearGradient4502"
       x1="283.38776"
       y1="215.03893"
       x2="283.38776"
       y2="305.21478"
       gradientUnits="userSpaceOnUse"
       gradientTransform="matrix(1.3592235,0,0,2.3826111,-100.90158,-291.5939)" />
    <linearGradient
       inkscape:collect="always"
       xlink:href="#linearGradient4496"
       id="linearGradient3768"
       gradientUnits="userSpaceOnUse"
       gradientTransform="matrix(1.3592235,0,0,2.3826111,-100.90158,-291.5939)"
       x1="283.38776"
       y1="215.03893"
       x2="283.38776"
       y2="305.21478" />
    <linearGradient
       inkscape:collect="always"
       xlink:href="#linearGradient4496"
       id="linearGradient3777"
       gradientUnits="userSpaceOnUse"
       gradientTransform="matrix(1.3592235,0,0,2.3826111,-100.90158,-291.5939)"
       x1="283.38776"
       y1="215.03893"
       x2="283.38776"
       y2="305.21478" />
    <linearGradient
       inkscape:collect="always"
       xlink:href="#linearGradient4496"
       id="linearGradient3791"
       gradientUnits="userSpaceOnUse"
       gradientTransform="matrix(1.3592235,0,0,2.3826111,-100.90158,-291.5939)"
       x1="283.38776"
       y1="215.03893"
       x2="283.38776"
       y2="305.21478" />
    <linearGradient
       inkscape:collect="always"
       xlink:href="#linearGradient4496-7"
       id="linearGradient3791-1"
       gradientUnits="userSpaceOnUse"
       gradientTransform="matrix(1.3592235,0,0,2.3826111,-100.90158,-291.5939)"
       x1="283.38776"
       y1="215.03893"
       x2="283.38776"
       y2="305.21478" />
    <linearGradient
       id="linearGradient4496-7">
      <stop
         style="stop-color:#ffffff;stop-opacity:0.23529412;"
         offset="0"
         id="stop4498-4" />
      <stop
         style="stop-color:#ffffff;stop-opacity:0;"
         offset="1"
         id="stop4500-0" />
    </linearGradient>
    <linearGradient
       inkscape:collect="always"
       xlink:href="#linearGradient4496-2"
       id="linearGradient3791-8"
       gradientUnits="userSpaceOnUse"
       gradientTransform="matrix(1.3592235,0,0,2.3826111,-100.90158,-291.5939)"
       x1="283.38776"
       y1="215.03893"
       x2="283.38776"
       y2="305.21478" />
    <linearGradient
       id="linearGradient4496-2">
      <stop
         style="stop-color:#ffffff;stop-opacity:0.23529412;"
         offset="0"
         id="stop4498-45" />
      <stop
         style="stop-color:#ffffff;stop-opacity:0;"
         offset="1"
         id="stop4500-5" />
    </linearGradient>
    <linearGradient
       inkscape:collect="always"
       xlink:href="#linearGradient4496-27"
       id="linearGradient3791-15"
       gradientUnits="userSpaceOnUse"
       gradientTransform="matrix(1.3592235,0,0,2.3826111,-100.90158,-291.5939)"
       x1="283.38776"
       y1="215.03893"
       x2="283.38776"
       y2="305.21478" />
    <linearGradient
       id="linearGradient4496-27">
      <stop
         style="stop-color:#ff1616;stop-opacity:0.23529412;"
         offset="0"
         id="stop4498-6" />
      <stop
         style="stop-color:#ffffff;stop-opacity:0;"
         offset="1"
         id="stop4500-1" />
    </linearGradient>
    <linearGradient
       inkscape:collect="always"
       xlink:href="#linearGradient4496-27"
       id="linearGradient3146"
       gradientUnits="userSpaceOnUse"
       gradientTransform="matrix(1.3592235,0,0,2.3826111,-83.98517,-301.13846)"
       x1="283.38776"
       y1="215.03893"
       x2="283.38776"
       y2="305.21478" />
    <linearGradient
       inkscape:collect="always"
       xlink:href="#linearGradient4496-27"
       id="linearGradient3922"
       gradientUnits="userSpaceOnUse"
       gradientTransform="matrix(1.3592235,0,0,2.3826111,-83.98517,-301.13846)"
       x1="283.38776"
       y1="215.03893"
       x2="283.38776"
       y2="305.21478" />
    <linearGradient
       inkscape:collect="always"
       xlink:href="#linearGradient4496-27"
       id="linearGradient3925"
       gradientUnits="userSpaceOnUse"
       gradientTransform="matrix(1.3592235,0,0,2.3826111,-544.43264,-204.4814)"
       x1="283.38776"
       y1="215.03893"
       x2="283.38776"
       y2="305.21478" />
    <linearGradient
       inkscape:collect="always"
       xlink:href="#linearGradient4496-27"
       id="linearGradient3932"
       gradientUnits="userSpaceOnUse"
       gradientTransform="matrix(1.3592235,0,0,2.3826111,-631.33014,-353.20677)"
       x1="283.38776"
       y1="215.03893"
       x2="283.38776"
       y2="305.21478" />
    <linearGradient
       inkscape:collect="always"
       xlink:href="#linearGradient4496-27"
       id="linearGradient3935"
       gradientUnits="userSpaceOnUse"
       gradientTransform="matrix(1.3592235,0,0,2.3826111,-97.432649,-305.48518)"
       x1="283.38776"
       y1="215.03893"
       x2="283.38776"
       y2="305.21478" />
    <linearGradient
       inkscape:collect="always"
       xlink:href="#linearGradient4496-21"
       id="linearGradient3791-2"
       gradientUnits="userSpaceOnUse"
       gradientTransform="matrix(1.3592235,0,0,2.3826111,-100.90158,-291.5939)"
       x1="283.38776"
       y1="215.03893"
       x2="283.38776"
       y2="305.21478" />
    <linearGradient
       id="linearGradient4496-21">
      <stop
         style="stop-color:#ffffff;stop-opacity:0.23529412;"
         offset="0"
         id="stop4498-68" />
      <stop
         style="stop-color:#ffffff;stop-opacity:0;"
         offset="1"
         id="stop4500-57" />
    </linearGradient>
    <linearGradient
       y2="305.21478"
       x2="283.38776"
       y1="215.03893"
       x1="283.38776"
       gradientTransform="matrix(1.3592235,0,0,2.3826111,-100.90158,-291.5939)"
       gradientUnits="userSpaceOnUse"
       id="linearGradient3954"
       xlink:href="#linearGradient4496-21"
       inkscape:collect="always" />
    <linearGradient
       inkscape:collect="always"
       xlink:href="#linearGradient4496"
       id="linearGradient3978"
       gradientUnits="userSpaceOnUse"
       gradientTransform="matrix(1.3592235,0,0,2.3826111,-85.432671,-305.47858)"
       x1="283.38776"
       y1="215.03893"
       x2="283.38776"
       y2="305.21478" />
    <linearGradient
       inkscape:collect="always"
       xlink:href="#linearGradient4496-21"
       id="linearGradient3986"
       gradientUnits="userSpaceOnUse"
       gradientTransform="matrix(1.3592235,0,0,2.3826111,-829.43266,-403.36322)"
       x1="283.38776"
       y1="215.03893"
       x2="283.38776"
       y2="305.21478" />
    <linearGradient
       inkscape:collect="always"
       xlink:href="#linearGradient4496-279"
       id="linearGradient4011"
       x1="7.5299668"
       y1="180.32097"
       x2="7.5299668"
       y2="396.79318"
       gradientUnits="userSpaceOnUse"
       gradientTransform="translate(294.00004,26.871216)" />
    <linearGradient
       inkscape:collect="always"
       xlink:href="#linearGradient4496-279"
       id="linearGradient3978-9"
       gradientUnits="userSpaceOnUse"
       gradientTransform="matrix(1.3592235,0,0,2.3826111,-85.432671,-305.47858)"
       x1="283.38776"
       y1="215.03893"
       x2="283.38776"
       y2="305.21478" />
    <linearGradient
       id="linearGradient4496-279">
      <stop
         style="stop-color:#ffffff;stop-opacity:0.23529412;"
         offset="0"
         id="stop4498-5" />
      <stop
         style="stop-color:#ffffff;stop-opacity:0;"
         offset="1"
         id="stop4500-4" />
    </linearGradient>
    <linearGradient
       y2="305.21478"
       x2="283.38776"
       y1="215.03893"
       x1="283.38776"
       gradientTransform="matrix(1.3592235,0,0,2.3826111,-85.432671,-305.47858)"
       gradientUnits="userSpaceOnUse"
       id="linearGradient4030"
       xlink:href="#linearGradient4496-279"
       inkscape:collect="always" />
    <linearGradient
       inkscape:collect="always"
       xlink:href="#linearGradient4496"
       id="linearGradient4053"
       gradientUnits="userSpaceOnUse"
       gradientTransform="matrix(1.3592235,0,0,2.3826111,-85.432671,-305.47858)"
       x1="283.38776"
       y1="215.03893"
       x2="283.38776"
       y2="305.21478" />
    <linearGradient
       inkscape:collect="always"
       xlink:href="#linearGradient4496"
       id="linearGradient4056"
       gradientUnits="userSpaceOnUse"
       gradientTransform="matrix(1.3592235,0,0,2.3826111,-85.432671,-305.47858)"
       x1="283.38776"
       y1="215.03893"
       x2="283.38776"
       y2="305.21478" />
    <linearGradient
       inkscape:collect="always"
       xlink:href="#linearGradient4496-279"
       id="linearGradient4064"
       gradientUnits="userSpaceOnUse"
       gradientTransform="matrix(1.3592235,0,0,2.3826111,-862.43981,-426.05961)"
       x1="283.38776"
       y1="215.03893"
       x2="283.38776"
       y2="305.21478" />
  </defs>
  <sodipodi:namedview
     id="base"
     pagecolor="#ffffff"
     bordercolor="#666666"
     borderopacity="1.0"
     inkscape:pageopacity="0.0"
     inkscape:pageshadow="2"
     inkscape:zoom="1"
     inkscape:cx="255.83616"
     inkscape:cy="206.41287"
     inkscape:document-units="px"
     inkscape:current-layer="layer1"
     showgrid="false"
     showguides="true"
     inkscape:guide-bbox="true"
     fit-margin-top="0"
     fit-margin-left="0"
     fit-margin-right="0"
     fit-margin-bottom="0"
     inkscape:window-width="1440"
     inkscape:window-height="844"
     inkscape:window-x="-4"
     inkscape:window-y="-4"
     inkscape:window-maximized="1" />
  <metadata
     id="metadata3818">
    <rdf:RDF>
      <cc:Work
         rdf:about="">
        <dc:format>image/svg+xml</dc:format>
        <dc:type
           rdf:resource="http://purl.org/dc/dcmitype/StillImage" />
        <dc:title></dc:title>
      </cc:Work>
    </rdf:RDF>
  </metadata>
  <g
     inkscape:label="Calque 1"
     inkscape:groupmode="layer"
     id="layer1"
     transform="translate(-86.897499,-148.72537)">
    <path
       style="color:#000000;fill:#830b0d;fill-opacity:1;fill-rule:nonzero;stroke:none;stroke-width:2.9001224;marker:none;visibility:visible;display:inline;overflow:visible;enable-background:accumulate"
       d="m 279.86625,172.61001 c -40.41939,0 -72.96875,32.54936 -72.96875,72.96875 l 0,174.0625 c 0,40.41939 32.54936,72.96875 72.96875,72.96875 l 92.03125,0 0,-121.28125 -70,0 0,49.28125 c 0,6.648 -4.46,12 -10,12 -5.54,0 -10,-5.352 -10,-12 l 0,-156.71875 c 0,-6.648 4.46,-12 10,-12 l 0,-79.28125 -12.03125,0 z m 22.03125,0 0,91.28125 0,44.28125 0,53.15625 70,0 0,-117.28125 c 0,-6.648 4.46,-12 10,-12 5.54,0 10,5.352 10,12 l 0,117.28125 6.75,0 c 3.324,0 6,2.23 6,5 0,2.77 -2.676,5 -6,5 l -6.75,0 0,161.28125 2.03125,0 c 40.41939,0 72.96875,-32.51811 72.96875,-72.9375 l 0,-40.03125 0,-134.0625 0,-40 c 0,-40.41939 -32.54936,-72.96875 -72.96875,-72.96875 l -92.03125,0 z"
       id="rect3821-6"
       inkscape:connector-curvature="0" />
    <path
       style="color:#000000;fill:url(#linearGradient4011);fill-opacity:1.0;fill-rule:nonzero;stroke:none;stroke-width:2.90012239999999990;marker:none;visibility:visible;display:inline;overflow:visible;enable-background:accumulate"
       d="m 281.86629,206.94034 c -3.11316,0 -6.16199,0.30936 -9.09375,0.90625 -2.93176,0.59689 -5.7465,1.45933 -8.4375,2.59375 -2.691,1.13442 -5.26536,2.54365 -7.65625,4.15625 -2.39089,1.6126 -4.62483,3.43733 -6.65625,5.46875 -2.03142,2.03142 -3.85615,4.26536 -5.46875,6.65625 -1.6126,2.39089 -2.99058,4.934 -4.125,7.625 -1.13442,2.691 -2.02811,5.53699 -2.625,8.46875 -0.59689,2.93176 -0.90625,5.94934 -0.90625,9.0625 l 0,214.71875 c 0,3.11316 0.30936,6.16199 0.90625,9.09375 0.32514,1.597 0.94885,3.06418 1.4375,4.59375 11.60138,7.76719 25.55828,12.3125 40.625,12.3125 l 92.03125,0 0,-121.28125 -70,0 0,49.28125 c 0,6.648 -4.46,12 -10,12 -5.54,0 -10,-5.352 -10,-12 l 0,-156.71875 c 0,-6.648 4.46,-12 10,-12 l 0,-44.9375 -10.03125,0 z m 20.03125,0 0,56.9375 0,44.28125 0,53.15625 70,0 0,-117.28125 c 0,-6.648 4.46,-12 10,-12 5.54,0 10,5.352 10,12 l 0,117.28125 6.75,0 c 3.324,0 6,2.23 6,5 0,2.77 -2.676,5 -6,5 l -6.75,0 0,140.25 0.0312,0 c 3.11316,0 6.16199,-0.30936 9.09375,-0.90625 2.93176,-0.59689 5.7465,-1.49058 8.4375,-2.625 2.691,-1.13442 5.26536,-2.5124 7.65625,-4.125 2.39089,-1.6126 4.62483,-3.46858 6.65625,-5.5 2.03142,-2.03142 3.85615,-4.23411 5.46875,-6.625 1.6126,-2.39089 2.99058,-4.96525 4.125,-7.65625 1.13442,-2.691 2.02811,-5.50574 2.625,-8.4375 0.59689,-2.93176 0.90625,-5.98059 0.90625,-9.09375 l 0,-214.71875 c 0,-3.11316 -0.30936,-6.13074 -0.90625,-9.0625 -0.59689,-2.93176 -1.49058,-5.77775 -2.625,-8.46875 -1.13442,-2.691 -2.5124,-5.23411 -4.125,-7.625 -1.6126,-2.39089 -3.43733,-4.62483 -5.46875,-6.65625 -2.03142,-2.03142 -4.26536,-3.85615 -6.65625,-5.46875 -2.39089,-1.6126 -4.96525,-3.02183 -7.65625,-4.15625 -2.691,-1.13442 -5.50574,-1.99686 -8.4375,-2.59375 -2.93176,-0.59689 -5.98059,-0.90625 -9.09375,-0.90625 l -90.03125,0 z"
       id="path4000"
       inkscape:connector-curvature="0" />
    <text
       xml:space="preserve"
       style="font-size:50px;font-style:italic;font-variant:normal;font-weight:bold;font-stretch:normal;line-height:125%;letter-spacing:0px;word-spacing:0px;fill:#830b0d;fill-opacity:1;stroke:none;font-family:Slime;-inkscape-font-specification:Slime Bold Italic"
       x="242.3916"
       y="593.32074"
       id="text2988"
       sodipodi:linespacing="125%"
       transform="matrix(1,0,-0.17632629,1,0,0)"><tspan
         sodipodi:role="line"
         id="tspan2990"
         x="242.3916"
         y="593.32074"
         style="font-size:50px;font-style:normal;font-variant:normal;font-weight:normal;font-stretch:normal;fill:#830b0d;fill-opacity:1;font-family:Expressway Rg;-inkscape-font-specification:Expressway Rg">gamers associate</tspan></text>
  </g>
</svg>
