<?xml version="1.0" encoding="UTF-8" standalone="no"?>
<!-- Created with Inkscape (http://www.inkscape.org/) -->

<svg
   xmlns:dc="http://purl.org/dc/elements/1.1/"
   xmlns:cc="http://creativecommons.org/ns#"
   xmlns:rdf="http://www.w3.org/1999/02/22-rdf-syntax-ns#"
   xmlns:svg="http://www.w3.org/2000/svg"
   xmlns="http://www.w3.org/2000/svg"
   xmlns:xlink="http://www.w3.org/1999/xlink"
   xmlns:sodipodi="http://sodipodi.sourceforge.net/DTD/sodipodi-0.dtd"
   xmlns:inkscape="http://www.inkscape.org/namespaces/inkscape"
   width="256"
   height="256"
   id="svg2"
   version="1.1"
   inkscape:version="0.48.2 r9819"
   sodipodi:docname="liquid-core-01.svg"
   inkscape:export-filename="/home/guillaume/Documents/gamers associate/labo break/base/textures/liquid-core-01.png"
   inkscape:export-xdpi="90"
   inkscape:export-ydpi="90">
  <defs
     id="defs4">
    <radialGradient
       gradientUnits="userSpaceOnUse"
       gradientTransform="matrix(0.7038326,0.0221994,-0.04159285,1.3187024,5.5527411,-6.5408101)"
       r="8.2885695"
       fy="14.079686"
       fx="17.373365"
       cy="14.079686"
       cx="17.373365"
       id="radialGradient3175"
       xlink:href="#linearGradient3169"
       inkscape:collect="always" />
    <inkscape:perspective
       id="perspective10"
       inkscape:persp3d-origin="372.04724 : 350.78739 : 1"
       inkscape:vp_z="744.09448 : 526.18109 : 1"
       inkscape:vp_y="0 : 1000 : 0"
       inkscape:vp_x="0 : 526.18109 : 1"
       sodipodi:type="inkscape:persp3d" />
    <linearGradient
       id="linearGradient3169">
      <stop
         id="stop3171"
         offset="0"
         style="stop-color:#ffffff;stop-opacity:1;" />
      <stop
         id="stop3173"
         offset="1"
         style="stop-color:#00aa36;stop-opacity:1;" />
    </linearGradient>
  </defs>
  <sodipodi:namedview
     id="base"
     pagecolor="#ffffff"
     bordercolor="#666666"
     borderopacity="1.0"
     inkscape:pageopacity="0.0"
     inkscape:pageshadow="2"
     inkscape:zoom="0.98499975"
     inkscape:cx="-239.57212"
     inkscape:cy="186.86083"
     inkscape:document-units="px"
     inkscape:current-layer="layer1"
     showgrid="false"
     inkscape:window-width="1280"
     inkscape:window-height="776"
     inkscape:window-x="0"
     inkscape:window-y="24"
     inkscape:window-maximized="1"
     showguides="true"
     inkscape:guide-bbox="true" />
  <metadata
     id="metadata7">
    <rdf:RDF>
      <cc:Work
         rdf:about="">
        <dc:format>image/svg+xml</dc:format>
        <dc:type
           rdf:resource="http://purl.org/dc/dcmitype/StillImage" />
        <dc:title />
      </cc:Work>
    </rdf:RDF>
  </metadata>
  <g
     inkscape:label="Calque 1"
     inkscape:groupmode="layer"
     id="layer1"
     transform="translate(0,-796.36218)">
    <rect
       style="opacity:0.5;color:#000000;fill:#abee38;fill-opacity:1;fill-rule:nonzero;stroke:none;stroke-width:1;marker:none;visibility:visible;display:inline;overflow:visible;enable-background:accumulate"
       id="rect3004"
       width="256"
       height="256"
       x="0"
       y="796.36218"
       ry="0" />
    <path
       sodipodi:type="arc"
       style="opacity:0.7;color:#000000;fill:#ffffc0;fill-opacity:1;fill-rule:nonzero;stroke:none;stroke-width:1;marker:none;visibility:visible;display:inline;overflow:visible;enable-background:accumulate"
       id="path3848"
       sodipodi:cx="-188.32492"
       sodipodi:cy="228.58882"
       sodipodi:rx="36.040619"
       sodipodi:ry="34.517776"
       d="m -152.2843,228.58882 a 36.040619,34.517776 0 1 1 -72.08124,0 36.040619,34.517776 0 1 1 72.08124,0 z"
       transform="matrix(0.1204392,0,0,0.12575269,134.79332,958.92549)" />
    <path
       sodipodi:type="arc"
       style="opacity:0.7;color:#000000;fill:#ffffc0;fill-opacity:1;fill-rule:nonzero;stroke:none;stroke-width:1;marker:none;visibility:visible;display:inline;overflow:visible;enable-background:accumulate"
       id="path3848-4"
       sodipodi:cx="-188.32492"
       sodipodi:cy="228.58882"
       sodipodi:rx="36.040619"
       sodipodi:ry="34.517776"
       d="m -152.2843,228.58882 a 36.040619,34.517776 0 1 1 -72.08124,0 36.040619,34.517776 0 1 1 72.08124,0 z"
       transform="matrix(0.1204392,0,0,0.12575269,225.12248,909.47438)" />
    <path
       sodipodi:type="arc"
       style="opacity:0.7;color:#000000;fill:#ffffc0;fill-opacity:1;fill-rule:nonzero;stroke:none;stroke-width:1;marker:none;visibility:visible;display:inline;overflow:visible;enable-background:accumulate"
       id="path3848-0"
       sodipodi:cx="-188.32492"
       sodipodi:cy="228.58882"
       sodipodi:rx="36.040619"
       sodipodi:ry="34.517776"
       d="m -152.2843,228.58882 a 36.040619,34.517776 0 1 1 -72.08124,0 36.040619,34.517776 0 1 1 72.08124,0 z"
       transform="matrix(0.1204392,0,0,0.12575269,222.25098,859.22313)" />
    <path
       sodipodi:type="arc"
       style="opacity:0.7;color:#000000;fill:#ffffc0;fill-opacity:1;fill-rule:nonzero;stroke:none;stroke-width:1;marker:none;visibility:visible;display:inline;overflow:visible;enable-background:accumulate"
       id="path3848-42"
       sodipodi:cx="-188.32492"
       sodipodi:cy="228.58882"
       sodipodi:rx="36.040619"
       sodipodi:ry="34.517776"
       d="m -152.2843,228.58882 a 36.040619,34.517776 0 1 1 -72.08124,0 36.040619,34.517776 0 1 1 72.08124,0 z"
       transform="matrix(0.1204392,0,0,0.12575269,255.74476,813.5976)" />
    <path
       sodipodi:type="arc"
       style="opacity:0.7;color:#000000;fill:#ffffc0;fill-opacity:1;fill-rule:nonzero;stroke:none;stroke-width:1;marker:none;visibility:visible;display:inline;overflow:visible;enable-background:accumulate"
       id="path3848-9"
       sodipodi:cx="-188.32492"
       sodipodi:cy="228.58882"
       sodipodi:rx="36.040619"
       sodipodi:ry="34.517776"
       d="m -152.2843,228.58882 a 36.040619,34.517776 0 1 1 -72.08124,0 36.040619,34.517776 0 1 1 72.08124,0 z"
       transform="matrix(0.2399502,0,0,0.25053623,95.439854,885.97538)" />
    <path
       sodipodi:type="arc"
       style="opacity:0.7;color:#000000;fill:#ffffc0;fill-opacity:1;fill-rule:nonzero;stroke:none;stroke-width:1;marker:none;visibility:visible;display:inline;overflow:visible;enable-background:accumulate"
       id="path3848-9-6"
       sodipodi:cx="-188.32492"
       sodipodi:cy="228.58882"
       sodipodi:rx="36.040619"
       sodipodi:ry="34.517776"
       d="m -152.2843,228.58882 a 36.040619,34.517776 0 1 1 -72.08124,0 36.040619,34.517776 0 1 1 72.08124,0 z"
       transform="matrix(0.2399502,0,0,0.25053623,147.12686,785.47287)" />
    <path
       sodipodi:type="arc"
       style="opacity:0.7;color:#000000;fill:#ffffc0;fill-opacity:1;fill-rule:nonzero;stroke:none;stroke-width:1;marker:none;visibility:visible;display:inline;overflow:visible;enable-background:accumulate"
       id="path3848-0-0"
       sodipodi:cx="-188.32492"
       sodipodi:cy="228.58882"
       sodipodi:rx="36.040619"
       sodipodi:ry="34.517776"
       d="m -152.2843,228.58882 a 36.040619,34.517776 0 1 1 -72.08124,0 36.040619,34.517776 0 1 1 72.08124,0 z"
       transform="matrix(0.1204392,0,0,0.12575269,93.751336,889.37388)" />
    <path
       sodipodi:type="arc"
       style="opacity:0.7;color:#000000;fill:#ffffc0;fill-opacity:1;fill-rule:nonzero;stroke:none;stroke-width:1;marker:none;visibility:visible;display:inline;overflow:visible;enable-background:accumulate"
       id="path3848-9-6-1"
       sodipodi:cx="-188.32492"
       sodipodi:cy="228.58882"
       sodipodi:rx="36.040619"
       sodipodi:ry="34.517776"
       d="m -152.2843,228.58882 a 36.040619,34.517776 0 1 1 -72.08124,0 36.040619,34.517776 0 1 1 72.08124,0 z"
       transform="matrix(0.36942045,0,0,0.3857184,252.27029,915.01682)" />
    <path
       sodipodi:type="arc"
       style="opacity:0.7;color:#000000;fill:#ffffc0;fill-opacity:1;fill-rule:nonzero;stroke:none;stroke-width:1;marker:none;visibility:visible;display:inline;overflow:visible;enable-background:accumulate"
       id="path3848-8"
       sodipodi:cx="-188.32492"
       sodipodi:cy="228.58882"
       sodipodi:rx="36.040619"
       sodipodi:ry="34.517776"
       d="m -152.2843,228.58882 a 36.040619,34.517776 0 1 1 -72.08124,0 36.040619,34.517776 0 1 1 72.08124,0 z"
       transform="matrix(0.1204392,0,0,0.12575269,31.818761,955.5962)" />
  </g>
</svg>
